NewsreaderCaption-Regular.ufo
<glyph name="exclam" format="2">
	<unicode hex="0021"/>
	<advance width="650"/>
	<outline>
		<contour>
			<point x="446" y="1384" type="line" smooth="yes"/>
			<point x="446" y="1416"/>
			<point x="421" y="1433"/>
			<point x="325" y="1433" type="curve" smooth="yes"/>
			<point x="229" y="1433"/>
			<point x="204" y="1416"/>
			<point x="204" y="1384" type="curve" smooth="yes"/>
			<point x="204" y="1311" type="line" smooth="yes"/>
			<point x="204" y="1272"/>
			<point x="252" y="537"/>
			<point x="263" y="435" type="curve"/>
			<point x="387" y="435" type="line"/>
			<point x="397" y="537"/>
			<point x="446" y="1272"/>
			<point x="446" y="1311" type="curve" smooth="yes"/>
		</contour>
		<contour>
			<point x="325" y="294" type="curve" smooth="yes"/>
			<point x="230" y="294"/>
			<point x="168" y="240"/>
			<point x="168" y="140" type="curve" smooth="yes"/>
			<point x="168" y="40"/>
			<point x="230" y="-14"/>
			<point x="325" y="-14" type="curve" smooth="yes"/>
			<point x="420" y="-14"/>
			<point x="482" y="40"/>
			<point x="482" y="140" type="curve" smooth="yes"/>
			<point x="482" y="240"/>
			<point x="420" y="294"/>
		</contour>
	</outline>
</glyph>
<glyph name="quotesingle" format="2">
	<unicode hex="0027"/>
	<advance width="484"/>
	<outline>
		<contour>
			<point x="168" y="897" type="line"/>
			<point x="316" y="897" type="line"/>
			<point x="353" y="1374" type="line"/>
			<point x="353" y="1414" type="line"/>
			<point x="131" y="1414" type="line"/>
			<point x="131" y="1374" type="line"/>
		</contour>
	</outline>
</glyph>
<glyph name="parenleft" format="2">
	<unicode hex="0028"/>
	<advance width="712"/>
	<outline>
		<contour>
			<point x="314" y="621" type="curve" smooth="yes"/>
			<point x="314" y="931"/>
			<point x="404" y="1160"/>
			<point x="650" y="1393" type="curve"/>
			<point x="565" y="1484" type="line"/>
			<point x="213" y="1180"/>
			<point x="105" y="932"/>
			<point x="105" y="621" type="curve" smooth="yes"/>
			<point x="105" y="310"/>
			<point x="213" y="62"/>
			<point x="565" y="-242" type="curve"/>
			<point x="650" y="-151" type="line"/>
			<point x="404" y="82"/>
			<point x="314" y="311"/>
		</contour>
	</outline>
</glyph>
<glyph name="parenright" format="2">
	<unicode hex="0029"/>
	<advance width="712"/>
	<outline>
		<contour>
			<point x="398" y="622" type="curve" smooth="yes"/>
			<point x="398" y="312"/>
			<point x="308" y="83"/>
			<point x="62" y="-150" type="curve"/>
			<point x="147" y="-241" type="line"/>
			<point x="499" y="63"/>
			<point x="607" y="311"/>
			<point x="607" y="622" type="curve" smooth="yes"/>
			<point x="607" y="933"/>
			<point x="499" y="1181"/>
			<point x="147" y="1485" type="curve"/>
			<point x="62" y="1394" type="line"/>
			<point x="308" y="1161"/>
			<point x="398" y="932"/>
		</contour>
	</outline>
</glyph>
<glyph name="asterisk" format="2">
	<unicode hex="002A"/>
	<advance width="925"/>
	<outline>
		<contour>
			<point x="643" y="778" type="line"/>
			<point x="564" y="1018" type="line"/>
			<point x="814" y="1045" type="line"/>
			<point x="807" y="1155" type="line"/>
			<point x="553" y="1154" type="line"/>
			<point x="605" y="1400" type="line"/>
			<point x="498" y="1428" type="line"/>
			<point x="422" y="1186" type="line"/>
			<point x="202" y="1311" type="line"/>
			<point x="144" y="1219" type="line"/>
			<point x="350" y="1071" type="line"/>
			<point x="163" y="901" type="line"/>
			<point x="233" y="817" type="line"/>
			<point x="437" y="967" type="line"/>
			<point x="541" y="736" type="line"/>
		</contour>
	</outline>
</glyph>
<glyph name="plus" format="2">
	<unicode hex="002B"/>
	<advance width="1140"/>
	<outline>
		<contour>
			<point x="490.5" y="950" type="line"/>
			<point x="490.5" y="83" type="line"/>
			<point x="649.5" y="83" type="line"/>
			<point x="649.5" y="950" type="line"/>
		</contour>
		<contour>
			<point x="1003.5" y="596" type="line"/>
			<point x="136.5" y="596" type="line"/>
			<point x="136.5" y="437" type="line"/>
			<point x="1003.5" y="437" type="line"/>
		</contour>
	</outline>
</glyph>
<glyph name="comma" format="2">
	<unicode hex="002C"/>
	<advance width="558"/>
	<outline>
		<contour>
			<point x="57" y="-284" type="curve"/>
			<point x="112" y="-354" type="line"/>
			<point x="355" y="-175"/>
			<point x="431" y="-36"/>
			<point x="431" y="125" type="curve" smooth="yes"/>
			<point x="431" y="243"/>
			<point x="376" y="294"/>
			<point x="271" y="294" type="curve" smooth="yes"/>
			<point x="173" y="294"/>
			<point x="119" y="238"/>
			<point x="119" y="147" type="curve" smooth="yes"/>
			<point x="119" y="105"/>
			<point x="242" y="63"/>
			<point x="242" y="-31" type="curve" smooth="yes"/>
			<point x="242" y="-108"/>
			<point x="199" y="-176"/>
		</contour>
	</outline>
</glyph>
<glyph name="hyphen" format="2">
	<unicode hex="002D"/>
	<advance width="817"/>
	<outline>
		<contour>
			<point x="151" y="607" type="line"/>
			<point x="151" y="437" type="line"/>
			<point x="666" y="437" type="line"/>
			<point x="666" y="607" type="line"/>
		</contour>
	</outline>
</glyph>
<glyph name="period" format="2">
	<unicode hex="002E"/>
	<advance width="558"/>
	<outline>
		<contour>
			<point x="279" y="294" type="curve" smooth="yes"/>
			<point x="184" y="294"/>
			<point x="122" y="240"/>
			<point x="122" y="140" type="curve" smooth="yes"/>
			<point x="122" y="40"/>
			<point x="184" y="-14"/>
			<point x="279" y="-14" type="curve" smooth="yes"/>
			<point x="374" y="-14"/>
			<point x="436" y="40"/>
			<point x="436" y="140" type="curve" smooth="yes"/>
			<point x="436" y="240"/>
			<point x="374" y="294"/>
		</contour>
	</outline>
</glyph>
<glyph name="slash" format="2">
	<unicode hex="002F"/>
	<advance width="891"/>
	<outline>
		<contour>
			<point x="62" y="0" type="line"/>
			<point x="241" y="0" type="line"/>
			<point x="832" y="1414" type="line"/>
			<point x="652" y="1414" type="line"/>
		</contour>
	</outline>
</glyph>
<glyph name="zero" format="2">
	<unicode hex="0030"/>
	<advance width="1300"/>
	<outline>
		<contour>
			<point x="654" y="134" type="curve" smooth="yes"/>
			<point x="423.6694677871" y="134"/>
			<point x="317" y="325"/>
			<point x="317" y="739" type="curve" smooth="yes"/>
			<point x="317" y="1108"/>
			<point x="421.6571428571" y="1280"/>
			<point x="647" y="1280" type="curve" smooth="yes"/>
			<point x="877.3305322129" y="1280"/>
			<point x="984" y="1089"/>
			<point x="984" y="675" type="curve" smooth="yes"/>
			<point x="984" y="306"/>
			<point x="879.3428571429" y="134"/>
		</contour>
		<contour>
			<point x="659" y="1434" type="curve" smooth="yes"/>
			<point x="287.321799308" y="1434"/>
			<point x="101" y="1154"/>
			<point x="101" y="680" type="curve" smooth="yes"/>
			<point x="101" y="237"/>
			<point x="300.6203208556" y="-20"/>
			<point x="642" y="-20" type="curve" smooth="yes"/>
			<point x="1013.678200692" y="-20"/>
			<point x="1200" y="259"/>
			<point x="1200" y="734" type="curve" smooth="yes"/>
			<point x="1200" y="1177"/>
			<point x="1000.3796791444" y="1434"/>
		</contour>
	</outline>
</glyph>
<glyph name="one" format="2">
	<unicode hex="0031"/>
	<advance width="1300"/>
	<outline>
		<contour>
			<point x="631" y="165" type="line"/>
			<point x="280" y="107" type="line"/>
			<point x="280" y="0" type="line"/>
			<point x="1174" y="0" type="line"/>
			<point x="1174" y="107" type="line"/>
			<point x="839" y="165" type="line"/>
			<point x="839" y="1434" type="line"/>
			<point x="689" y="1434" type="line"/>
			<point x="163" y="1188" type="line"/>
			<point x="214" y="1045" type="line"/>
			<point x="696" y="1224" type="line"/>
			<point x="631" y="1317" type="line"/>
		</contour>
	</outline>
</glyph>
<glyph name="colon" format="2">
	<unicode hex="003A"/>
	<advance width="614"/>
	<outline>
		<contour>
			<point x="307" y="294" type="curve" smooth="yes"/>
			<point x="212" y="294"/>
			<point x="150" y="240"/>
			<point x="150" y="140" type="curve" smooth="yes"/>
			<point x="150" y="40"/>
			<point x="212" y="-14"/>
			<point x="307" y="-14" type="curve" smooth="yes"/>
			<point x="402" y="-14"/>
			<point x="464" y="40"/>
			<point x="464" y="140" type="curve" smooth="yes"/>
			<point x="464" y="240"/>
			<point x="402" y="294"/>
		</contour>
		<contour>
			<point x="307" y="1038" type="curve" smooth="yes"/>
			<point x="212" y="1038"/>
			<point x="150" y="984"/>
			<point x="150" y="884" type="curve" smooth="yes"/>
			<point x="150" y="784"/>
			<point x="212" y="730"/>
			<point x="307" y="730" type="curve" smooth="yes"/>
			<point x="402" y="730"/>
			<point x="464" y="784"/>
			<point x="464" y="884" type="curve" smooth="yes"/>
			<point x="464" y="984"/>
			<point x="402" y="1038"/>
		</contour>
	</outline>
</glyph>
<glyph name="semicolon" format="2">
	<unicode hex="003B"/>
	<advance width="628"/>
	<outline>
		<contour>
			<point x="97" y="-284" type="curve"/>
			<point x="152" y="-354" type="line"/>
			<point x="395" y="-175"/>
			<point x="471" y="-36"/>
			<point x="471" y="125" type="curve" smooth="yes"/>
			<point x="471" y="243"/>
			<point x="416" y="294"/>
			<point x="311" y="294" type="curve" smooth="yes"/>
			<point x="213" y="294"/>
			<point x="159" y="238"/>
			<point x="159" y="147" type="curve" smooth="yes"/>
			<point x="159" y="105"/>
			<point x="282" y="63"/>
			<point x="282" y="-31" type="curve" smooth="yes"/>
			<point x="282" y="-108"/>
			<point x="239" y="-176"/>
		</contour>
		<contour>
			<point x="314" y="1038" type="curve" smooth="yes"/>
			<point x="219" y="1038"/>
			<point x="157" y="984"/>
			<point x="157" y="884" type="curve" smooth="yes"/>
			<point x="157" y="784"/>
			<point x="219" y="730"/>
			<point x="314" y="730" type="curve" smooth="yes"/>
			<point x="409" y="730"/>
			<point x="471" y="784"/>
			<point x="471" y="884" type="curve" smooth="yes"/>
			<point x="471" y="984"/>
			<point x="409" y="1038"/>
		</contour>
	</outline>
</glyph>
<glyph name="less" format="2">
	<unicode hex="003C"/>
	<advance width="1140"/>
	<outline>
		<contour>
			<point x="218.5" y="476" type="line"/>
			<point x="1001.5" y="814" type="line"/>
			<point x="1001.5" y="985" type="line"/>
			<point x="115.5" y="593" type="line"/>
			<point x="115.5" y="440" type="line"/>
			<point x="1001.5" y="48" type="line"/>
			<point x="1001.5" y="222" type="line"/>
			<point x="218.5" y="563" type="line"/>
		</contour>
	</outline>
</glyph>
<glyph name="greater" format="2">
	<unicode hex="003E"/>
	<advance width="1140"/>
	<outline>
		<contour>
			<point x="921.5" y="476" type="line"/>
			<point x="921.5" y="563" type="line"/>
			<point x="138.5" y="222" type="line"/>
			<point x="138.5" y="48" type="line"/>
			<point x="1024.5" y="440" type="line"/>
			<point x="1024.5" y="593" type="line"/>
			<point x="138.5" y="985" type="line"/>
			<point x="138.5" y="814" type="line"/>
		</contour>
	</outline>
</glyph>
<glyph name="question" format="2">
	<unicode hex="003F"/>
	<advance width="1186"/>
	<outline>
		<contour>
			<point x="533" y="1434" type="curve" smooth="yes"/>
			<point x="161" y="1434"/>
			<point x="61" y="1333"/>
			<point x="61" y="1244" type="curve" smooth="yes"/>
			<point x="61" y="1173"/>
			<point x="112" y="1131"/>
			<point x="189" y="1131" type="curve" smooth="yes"/>
			<point x="255" y="1131"/>
			<point x="317" y="1290"/>
			<point x="549" y="1290" type="curve" smooth="yes"/>
			<point x="776" y="1290"/>
			<point x="873" y="1175"/>
			<point x="873" y="1035" type="curve" smooth="yes"/>
			<point x="873" y="874"/>
			<point x="777" y="804"/>
			<point x="447" y="802" type="curve"/>
			<point x="480" y="435" type="line"/>
			<point x="609" y="435" type="line"/>
			<point x="632" y="729" type="line"/>
			<point x="572" y="644" type="line"/>
			<point x="960" y="652"/>
			<point x="1093" y="799"/>
			<point x="1093" y="1038" type="curve" smooth="yes"/>
			<point x="1093" y="1265"/>
			<point x="886" y="1434"/>
		</contour>
		<contour>
			<point x="544" y="294" type="curve" smooth="yes"/>
			<point x="449" y="294"/>
			<point x="387" y="240"/>
			<point x="387" y="140" type="curve" smooth="yes"/>
			<point x="387" y="40"/>
			<point x="449" y="-14"/>
			<point x="544" y="-14" type="curve" smooth="yes"/>
			<point x="639" y="-14"/>
			<point x="701" y="40"/>
			<point x="701" y="140" type="curve" smooth="yes"/>
			<point x="701" y="240"/>
			<point x="639" y="294"/>
		</contour>
	</outline>
</glyph>
<glyph name="at" format="2">
	<unicode hex="0040"/>
	<advance width="1914"/>
	<outline>
		<contour>
			<point x="1362" y="197" type="curve" smooth="yes"/>
			<point x="1633" y="197"/>
			<point x="1836" y="416"/>
			<point x="1836" y="796" type="curve" smooth="yes"/>
			<point x="1836" y="1225"/>
			<point x="1549" y="1434"/>
			<point x="1087" y="1434" type="curve" smooth="yes"/>
			<point x="479" y="1434"/>
			<point x="107" y="1055"/>
			<point x="107" y="503" type="curve" smooth="yes"/>
			<point x="107" y="-26"/>
			<point x="417" y="-242"/>
			<point x="950" y="-242" type="curve" smooth="yes"/>
			<point x="1216" y="-242"/>
			<point x="1425" y="-177"/>
			<point x="1619" y="-56" type="curve"/>
			<point x="1562" y="46" type="line"/>
			<point x="1376" y="-62"/>
			<point x="1181" y="-120"/>
			<point x="977" y="-120" type="curve" smooth="yes"/>
			<point x="496" y="-120"/>
			<point x="252" y="75"/>
			<point x="252" y="512" type="curve" smooth="yes"/>
			<point x="252" y="994"/>
			<point x="560" y="1317"/>
			<point x="1078" y="1317" type="curve" smooth="yes"/>
			<point x="1469" y="1317"/>
			<point x="1699" y="1155"/>
			<point x="1699" y="761" type="curve" smooth="yes"/>
			<point x="1699" y="487"/>
			<point x="1555" y="313"/>
			<point x="1397" y="313" type="curve" smooth="yes"/>
			<point x="1326" y="313"/>
			<point x="1292" y="339"/>
			<point x="1292" y="408" type="curve" smooth="yes"/>
			<point x="1292" y="437"/>
			<point x="1297" y="470"/>
			<point x="1310" y="511" type="curve" smooth="yes"/>
			<point x="1462" y="1004" type="line"/>
			<point x="1294" y="1004" type="line"/>
			<point x="1218" y="860" type="line"/>
			<point x="1176" y="738" type="line" smooth="yes"/>
			<point x="1100" y="523"/>
			<point x="957" y="347"/>
			<point x="844" y="347" type="curve" smooth="yes"/>
			<point x="772" y="347"/>
			<point x="741" y="380"/>
			<point x="741" y="452" type="curve" smooth="yes"/>
			<point x="741" y="628"/>
			<point x="911" y="903"/>
			<point x="1080" y="903" type="curve" smooth="yes"/>
			<point x="1152" y="903"/>
			<point x="1198" y="870"/>
			<point x="1236" y="796" type="curve"/>
			<point x="1252" y="828" type="line"/>
			<point x="1207" y="953"/>
			<point x="1136" y="1023"/>
			<point x="1022" y="1023" type="curve" smooth="yes"/>
			<point x="751" y="1023"/>
			<point x="520" y="689"/>
			<point x="520" y="430" type="curve" smooth="yes"/>
			<point x="520" y="294"/>
			<point x="596" y="204"/>
			<point x="749" y="204" type="curve" smooth="yes"/>
			<point x="888" y="204"/>
			<point x="990" y="285"/>
			<point x="1146" y="548" type="curve"/>
			<point x="1163" y="548" type="line"/>
			<point x="1144" y="496" type="line" smooth="yes"/>
			<point x="1129" y="454"/>
			<point x="1121" y="414"/>
			<point x="1121" y="380" type="curve" smooth="yes"/>
			<point x="1121" y="263.8904035587"/>
			<point x="1205.3008405112" y="197"/>
		</contour>
	</outline>
</glyph>
<glyph name="A" format="2">
	<unicode hex="0041"/>
	<advance width="1649"/>
	<outline>
		<contour>
			<point x="442" y="469" type="line"/>
			<point x="1160" y="469" type="line"/>
			<point x="1160" y="625" type="line"/>
			<point x="442" y="625" type="line"/>
		</contour>
		<contour>
			<point x="1456" y="151" type="line"/>
			<point x="938" y="1434" type="line"/>
			<point x="675" y="1434" type="line"/>
			<point x="192" y="151" type="line"/>
			<point x="24" y="106" type="line"/>
			<point x="24" y="0" type="line"/>
			<point x="559" y="0" type="line"/>
			<point x="559" y="106" type="line"/>
			<point x="373" y="151" type="line"/>
			<point x="793" y="1336" type="line"/>
			<point x="744" y="1336" type="line"/>
			<point x="1212" y="151" type="line"/>
			<point x="1026" y="106" type="line"/>
			<point x="1026" y="0" type="line"/>
			<point x="1642" y="0" type="line"/>
			<point x="1642" y="106" type="line"/>
		</contour>
	</outline>
	<anchor name="UCtop" x="813" y="1414"/>
	<anchor name="bottom" x="791" y="0"/>
	<anchor name="right" x="1482" y="0"/>
</glyph>
<glyph name="B" format="2">
	<unicode hex="0042"/>
	<advance width="1471"/>
	<outline>
		<contour>
			<point x="431" y="1258" type="line"/>
			<point x="821" y="1258" type="line" smooth="yes"/>
			<point x="1010" y="1258"/>
			<point x="1078" y="1189"/>
			<point x="1078" y="1052" type="curve" smooth="yes"/>
			<point x="1078" y="892"/>
			<point x="994" y="830"/>
			<point x="842" y="830" type="curve" smooth="yes"/>
			<point x="433" y="830" type="line"/>
			<point x="426" y="674" type="line"/>
			<point x="839" y="674" type="line" smooth="yes"/>
			<point x="1053" y="674"/>
			<point x="1132" y="580"/>
			<point x="1132" y="424" type="curve" smooth="yes"/>
			<point x="1132" y="218"/>
			<point x="1038" y="156"/>
			<point x="832" y="156" type="curve" smooth="yes"/>
			<point x="431" y="156" type="line"/>
			<point x="431" y="0" type="line"/>
			<point x="835" y="0" type="line" smooth="yes"/>
			<point x="1212" y="0"/>
			<point x="1353" y="160"/>
			<point x="1353" y="426" type="curve" smooth="yes"/>
			<point x="1353" y="628"/>
			<point x="1220" y="760"/>
			<point x="976" y="774" type="curve"/>
			<point x="976" y="755" type="line"/>
			<point x="1181" y="773"/>
			<point x="1289" y="891"/>
			<point x="1289" y="1081" type="curve" smooth="yes"/>
			<point x="1289" y="1282"/>
			<point x="1175" y="1414"/>
			<point x="851" y="1414" type="curve" smooth="yes"/>
			<point x="431" y="1414" type="line"/>
		</contour>
		<contour>
			<point x="118" y="0" type="line"/>
			<point x="522" y="0" type="line"/>
			<point x="522" y="1414" type="line"/>
			<point x="118" y="1414" type="line"/>
			<point x="118" y="1308" type="line"/>
			<point x="304" y="1263" type="line"/>
			<point x="304" y="151" type="line"/>
			<point x="118" y="106" type="line"/>
		</contour>
	</outline>
	<anchor name="UCtop" x="756" y="1414"/>
	<anchor name="bottom" x="786" y="0"/>
</glyph>
<glyph name="C" format="2">
	<unicode hex="0043"/>
	<advance width="1553"/>
	<outline>
		<contour>
			<point x="931" y="141" type="curve" smooth="yes"/>
			<point x="568" y="141"/>
			<point x="334" y="342"/>
			<point x="348" y="743" type="curve" smooth="yes"/>
			<point x="360" y="1091"/>
			<point x="521" y="1269"/>
			<point x="911" y="1269" type="curve" smooth="yes"/>
			<point x="1035" y="1269"/>
			<point x="1120" y="1252"/>
			<point x="1238" y="1194" type="curve"/>
			<point x="1184" y="1276" type="line"/>
			<point x="1262" y="960" type="line"/>
			<point x="1416" y="960" type="line"/>
			<point x="1416" y="1484" type="line"/>
			<point x="1299" y="1484" type="line"/>
			<point x="1215" y="1371" type="line"/>
			<point x="1282" y="1374" type="line"/>
			<point x="1172.1645440578" y="1408.9476450725"/>
			<point x="1064" y="1434"/>
			<point x="920" y="1434" type="curve" smooth="yes"/>
			<point x="416" y="1434"/>
			<point x="126.9918380434" y="1173.3552054271"/>
			<point x="121" y="700" type="curve" smooth="yes"/>
			<point x="115" y="223"/>
			<point x="401" y="-20"/>
			<point x="923" y="-20" type="curve" smooth="yes"/>
			<point x="1112" y="-20"/>
			<point x="1292" y="16"/>
			<point x="1395" y="65" type="curve"/>
			<point x="1435" y="444" type="line"/>
			<point x="1300" y="444" type="line"/>
			<point x="1163" y="91" type="line"/>
			<point x="1304" y="210" type="line"/>
			<point x="1192" y="166"/>
			<point x="1054" y="141"/>
		</contour>
	</outline>
	<anchor name="UCtop" x="848" y="1414"/>
	<anchor name="bottom" x="848" y="0"/>
	<anchor name="right" x="1365" y="0"/>
</glyph>
<glyph name="D" format="2">
	<unicode hex="0044"/>
	<advance width="1681"/>
	<outline>
		<contour>
			<point x="1333" y="724" type="curve" smooth="yes"/>
			<point x="1333" y="322"/>
			<point x="1147" y="156"/>
			<point x="795" y="156" type="curve" smooth="yes"/>
			<point x="399" y="156" type="line"/>
			<point x="399" y="0" type="line"/>
			<point x="801" y="0" type="line" smooth="yes"/>
			<point x="1260" y="0"/>
			<point x="1559" y="257"/>
			<point x="1559" y="736" type="curve" smooth="yes"/>
			<point x="1559" y="1177"/>
			<point x="1305" y="1414"/>
			<point x="810" y="1414" type="curve" smooth="yes"/>
			<point x="399" y="1414" type="line"/>
			<point x="399" y="1258" type="line"/>
			<point x="742" y="1258" type="line" smooth="yes"/>
			<point x="1151" y="1258"/>
			<point x="1333" y="1086"/>
		</contour>
		<contour>
			<point x="110" y="0" type="line"/>
			<point x="524" y="0" type="line"/>
			<point x="524" y="1414" type="line"/>
			<point x="110" y="1414" type="line"/>
			<point x="110" y="1308" type="line"/>
			<point x="306" y="1263" type="line"/>
			<point x="306" y="151" type="line"/>
			<point x="110" y="106" type="line"/>
		</contour>
	</outline>
	<anchor name="UCtop" x="854" y="1414"/>
	<anchor name="bottom" x="854" y="0"/>
</glyph>
<glyph name="E" format="2">
	<unicode hex="0045"/>
	<advance width="1489"/>
	<outline>
		<contour>
			<point x="1042" y="990" type="line"/>
			<point x="911" y="990" type="line"/>
			<point x="894" y="815" type="line"/>
			<point x="399" y="815" type="line"/>
			<point x="399" y="659" type="line"/>
			<point x="894" y="659" type="line"/>
			<point x="911" y="480" type="line"/>
			<point x="1042" y="480" type="line"/>
			<point x="1042" y="735" type="line"/>
		</contour>
		<contour>
			<point x="1346" y="1042" type="line"/>
			<point x="1346" y="1484" type="line"/>
			<point x="1235" y="1484" type="line"/>
			<point x="1158" y="1414" type="line"/>
			<point x="399" y="1414" type="line"/>
			<point x="399" y="1258" type="line"/>
			<point x="1204" y="1258" type="line"/>
			<point x="1125" y="1342" type="line"/>
			<point x="1206" y="1042" type="line"/>
		</contour>
		<contour>
			<point x="1114" y="72" type="line"/>
			<point x="1182" y="156" type="line"/>
			<point x="399" y="156" type="line"/>
			<point x="399" y="0" type="line"/>
			<point x="1154" y="0" type="line"/>
			<point x="1196" y="-72" type="line"/>
			<point x="1323" y="-72" type="line"/>
			<point x="1399" y="432" type="line"/>
			<point x="1265" y="432" type="line"/>
		</contour>
		<contour>
			<point x="110" y="0" type="line"/>
			<point x="524" y="0" type="line"/>
			<point x="524" y="1414" type="line"/>
			<point x="110" y="1414" type="line"/>
			<point x="110" y="1308" type="line"/>
			<point x="306" y="1263" type="line"/>
			<point x="306" y="151" type="line"/>
			<point x="110" y="106" type="line"/>
		</contour>
	</outline>
	<anchor name="UCtop" x="754" y="1414"/>
	<anchor name="right" x="1219" y="0"/>
	<anchor name="bottom" x="734" y="0"/>
</glyph>
<glyph name="F" format="2">
	<unicode hex="0046"/>
	<advance width="1395"/>
	<outline>
		<contour>
			<point x="1032" y="924" type="line"/>
			<point x="901" y="924" type="line"/>
			<point x="884" y="739" type="line"/>
			<point x="399" y="739" type="line"/>
			<point x="399" y="583" type="line"/>
			<point x="884" y="583" type="line"/>
			<point x="901" y="394" type="line"/>
			<point x="1032" y="394" type="line"/>
			<point x="1032" y="659" type="line"/>
		</contour>
		<contour>
			<point x="1205" y="1484" type="line"/>
			<point x="1128" y="1414" type="line"/>
			<point x="399" y="1414" type="line"/>
			<point x="399" y="1258" type="line"/>
			<point x="1174" y="1258" type="line"/>
			<point x="1095" y="1342" type="line"/>
			<point x="1176" y="1016" type="line"/>
			<point x="1316" y="1016" type="line"/>
			<point x="1316" y="1484" type="line"/>
		</contour>
		<contour>
			<point x="524" y="1414" type="line"/>
			<point x="110" y="1414" type="line"/>
			<point x="110" y="1308" type="line"/>
			<point x="306" y="1263" type="line"/>
			<point x="306" y="151" type="line"/>
			<point x="110" y="106" type="line"/>
			<point x="110" y="0" type="line"/>
			<point x="720" y="0" type="line"/>
			<point x="720" y="106" type="line"/>
			<point x="524" y="151" type="line"/>
		</contour>
	</outline>
	<anchor name="UCtop" x="723" y="1414"/>
	<anchor name="bottom" x="415" y="0"/>
</glyph>
<glyph name="G" format="2">
	<unicode hex="0047"/>
	<advance width="1694"/>
	<outline>
		<contour>
			<point x="1437" y="215" type="line"/>
			<point x="1437" y="526" type="line"/>
			<point x="1593" y="571" type="line"/>
			<point x="1593" y="677" type="line"/>
			<point x="983" y="677" type="line"/>
			<point x="983" y="571" type="line"/>
			<point x="1219" y="526" type="line"/>
			<point x="1219" y="44" type="line"/>
			<point x="1303" y="233" type="line"/>
			<point x="1203" y="164"/>
			<point x="1054" y="141"/>
			<point x="931" y="141" type="curve" smooth="yes"/>
			<point x="568" y="141"/>
			<point x="334" y="342"/>
			<point x="348" y="743" type="curve" smooth="yes"/>
			<point x="360" y="1091"/>
			<point x="524" y="1269"/>
			<point x="921" y="1269" type="curve" smooth="yes"/>
			<point x="1045" y="1269"/>
			<point x="1130" y="1252"/>
			<point x="1248" y="1194" type="curve"/>
			<point x="1194" y="1276" type="line"/>
			<point x="1272" y="980" type="line"/>
			<point x="1426" y="980" type="line"/>
			<point x="1426" y="1484" type="line"/>
			<point x="1309" y="1484" type="line"/>
			<point x="1225" y="1371" type="line"/>
			<point x="1292" y="1374" type="line"/>
			<point x="1182" y="1409"/>
			<point x="1074" y="1435"/>
			<point x="930" y="1435" type="curve" smooth="yes"/>
			<point x="420" y="1435"/>
			<point x="127" y="1174"/>
			<point x="121" y="700" type="curve" smooth="yes"/>
			<point x="115" y="223"/>
			<point x="401" y="-20"/>
			<point x="923" y="-20" type="curve" smooth="yes"/>
			<point x="1140" y="-20"/>
			<point x="1413" y="32"/>
			<point x="1577" y="118" type="curve"/>
			<point x="1577" y="215" type="line"/>
		</contour>
	</outline>
	<anchor name="UCtop" x="857" y="1414"/>
	<anchor name="bottom" x="924" y="0"/>
</glyph>
<glyph name="H" format="2">
  <advance width="1803.0"/>
  <unicode hex="0048"/>
  <guideline x="1795.0" y="96" angle="180.0" identifier="A0iETWsSps"/>
  <anchor x="902.0" y="1414.0" name="UCtop"/>
  <anchor x="902.0" y="0" name="bottom"/>
  <outline>
    <contour>
      <point x="524.0" y="151.0" type="line"/>
      <point x="524.0" y="1263.0" type="line"/>
      <point x="720.0" y="1308.0" type="line"/>
      <point x="720.0" y="1414.0" type="line"/>
      <point x="110.0" y="1414.0" type="line"/>
      <point x="110.0" y="1308.0" type="line"/>
      <point x="306.0" y="1263.0" type="line"/>
      <point x="306.0" y="151.0" type="line"/>
      <point x="110.0" y="106.0" type="line"/>
      <point x="110.0" y="0.0" type="line"/>
      <point x="720.0" y="0.0" type="line"/>
      <point x="720.0" y="106.0" type="line"/>
    </contour>
    <contour>
      <point x="1497.0" y="151.0" type="line"/>
      <point x="1497.0" y="1263.0" type="line"/>
      <point x="1693.0" y="1308.0" type="line"/>
      <point x="1693.0" y="1414.0" type="line"/>
      <point x="1083.0" y="1414.0" type="line"/>
      <point x="1083.0" y="1308.0" type="line"/>
      <point x="1279.0" y="1263.0" type="line"/>
      <point x="1279.0" y="151.0" type="line"/>
      <point x="1083.0" y="106.0" type="line"/>
      <point x="1083.0" y="0.0" type="line"/>
      <point x="1693.0" y="0.0" type="line"/>
      <point x="1693.0" y="106.0" type="line"/>
    </contour>
    <contour>
      <point x="399.0" y="642.0" type="line"/>
      <point x="1405.0" y="642.0" type="line"/>
      <point x="1405.0" y="798.0" type="line"/>
      <point x="399.0" y="798.0" type="line"/>
    </contour>
  </outline>
</glyph>
<glyph name="I" format="2">
  <advance width="830.0"/>
  <unicode hex="0049"/>
  <anchor x="415.0" y="1414.0" name="UCtop"/>
  <anchor x="555.0" y="0" name="right"/>
  <anchor x="415.0" y="0" name="bottom"/>
  <outline>
    <contour>
      <point x="720.0" y="106.0" type="line"/>
      <point x="524.0" y="151.0" type="line"/>
      <point x="524.0" y="1263.0" type="line"/>
      <point x="720.0" y="1308.0" type="line"/>
      <point x="720.0" y="1414.0" type="line"/>
      <point x="110.0" y="1414.0" type="line"/>
      <point x="110.0" y="1308.0" type="line"/>
      <point x="306.0" y="1263.0" type="line"/>
      <point x="306.0" y="151.0" type="line"/>
      <point x="110.0" y="106.0" type="line"/>
      <point x="110.0" y="0.0" type="line"/>
      <point x="720.0" y="0.0" type="line"/>
    </contour>
  </outline>
</glyph>
<glyph name="J" format="2">
	<unicode hex="004A"/>
	<advance width="1128"/>
	<outline>
		<contour>
			<point x="847" y="387" type="curve" smooth="yes"/>
			<point x="847" y="1263" type="line"/>
			<point x="1043" y="1308" type="line"/>
			<point x="1043" y="1414" type="line"/>
			<point x="433" y="1414" type="line"/>
			<point x="433" y="1308" type="line"/>
			<point x="629" y="1263" type="line"/>
			<point x="629" y="370" type="line" smooth="yes"/>
			<point x="629" y="205"/>
			<point x="550" y="146"/>
			<point x="395" y="146" type="curve" smooth="yes"/>
			<point x="232" y="146"/>
			<point x="189" y="273"/>
			<point x="145" y="273" type="curve" smooth="yes"/>
			<point x="77" y="273"/>
			<point x="36" y="225"/>
			<point x="36" y="154" type="curve" smooth="yes"/>
			<point x="36" y="59"/>
			<point x="109" y="-16"/>
			<point x="365" y="-16" type="curve" smooth="yes"/>
			<point x="712" y="-16"/>
			<point x="847" y="135"/>
		</contour>
	</outline>
	<anchor name="UCtop" x="738" y="1414"/>
	<anchor name="bottom" x="470" y="0"/>
</glyph>
<glyph name="K" format="2">
	<unicode hex="004B"/>
	<advance width="1677"/>
	<outline>
		<contour>
			<point x="1488" y="137" type="line"/>
			<point x="845" y="813" type="line"/>
			<point x="823" y="711" type="line"/>
			<point x="1389" y="1263" type="line"/>
			<point x="1557" y="1308" type="line"/>
			<point x="1557" y="1414" type="line"/>
			<point x="1029" y="1414" type="line"/>
			<point x="1029" y="1308" type="line"/>
			<point x="1189" y="1269" type="line"/>
			<point x="724" y="809" type="line"/>
			<point x="458" y="809" type="line"/>
			<point x="458" y="653" type="line"/>
			<point x="708" y="653" type="line"/>
			<point x="1220" y="106" type="line"/>
			<point x="1220" y="66" type="line"/>
			<point x="1220" y="0" type="line"/>
			<point x="1644" y="0" type="line"/>
			<point x="1644" y="106" type="line"/>
		</contour>
		<contour>
			<point x="524" y="1263" type="line"/>
			<point x="720" y="1308" type="line"/>
			<point x="720" y="1414" type="line"/>
			<point x="110" y="1414" type="line"/>
			<point x="110" y="1308" type="line"/>
			<point x="306" y="1263" type="line"/>
			<point x="306" y="151" type="line"/>
			<point x="110" y="106" type="line"/>
			<point x="110" y="0" type="line"/>
			<point x="720" y="0" type="line"/>
			<point x="720" y="106" type="line"/>
			<point x="524" y="151" type="line"/>
		</contour>
	</outline>
	<anchor name="UCtop" x="847" y="1414"/>
	<anchor name="bottom" x="917" y="0"/>
</glyph>
<glyph name="L" format="2">
	<unicode hex="004C"/>
	<advance width="1388"/>
	<outline>
		<contour>
			<point x="1247" y="-72" type="line"/>
			<point x="1328" y="492" type="line"/>
			<point x="1194" y="492" type="line"/>
			<point x="1031" y="72" type="line"/>
			<point x="1106" y="156" type="line"/>
			<point x="399" y="156" type="line"/>
			<point x="399" y="0" type="line"/>
			<point x="1078" y="0" type="line"/>
			<point x="1120" y="-72" type="line"/>
		</contour>
		<contour>
			<point x="524" y="1263" type="line"/>
			<point x="720" y="1308" type="line"/>
			<point x="720" y="1414" type="line"/>
			<point x="110" y="1414" type="line"/>
			<point x="110" y="1308" type="line"/>
			<point x="306" y="1263" type="line"/>
			<point x="306" y="151" type="line"/>
			<point x="110" y="106" type="line"/>
			<point x="110" y="0" type="line"/>
			<point x="524" y="0" type="line"/>
		</contour>
	</outline>
	<anchor name="UCtop" x="415" y="1414"/>
	<anchor name="right" x="798" y="1414"/>
	<anchor name="bottom" x="689" y="0"/>
	<anchor name="mid" x="1102" y="772"/>
</glyph>
<glyph name="M" format="2">
	<unicode hex="004D"/>
	<advance width="2196"/>
	<outline>
		<contour>
			<point x="1921" y="151" type="line"/>
			<point x="1845" y="1253" type="line"/>
			<point x="2039" y="1308" type="line"/>
			<point x="2039" y="1414" type="line"/>
			<point x="1529" y="1414" type="line"/>
			<point x="1091" y="148" type="line"/>
			<point x="1110" y="148" type="line"/>
			<point x="674" y="1414" type="line"/>
			<point x="146" y="1414" type="line"/>
			<point x="146" y="1308" type="line"/>
			<point x="348" y="1248" type="line"/>
			<point x="266" y="151" type="line"/>
			<point x="98" y="106" type="line"/>
			<point x="98" y="0" type="line"/>
			<point x="616" y="0" type="line"/>
			<point x="616" y="106" type="line"/>
			<point x="430" y="151" type="line"/>
			<point x="509" y="1259" type="line"/>
			<point x="497" y="1257" type="line"/>
			<point x="939" y="0" type="line"/>
			<point x="1184" y="0" type="line"/>
			<point x="1638" y="1266" type="line"/>
			<point x="1626" y="1268" type="line"/>
			<point x="1704" y="151" type="line"/>
			<point x="1518" y="106" type="line"/>
			<point x="1518" y="0" type="line"/>
			<point x="2107" y="0" type="line"/>
			<point x="2107" y="106" type="line"/>
		</contour>
	</outline>
	<anchor name="UCtop" x="1112" y="1414"/>
	<anchor name="bottom" x="1082" y="0"/>
</glyph>
<glyph name="N" format="2">
	<unicode hex="004E"/>
	<advance width="1745"/>
	<outline>
		<contour>
			<point x="304" y="151" type="line"/>
			<point x="116" y="106" type="line"/>
			<point x="116" y="0" type="line"/>
			<point x="680" y="0" type="line"/>
			<point x="680" y="106" type="line"/>
			<point x="474" y="151" type="line"/>
			<point x="474" y="1298" type="line"/>
			<point x="434" y="1298" type="line"/>
			<point x="1176" y="0" type="line"/>
			<point x="1464" y="0" type="line"/>
			<point x="1464" y="1263" type="line"/>
			<point x="1652" y="1308" type="line"/>
			<point x="1652" y="1414" type="line"/>
			<point x="1088" y="1414" type="line"/>
			<point x="1088" y="1308" type="line"/>
			<point x="1294" y="1263" type="line"/>
			<point x="1294" y="58" type="line"/>
			<point x="1364" y="90" type="line"/>
			<point x="608" y="1414" type="line"/>
			<point x="116" y="1414" type="line"/>
			<point x="116" y="1308" type="line"/>
			<point x="304" y="1263" type="line"/>
		</contour>
	</outline>
	<anchor name="UCtop" x="904" y="1414"/>
	<anchor name="bottom" x="904" y="0"/>
</glyph>
<glyph name="O" format="2">
	<unicode hex="004F"/>
	<advance width="1694"/>
	<outline>
		<contour>
			<point x="845" y="1434" type="curve" smooth="yes"/>
			<point x="398" y="1434"/>
			<point x="119" y="1134"/>
			<point x="119" y="705" type="curve" smooth="yes"/>
			<point x="119" y="279"/>
			<point x="400" y="-20"/>
			<point x="849" y="-20" type="curve" smooth="yes"/>
			<point x="1296" y="-20"/>
			<point x="1575" y="280"/>
			<point x="1575" y="709" type="curve" smooth="yes"/>
			<point x="1575" y="1135"/>
			<point x="1294" y="1434"/>
		</contour>
		<contour>
			<point x="856" y="147" type="curve" smooth="yes"/>
			<point x="518" y="147"/>
			<point x="345" y="368"/>
			<point x="345" y="739" type="curve" smooth="yes"/>
			<point x="345" y="1068"/>
			<point x="512" y="1267"/>
			<point x="838" y="1267" type="curve" smooth="yes"/>
			<point x="1176" y="1267"/>
			<point x="1349" y="1046"/>
			<point x="1349" y="675" type="curve" smooth="yes"/>
			<point x="1349" y="346"/>
			<point x="1182" y="147"/>
		</contour>
	</outline>
	<anchor name="UCtop" x="847" y="1414"/>
	<anchor name="bottom" x="847" y="0"/>
	<anchor name="right" x="1027" y="0"/>
	<anchor name="horn" x="1165" y="1414"/>
</glyph>
<glyph name="P" format="2">
  <advance width="1410.0"/>
  <unicode hex="0050"/>
  <anchor x="758.0" y="1414.0" name="UCtop"/>
  <anchor x="415.0" y="0" name="bottom"/>
  <outline>
    <contour>
      <point x="1103.0" y="991.0" type="curve" smooth="yes"/>
      <point x="1103.0" y="798.0"/>
      <point x="996.0" y="719.0"/>
      <point x="811.0" y="719.0" type="curve" smooth="yes"/>
      <point x="360.0" y="719.0" type="line"/>
      <point x="360.0" y="563.0" type="line"/>
      <point x="822.0" y="563.0" type="line" smooth="yes"/>
      <point x="1187.0" y="563.0"/>
      <point x="1327.0" y="742.0"/>
      <point x="1327.0" y="995.0" type="curve" smooth="yes"/>
      <point x="1327.0" y="1250.0"/>
      <point x="1189.0" y="1414.0"/>
      <point x="788.0" y="1414.0" type="curve" smooth="yes"/>
      <point x="360.0" y="1414.0" type="line"/>
      <point x="360.0" y="1258.0" type="line"/>
      <point x="723.0" y="1258.0" type="line" smooth="yes"/>
      <point x="1022.0" y="1258.0"/>
      <point x="1103.0" y="1171.0"/>
    </contour>
    <contour>
      <point x="524.0" y="1414.0" type="line"/>
      <point x="110.0" y="1414.0" type="line"/>
      <point x="110.0" y="1308.0" type="line"/>
      <point x="306.0" y="1263.0" type="line"/>
      <point x="306.0" y="151.0" type="line"/>
      <point x="110.0" y="106.0" type="line"/>
      <point x="110.0" y="0.0" type="line"/>
      <point x="720.0" y="0.0" type="line"/>
      <point x="720.0" y="106.0" type="line"/>
      <point x="524.0" y="151.0" type="line"/>
    </contour>
  </outline>
</glyph>
<glyph name="Q" format="2">
  <advance width="1694"/>
  <unicode hex="0051"/>
  <anchor x="847.0" y="1414.0" name="UCtop"/>
  <anchor x="847.0" y="-445" name="bottom"/>
  <outline>
    <contour>
      <point x="787.0" y="-271.0" type="line" smooth="yes"/>
      <point x="932.0" y="-409.0"/>
      <point x="1039.0" y="-465.0"/>
      <point x="1214.0" y="-465.0" type="curve" smooth="yes"/>
      <point x="1313.0" y="-465.0"/>
      <point x="1362.0" y="-458.0"/>
      <point x="1431.0" y="-445.0" type="curve"/>
      <point x="1431.0" y="-321.0" type="line"/>
      <point x="1247.0" y="-336.0"/>
      <point x="1192.0" y="-317.0"/>
      <point x="1010.0" y="-173.0" type="curve" smooth="yes"/>
      <point x="634.0" y="125.0" type="line"/>
      <point x="554.0" y="94.0" type="line"/>
      <point x="1096.0" y="-133.0"/>
      <point x="1575.0" y="187.0"/>
      <point x="1575.0" y="709.0" type="curve" smooth="yes"/>
      <point x="1575.0" y="1135.0"/>
      <point x="1294.0" y="1434.0"/>
      <point x="845.0" y="1434.0" type="curve" smooth="yes"/>
      <point x="398.0" y="1434.0"/>
      <point x="119.0" y="1134.0"/>
      <point x="119.0" y="705.0" type="curve" smooth="yes"/>
      <point x="119.0" y="467.0"/>
      <point x="207.0" y="281.0"/>
      <point x="362.0" y="133.0" type="curve" smooth="yes"/>
    </contour>
    <contour>
      <point x="856.0" y="147.0" type="curve" smooth="yes"/>
      <point x="518.0" y="147.0"/>
      <point x="345.0" y="368.0"/>
      <point x="345.0" y="739.0" type="curve" smooth="yes"/>
      <point x="345.0" y="1068.0"/>
      <point x="512.0" y="1267.0"/>
      <point x="838.0" y="1267.0" type="curve" smooth="yes"/>
      <point x="1176.0" y="1267.0"/>
      <point x="1349.0" y="1046.0"/>
      <point x="1349.0" y="675.0" type="curve" smooth="yes"/>
      <point x="1349.0" y="346.0"/>
      <point x="1182.0" y="147.0"/>
    </contour>
  </outline>
</glyph>
<glyph name="R" format="2">
	<unicode hex="0052"/>
	<advance width="1541"/>
	<outline>
		<contour>
			<point x="828" y="785" type="curve" smooth="yes"/>
			<point x="423" y="785" type="line"/>
			<point x="423" y="629" type="line"/>
			<point x="809" y="629" type="line" smooth="yes"/>
			<point x="976" y="629"/>
			<point x="1014" y="583"/>
			<point x="1045" y="424" type="curve" smooth="yes"/>
			<point x="1087" y="210" type="line" smooth="yes"/>
			<point x="1125" y="18"/>
			<point x="1169" y="-8"/>
			<point x="1470" y="0" type="curve"/>
			<point x="1470" y="116" type="line"/>
			<point x="1356" y="116"/>
			<point x="1331" y="134"/>
			<point x="1305" y="259" type="curve" smooth="yes"/>
			<point x="1254" y="504" type="line" smooth="yes"/>
			<point x="1227" y="634"/>
			<point x="1168" y="701"/>
			<point x="1012" y="714" type="curve"/>
			<point x="1012" y="704" type="line"/>
			<point x="1229" y="743"/>
			<point x="1325" y="868"/>
			<point x="1325" y="1059" type="curve" smooth="yes"/>
			<point x="1325" y="1275"/>
			<point x="1200" y="1414"/>
			<point x="836" y="1414" type="curve" smooth="yes"/>
			<point x="423" y="1414" type="line"/>
			<point x="423" y="1258" type="line"/>
			<point x="746" y="1258" type="line" smooth="yes"/>
			<point x="1028" y="1258"/>
			<point x="1104" y="1182"/>
			<point x="1104" y="1023" type="curve" smooth="yes"/>
			<point x="1104" y="854"/>
			<point x="1003" y="785"/>
		</contour>
		<contour>
			<point x="524" y="1414" type="line"/>
			<point x="110" y="1414" type="line"/>
			<point x="110" y="1308" type="line"/>
			<point x="306" y="1263" type="line"/>
			<point x="306" y="151" type="line"/>
			<point x="110" y="106" type="line"/>
			<point x="110" y="0" type="line"/>
			<point x="720" y="0" type="line"/>
			<point x="720" y="106" type="line"/>
			<point x="524" y="151" type="line"/>
		</contour>
	</outline>
	<anchor name="UCtop" x="760" y="1414"/>
	<anchor name="bottom" x="840" y="0"/>
</glyph>
<glyph name="S" format="2">
	<unicode hex="0053"/>
	<advance width="1317"/>
	<outline>
		<contour>
			<point x="1074" y="1348" type="line"/>
			<point x="948" y="1409"/>
			<point x="834" y="1434"/>
			<point x="691" y="1434" type="curve" smooth="yes"/>
			<point x="344" y="1434"/>
			<point x="151" y="1306"/>
			<point x="151" y="1050" type="curve" smooth="yes"/>
			<point x="151" y="759"/>
			<point x="362" y="693"/>
			<point x="566" y="648" type="curve" smooth="yes"/>
			<point x="770" y="603"/>
			<point x="972" y="576"/>
			<point x="972" y="378" type="curve" smooth="yes"/>
			<point x="972" y="197"/>
			<point x="849" y="133"/>
			<point x="587" y="133" type="curve" smooth="yes"/>
			<point x="440" y="133"/>
			<point x="351" y="154"/>
			<point x="233" y="210" type="curve"/>
			<point x="444" y="43" type="line"/>
			<point x="278" y="444" type="line"/>
			<point x="122" y="444" type="line"/>
			<point x="182" y="32" type="line"/>
			<point x="310" y="-11"/>
			<point x="428" y="-20"/>
			<point x="588" y="-20" type="curve" smooth="yes"/>
			<point x="961" y="-20"/>
			<point x="1186" y="100"/>
			<point x="1186" y="405" type="curve" smooth="yes"/>
			<point x="1186" y="739"/>
			<point x="935" y="790"/>
			<point x="732" y="829" type="curve" smooth="yes"/>
			<point x="529" y="868"/>
			<point x="362" y="898"/>
			<point x="362" y="1076" type="curve" smooth="yes"/>
			<point x="362" y="1230"/>
			<point x="485" y="1285"/>
			<point x="681" y="1285" type="curve" smooth="yes"/>
			<point x="787" y="1285"/>
			<point x="873" y="1265"/>
			<point x="961" y="1208" type="curve"/>
			<point x="897" y="1276" type="line"/>
			<point x="977" y="983" type="line"/>
			<point x="1135" y="983" type="line"/>
			<point x="1135" y="1484" type="line"/>
			<point x="1015" y="1484" type="line"/>
			<point x="928" y="1371" type="line"/>
		</contour>
	</outline>
	<anchor name="UCtop" x="644" y="1414"/>
	<anchor name="bottom" x="664" y="0"/>
</glyph>
<glyph name="T" format="2">
	<unicode hex="0054"/>
	<advance width="1550"/>
	<outline>
		<contour>
			<point x="666" y="1350" type="line"/>
			<point x="666" y="151" type="line"/>
			<point x="450" y="106" type="line"/>
			<point x="450" y="0" type="line"/>
			<point x="1100" y="0" type="line"/>
			<point x="1100" y="106" type="line"/>
			<point x="884" y="151" type="line"/>
			<point x="884" y="1350" type="line"/>
		</contour>
		<contour>
			<point x="1271" y="1258" type="line"/>
			<point x="1215" y="1296" type="line"/>
			<point x="1339" y="950" type="line"/>
			<point x="1488" y="950" type="line"/>
			<point x="1412" y="1504" type="line"/>
			<point x="1300" y="1504" type="line"/>
			<point x="1220" y="1391" type="line"/>
			<point x="1346" y="1414" type="line"/>
			<point x="204" y="1414" type="line"/>
			<point x="330" y="1391" type="line"/>
			<point x="250" y="1504" type="line"/>
			<point x="138" y="1504" type="line"/>
			<point x="62" y="950" type="line"/>
			<point x="211" y="950" type="line"/>
			<point x="335" y="1296" type="line"/>
			<point x="279" y="1258" type="line"/>
		</contour>
	</outline>
	<anchor name="UCtop" x="775" y="1414"/>
	<anchor name="bottom" x="775" y="0"/>
</glyph>
<glyph name="U" format="2">
	<unicode hex="0055"/>
	<advance width="1719"/>
	<outline>
		<contour>
			<point x="1281" y="502" type="line" smooth="yes"/>
			<point x="1281" y="253"/>
			<point x="1148" y="155"/>
			<point x="892" y="155" type="curve" smooth="yes"/>
			<point x="620" y="155"/>
			<point x="485" y="265"/>
			<point x="485" y="522" type="curve" smooth="yes"/>
			<point x="485" y="1263" type="line"/>
			<point x="681" y="1308" type="line"/>
			<point x="681" y="1414" type="line"/>
			<point x="71" y="1414" type="line"/>
			<point x="71" y="1308" type="line"/>
			<point x="267" y="1263" type="line"/>
			<point x="267" y="522" type="line" smooth="yes"/>
			<point x="267" y="151"/>
			<point x="472" y="-20"/>
			<point x="880" y="-20" type="curve" smooth="yes"/>
			<point x="1244" y="-20"/>
			<point x="1451" y="162"/>
			<point x="1451" y="512" type="curve" smooth="yes"/>
			<point x="1451" y="1263" type="line"/>
			<point x="1647" y="1308" type="line"/>
			<point x="1647" y="1414" type="line"/>
			<point x="1085" y="1414" type="line"/>
			<point x="1085" y="1308" type="line"/>
			<point x="1281" y="1263" type="line"/>
		</contour>
	</outline>
	<anchor name="UCtop" x="889" y="1414"/>
	<anchor name="right" x="1047" y="0"/>
	<anchor name="bottom" x="859" y="0"/>
	<anchor name="horn" x="1527" y="1414"/>
</glyph>
<glyph name="V" format="2">
	<unicode hex="0056"/>
	<advance width="1625"/>
	<outline>
		<contour>
			<point x="189" y="1263" type="line"/>
			<point x="705" y="-20" type="line"/>
			<point x="968" y="-20" type="line"/>
			<point x="1433" y="1263" type="line"/>
			<point x="1601" y="1308" type="line"/>
			<point x="1601" y="1414" type="line"/>
			<point x="1066" y="1414" type="line"/>
			<point x="1066" y="1308" type="line"/>
			<point x="1252" y="1263" type="line"/>
			<point x="850" y="78" type="line"/>
			<point x="899" y="78" type="line"/>
			<point x="433" y="1263" type="line"/>
			<point x="619" y="1308" type="line"/>
			<point x="619" y="1414" type="line"/>
			<point x="3" y="1414" type="line"/>
			<point x="3" y="1308" type="line"/>
		</contour>
	</outline>
	<anchor name="UCtop" x="852" y="1414"/>
	<anchor name="bottom" x="832" y="0"/>
</glyph>
<glyph name="W" format="2">
	<unicode hex="0057"/>
	<advance width="2243"/>
	<outline>
		<contour>
			<point x="1139" y="1211" type="line"/>
			<point x="1123" y="1211" type="line"/>
			<point x="1493" y="0" type="line"/>
			<point x="1776" y="0" type="line"/>
			<point x="2048" y="1263" type="line"/>
			<point x="2216" y="1308" type="line"/>
			<point x="2216" y="1414" type="line"/>
			<point x="1691" y="1414" type="line"/>
			<point x="1691" y="1308" type="line"/>
			<point x="1877" y="1263" type="line"/>
			<point x="1640" y="65" type="line"/>
			<point x="1704" y="65" type="line"/>
			<point x="1294" y="1414" type="line"/>
			<point x="1030" y="1414" type="line"/>
			<point x="637" y="98" type="line"/>
			<point x="677" y="98" type="line"/>
			<point x="448" y="1263" type="line"/>
			<point x="634" y="1308" type="line"/>
			<point x="634" y="1414" type="line"/>
			<point x="22" y="1414" type="line"/>
			<point x="22" y="1308" type="line"/>
			<point x="207" y="1263" type="line"/>
			<point x="464" y="0" type="line"/>
			<point x="761" y="0" type="line"/>
		</contour>
	</outline>
	<anchor name="UCtop" x="1139" y="1414"/>
	<anchor name="bottom" x="1149" y="0"/>
</glyph>
<glyph name="X" format="2">
	<unicode hex="0058"/>
	<advance width="1689"/>
	<outline>
		<contour>
			<point x="867" y="667" type="line"/>
			<point x="913" y="707" type="line"/>
			<point x="1410" y="1263" type="line"/>
			<point x="1578" y="1308" type="line"/>
			<point x="1578" y="1414" type="line"/>
			<point x="1043" y="1414" type="line"/>
			<point x="1043" y="1308" type="line"/>
			<point x="1214" y="1263" type="line"/>
			<point x="828" y="816" type="line"/>
			<point x="776" y="770" type="line"/>
			<point x="222" y="151" type="line"/>
			<point x="54" y="106" type="line"/>
			<point x="54" y="0" type="line"/>
			<point x="589" y="0" type="line"/>
			<point x="589" y="106" type="line"/>
			<point x="418" y="151" type="line"/>
		</contour>
		<contour>
			<point x="1178" y="151" type="line"/>
			<point x="992" y="106" type="line"/>
			<point x="992" y="0" type="line"/>
			<point x="1652" y="0" type="line"/>
			<point x="1652" y="106" type="line"/>
			<point x="1486" y="151" type="line"/>
			<point x="929" y="811" type="line"/>
			<point x="908" y="836" type="line"/>
			<point x="555" y="1263" type="line"/>
			<point x="741" y="1308" type="line"/>
			<point x="741" y="1414" type="line"/>
			<point x="81" y="1414" type="line"/>
			<point x="81" y="1308" type="line"/>
			<point x="247" y="1263" type="line"/>
			<point x="744" y="675" type="line"/>
			<point x="770" y="643" type="line"/>
		</contour>
	</outline>
	<anchor name="UCtop" x="853" y="1414"/>
	<anchor name="bottom" x="823" y="0"/>
</glyph>
<glyph name="Y" format="2">
	<unicode hex="0059"/>
	<advance width="1568"/>
	<outline>
		<contour>
			<point x="176" y="1263" type="line"/>
			<point x="696" y="581" type="line"/>
			<point x="696" y="151" type="line"/>
			<point x="500" y="106" type="line"/>
			<point x="500" y="0" type="line"/>
			<point x="1110" y="0" type="line"/>
			<point x="1110" y="106" type="line"/>
			<point x="914" y="151" type="line"/>
			<point x="914" y="591" type="line"/>
			<point x="1386" y="1263" type="line"/>
			<point x="1534" y="1308" type="line"/>
			<point x="1534" y="1414" type="line"/>
			<point x="1007" y="1414" type="line"/>
			<point x="1007" y="1308" type="line"/>
			<point x="1202" y="1263" type="line"/>
			<point x="827" y="717" type="line"/>
			<point x="862" y="718" type="line"/>
			<point x="456" y="1263" type="line"/>
			<point x="642" y="1308" type="line"/>
			<point x="642" y="1414" type="line"/>
			<point x="10" y="1414" type="line"/>
			<point x="10" y="1308" type="line"/>
		</contour>
	</outline>
	<anchor name="UCtop" x="802" y="1414"/>
	<anchor name="bottom" x="805" y="0"/>
</glyph>
<glyph name="Z" format="2">
	<unicode hex="005A"/>
	<advance width="1389"/>
	<outline>
		<contour>
			<point x="1235" y="1414" type="line"/>
			<point x="323" y="1414" type="line"/>
			<point x="246" y="1484" type="line"/>
			<point x="135" y="1484" type="line"/>
			<point x="135" y="1002" type="line"/>
			<point x="275" y="1002" type="line"/>
			<point x="333" y="1258" type="line"/>
			<point x="1047" y="1258" type="line"/>
			<point x="987" y="1280" type="line"/>
			<point x="125" y="136" type="line"/>
			<point x="125" y="0" type="line"/>
			<point x="1053" y="0" type="line"/>
			<point x="1095" y="-72" type="line"/>
			<point x="1222" y="-72" type="line"/>
			<point x="1298" y="432" type="line"/>
			<point x="1164" y="432" type="line"/>
			<point x="1048" y="156" type="line"/>
			<point x="313" y="156" type="line"/>
			<point x="374" y="133" type="line"/>
			<point x="1235" y="1278" type="line"/>
		</contour>
	</outline>
	<anchor name="UCtop" x="711" y="1414"/>
	<anchor name="bottom" x="671" y="0"/>
</glyph>
<glyph name="bracketleft" format="2">
	<unicode hex="005B"/>
	<advance width="772"/>
	<outline>
		<contour>
			<point x="221" y="-222" type="line"/>
			<point x="706" y="-222" type="line"/>
			<point x="706" y="-95" type="line"/>
			<point x="424" y="-95" type="line"/>
			<point x="424" y="1337" type="line"/>
			<point x="706" y="1337" type="line"/>
			<point x="706" y="1464" type="line"/>
			<point x="221" y="1464" type="line"/>
		</contour>
	</outline>
</glyph>
<glyph name="backslash" format="2">
	<unicode hex="005C"/>
	<advance width="891"/>
	<outline>
		<contour>
			<point x="829" y="0" type="line"/>
			<point x="239" y="1414" type="line"/>
			<point x="59" y="1414" type="line"/>
			<point x="650" y="0" type="line"/>
		</contour>
	</outline>
</glyph>
<glyph name="bracketright" format="2">
	<unicode hex="005D"/>
	<advance width="772"/>
	<outline>
		<contour>
			<point x="551" y="1465" type="line"/>
			<point x="66" y="1465" type="line"/>
			<point x="66" y="1338" type="line"/>
			<point x="348" y="1338" type="line"/>
			<point x="348" y="-94" type="line"/>
			<point x="66" y="-94" type="line"/>
			<point x="66" y="-221" type="line"/>
			<point x="551" y="-221" type="line"/>
		</contour>
	</outline>
</glyph>
<glyph name="asciicircum" format="2">
	<unicode hex="005E"/>
	<advance width="1140"/>
	<outline>
		<contour>
			<point x="530.5" y="1304" type="line"/>
			<point x="838.5" y="648" type="line"/>
			<point x="1011.5" y="648" type="line"/>
			<point x="647.5" y="1414" type="line"/>
			<point x="491.5" y="1414" type="line"/>
			<point x="128.5" y="648" type="line"/>
			<point x="301.5" y="648" type="line"/>
			<point x="608.5" y="1304" type="line"/>
		</contour>
	</outline>
</glyph>
<glyph name="a" format="2">
	<unicode hex="0061"/>
	<advance width="1193"/>
	<outline>
		<contour>
			<point x="901" y="660" type="line"/>
			<point x="239" y="575"/>
			<point x="118" y="462"/>
			<point x="118" y="256" type="curve" smooth="yes"/>
			<point x="118" y="80"/>
			<point x="232" y="-20"/>
			<point x="438" y="-20" type="curve" smooth="yes"/>
			<point x="630" y="-20"/>
			<point x="749" y="93"/>
			<point x="774" y="272" type="curve"/>
			<point x="766" y="272" type="line"/>
			<point x="773" y="73"/>
			<point x="844" y="-15"/>
			<point x="970" y="-15" type="curve" smooth="yes"/>
			<point x="1038" y="-15"/>
			<point x="1117" y="14"/>
			<point x="1181" y="74" type="curve"/>
			<point x="1181" y="164" type="line"/>
			<point x="1143" y="156"/>
			<point x="1108" y="151"/>
			<point x="1078" y="151" type="curve" smooth="yes"/>
			<point x="1004" y="151"/>
			<point x="964" y="182"/>
			<point x="964" y="262" type="curve" smooth="yes"/>
			<point x="964" y="736" type="line" smooth="yes"/>
			<point x="964" y="924"/>
			<point x="869" y="1044"/>
			<point x="600" y="1044" type="curve" smooth="yes"/>
			<point x="312" y="1044"/>
			<point x="112" y="889"/>
			<point x="112" y="797" type="curve" smooth="yes"/>
			<point x="112" y="753"/>
			<point x="155" y="717"/>
			<point x="237" y="717" type="curve" smooth="yes"/>
			<point x="291" y="717"/>
			<point x="326" y="724"/>
			<point x="349" y="776" type="curve" smooth="yes"/>
			<point x="372" y="828"/>
			<point x="387" y="873"/>
			<point x="407" y="957" type="curve"/>
			<point x="331" y="884" type="line"/>
			<point x="390" y="897"/>
			<point x="456" y="905"/>
			<point x="542" y="905" type="curve" smooth="yes"/>
			<point x="713" y="905"/>
			<point x="767" y="839"/>
			<point x="767" y="686" type="curve" smooth="yes"/>
			<point x="767" y="325" type="line" smooth="yes"/>
			<point x="767" y="221"/>
			<point x="659" y="144"/>
			<point x="522" y="144" type="curve" smooth="yes"/>
			<point x="398" y="144"/>
			<point x="338" y="194"/>
			<point x="338" y="291" type="curve" smooth="yes"/>
			<point x="338" y="410"/>
			<point x="399" y="468"/>
			<point x="854" y="528" type="curve"/>
		</contour>
	</outline>
	<anchor name="top" x="563" y="1024"/>
	<anchor name="right" x="1181" y="0"/>
	<anchor name="bottom" x="586" y="0"/>
</glyph>
<glyph name="b" format="2">
	<unicode hex="0062"/>
	<advance width="1324"/>
	<outline>
		<contour>
			<point x="338" y="233" type="line"/>
			<point x="402" y="57"/>
			<point x="525" y="-23"/>
			<point x="717" y="-23" type="curve" smooth="yes"/>
			<point x="1018" y="-23"/>
			<point x="1220" y="192"/>
			<point x="1220" y="552" type="curve" smooth="yes"/>
			<point x="1220" y="859"/>
			<point x="1047" y="1044"/>
			<point x="747" y="1044" type="curve" smooth="yes"/>
			<point x="669" y="1044"/>
			<point x="551" y="1009"/>
			<point x="303" y="886" type="curve"/>
			<point x="303" y="780" type="line"/>
			<point x="415" y="834"/>
			<point x="539" y="865"/>
			<point x="663" y="865" type="curve" smooth="yes"/>
			<point x="888" y="865"/>
			<point x="1005" y="752"/>
			<point x="1005" y="528" type="curve" smooth="yes"/>
			<point x="1005" y="258"/>
			<point x="881" y="120"/>
			<point x="675" y="120" type="curve" smooth="yes"/>
			<point x="488" y="120"/>
			<point x="391" y="208"/>
			<point x="391" y="396" type="curve" smooth="yes"/>
			<point x="391" y="1278" type="line"/>
			<point x="411" y="1484" type="line"/>
			<point x="369" y="1484" type="line"/>
			<point x="-25" y="1414" type="line"/>
			<point x="-25" y="1335" type="line"/>
			<point x="53" y="1307"/>
			<point x="167" y="1266"/>
			<point x="193" y="1257" type="curve"/>
			<point x="193" y="300" type="line"/>
			<point x="124" y="0" type="line"/>
			<point x="259" y="0" type="line"/>
			<point x="401" y="233" type="line"/>
		</contour>
	</outline>
	<anchor name="UCtop" x="697" y="1414"/>
	<anchor name="bottom" x="657" y="0"/>
</glyph>
<glyph name="c" format="2">
	<unicode hex="0063"/>
	<advance width="1096"/>
	<outline>
		<contour>
			<point x="700" y="1044" type="curve" smooth="yes"/>
			<point x="330.6470588235" y="1044"/>
			<point x="102" y="852"/>
			<point x="102" y="498" type="curve" smooth="yes"/>
			<point x="102" y="162"/>
			<point x="302" y="-20"/>
			<point x="596" y="-20" type="curve" smooth="yes"/>
			<point x="715" y="-20"/>
			<point x="864" y="36"/>
			<point x="994" y="124" type="curve"/>
			<point x="994" y="230" type="line"/>
			<point x="875" y="180"/>
			<point x="766" y="154"/>
			<point x="665" y="154" type="curve" smooth="yes"/>
			<point x="426" y="154"/>
			<point x="298" y="287"/>
			<point x="298" y="552" type="curve" smooth="yes"/>
			<point x="298" y="784"/>
			<point x="418.5585284281" y="901"/>
			<point x="617" y="901" type="curve" smooth="yes"/>
			<point x="683" y="901"/>
			<point x="863" y="733"/>
			<point x="888" y="733" type="curve" smooth="yes"/>
			<point x="968" y="733"/>
			<point x="1022" y="799"/>
			<point x="1022" y="874" type="curve" smooth="yes"/>
			<point x="1022" y="947"/>
			<point x="950" y="1044"/>
		</contour>
	</outline>
	<anchor name="top" x="601" y="1024"/>
	<anchor name="right" x="994" y="0"/>
	<anchor name="bottom" x="572" y="0"/>
</glyph>
<glyph name="d" format="2">
	<unicode hex="0064"/>
	<advance width="1359"/>
	<outline>
		<contour>
			<point x="932" y="668" type="curve" smooth="yes"/>
			<point x="932" y="199" type="line"/>
			<point x="1007" y="-20" type="line"/>
			<point x="1045" y="-20" type="line"/>
			<point x="1314" y="106" type="line"/>
			<point x="1314" y="148" type="line"/>
			<point x="1272" y="168.7717391304"/>
			<point x="1154" y="227.1304347826"/>
			<point x="1130" y="239" type="curve"/>
			<point x="1130" y="1278" type="line"/>
			<point x="1150" y="1484" type="line"/>
			<point x="1108" y="1484" type="line"/>
			<point x="714" y="1414" type="line"/>
			<point x="714" y="1335" type="line"/>
			<point x="771" y="1314.6055045872"/>
			<point x="908" y="1265.5871559633"/>
			<point x="932" y="1257" type="curve"/>
			<point x="932" y="888" type="line"/>
			<point x="1048" y="936" type="line"/>
			<point x="919" y="1016"/>
			<point x="820" y="1044"/>
			<point x="675" y="1044" type="curve" smooth="yes"/>
			<point x="347" y="1044"/>
			<point x="103" y="822"/>
			<point x="103" y="472" type="curve" smooth="yes"/>
			<point x="103" y="167"/>
			<point x="259" y="-20"/>
			<point x="565" y="-20" type="curve" smooth="yes"/>
			<point x="645" y="-20"/>
			<point x="722" y="3"/>
			<point x="1020" y="220" type="curve"/>
			<point x="1020" y="254" type="line"/>
			<point x="900" y="192"/>
			<point x="784" y="159"/>
			<point x="660" y="159" type="curve" smooth="yes"/>
			<point x="436" y="159"/>
			<point x="318" y="271"/>
			<point x="318" y="514" type="curve" smooth="yes"/>
			<point x="318" y="760"/>
			<point x="440" y="906"/>
			<point x="666" y="906" type="curve" smooth="yes"/>
			<point x="864" y="906"/>
			<point x="932" y="817"/>
		</contour>
	</outline>
	<anchor name="UCtop" x="639" y="1464"/>
	<anchor name="right" x="1130" y="1464"/>
	<anchor name="bottom" x="689" y="0"/>
	<anchor name="center" x="956" y="1170"/>
</glyph>
<glyph name="e" format="2">
	<unicode hex="0065"/>
	<advance width="1144"/>
	<outline>
		<contour>
			<point x="594" y="1044" type="curve" smooth="yes"/>
			<point x="298" y="1044"/>
			<point x="103" y="831"/>
			<point x="103" y="498" type="curve" smooth="yes"/>
			<point x="103" y="162"/>
			<point x="302" y="-20"/>
			<point x="614" y="-20" type="curve" smooth="yes"/>
			<point x="735" y="-20"/>
			<point x="898" y="37"/>
			<point x="1031" y="124" type="curve"/>
			<point x="1031" y="230" type="line"/>
			<point x="939" y="193"/>
			<point x="828" y="154"/>
			<point x="696" y="154" type="curve" smooth="yes"/>
			<point x="425" y="154"/>
			<point x="299" y="270"/>
			<point x="299" y="553" type="curve" smooth="yes"/>
			<point x="299" y="800"/>
			<point x="405" y="904"/>
			<point x="589" y="904" type="curve" smooth="yes"/>
			<point x="739" y="904"/>
			<point x="829" y="821"/>
			<point x="834" y="600" type="curve"/>
			<point x="892" y="621" type="line"/>
			<point x="263" y="621" type="line"/>
			<point x="269" y="485" type="line"/>
			<point x="1039" y="485" type="line"/>
			<point x="1036" y="844"/>
			<point x="918" y="1044"/>
		</contour>
	</outline>
	<anchor name="top" x="584" y="1024"/>
	<anchor name="right" x="1031" y="0"/>
	<anchor name="bottom" x="621" y="0"/>
</glyph>
<glyph name="f" format="2">
	<unicode hex="0066"/>
	<advance width="899"/>
	<outline>
		<contour>
			<point x="312" y="869" type="line"/>
			<point x="851" y="869" type="line"/>
			<point x="851" y="1024" type="line"/>
			<point x="312" y="1024" type="line"/>
			<point x="281" y="1048" type="line"/>
			<point x="71" y="975" type="line"/>
			<point x="71" y="911" type="line"/>
			<point x="265" y="845" type="line"/>
		</contour>
		<contour>
			<point x="463" y="136" type="line"/>
			<point x="463" y="1153" type="line" smooth="yes"/>
			<point x="463" y="1282"/>
			<point x="536" y="1351"/>
			<point x="704" y="1351" type="curve" smooth="yes"/>
			<point x="865" y="1351"/>
			<point x="912" y="1204"/>
			<point x="947" y="1204" type="curve" smooth="yes"/>
			<point x="1021" y="1204"/>
			<point x="1073" y="1249"/>
			<point x="1073" y="1324" type="curve" smooth="yes"/>
			<point x="1073" y="1418"/>
			<point x="992" y="1484"/>
			<point x="736" y="1484" type="curve" smooth="yes"/>
			<point x="446" y="1484"/>
			<point x="265" y="1346"/>
			<point x="265" y="1093" type="curve" smooth="yes"/>
			<point x="265" y="136" type="line"/>
			<point x="98" y="96" type="line"/>
			<point x="98" y="0" type="line"/>
			<point x="651" y="0" type="line"/>
			<point x="651" y="96" type="line"/>
		</contour>
	</outline>
	<anchor name="UCtop" x="671" y="1464"/>
	<anchor name="bottom" x="364" y="0"/>
</glyph>
<glyph name="g" format="2">
  <advance width="1198.0"/>
  <unicode hex="0067"/>
  <anchor x="560.0" y="1024.0" name="top"/>
  <anchor x="580.0" y="-445.0" name="bottom"/>
  <outline>
    <contour>
      <point x="553.0" y="-465.0" type="curve" smooth="yes"/>
      <point x="939.0" y="-465.0"/>
      <point x="1143.0" y="-335.0"/>
      <point x="1143.0" y="-122.0" type="curve" smooth="yes"/>
      <point x="1143.0" y="83.0"/>
      <point x="1010.0" y="158.0"/>
      <point x="676.0" y="160.0" type="curve" smooth="yes"/>
      <point x="342.0" y="162.0"/>
      <point x="313.0" y="186.0"/>
      <point x="313.0" y="254.0" type="curve" smooth="yes"/>
      <point x="313.0" y="309.0"/>
      <point x="347.0" y="327.0"/>
      <point x="424.0" y="334.0" type="curve"/>
      <point x="418.0" y="359.0" type="line"/>
      <point x="204.0" y="340.0"/>
      <point x="125.0" y="269.0"/>
      <point x="125.0" y="182.0" type="curve" smooth="yes"/>
      <point x="125.0" y="57.0"/>
      <point x="218.0" y="-19.0"/>
      <point x="562.0" y="-19.0" type="curve" smooth="yes"/>
      <point x="906.0" y="-19.0"/>
      <point x="944.0" y="-68.0"/>
      <point x="944.0" y="-163.0" type="curve" smooth="yes"/>
      <point x="944.0" y="-277.0"/>
      <point x="831.0" y="-330.0"/>
      <point x="557.0" y="-330.0" type="curve" smooth="yes"/>
      <point x="342.0" y="-330.0"/>
      <point x="259.0" y="-285.0"/>
      <point x="259.0" y="-172.0" type="curve" smooth="yes"/>
      <point x="259.0" y="-82.0"/>
      <point x="317.0" y="-18.0"/>
      <point x="520.0" y="-14.0" type="curve"/>
      <point x="520.0" y="5.0" type="line"/>
      <point x="437.0" y="4.0" type="line"/>
      <point x="146.0" y="4.0"/>
      <point x="38.0" y="-100.0"/>
      <point x="38.0" y="-213.0" type="curve" smooth="yes"/>
      <point x="38.0" y="-369.0"/>
      <point x="179.0" y="-465.0"/>
    </contour>
    <contour>
      <point x="544.0" y="321.0" type="curve" smooth="yes"/>
      <point x="812.0" y="321.0"/>
      <point x="971.0" y="455.0"/>
      <point x="971.0" y="682.0" type="curve" smooth="yes"/>
      <point x="971.0" y="910.0"/>
      <point x="812.0" y="1044.0"/>
      <point x="544.0" y="1044.0" type="curve" smooth="yes"/>
      <point x="271.0" y="1044.0"/>
      <point x="111.0" y="910.0"/>
      <point x="111.0" y="682.0" type="curve" smooth="yes"/>
      <point x="111.0" y="455.0"/>
      <point x="271.0" y="321.0"/>
    </contour>
    <contour>
      <point x="552.0" y="456.0" type="curve" smooth="yes"/>
      <point x="378.0" y="456.0"/>
      <point x="302.0" y="532.0"/>
      <point x="302.0" y="690.0" type="curve" smooth="yes"/>
      <point x="302.0" y="845.0"/>
      <point x="409.0" y="910.0"/>
      <point x="542.0" y="910.0" type="curve" smooth="yes"/>
      <point x="711.0" y="910.0"/>
      <point x="784.0" y="834.0"/>
      <point x="784.0" y="676.0" type="curve" smooth="yes"/>
      <point x="784.0" y="521.0"/>
      <point x="681.0" y="456.0"/>
    </contour>
    <contour>
      <point x="722.0" y="920.0" type="line"/>
      <point x="1022.0" y="881.0"/>
      <point x="1091.0" y="867.0"/>
      <point x="1134.0" y="867.0" type="curve" smooth="yes"/>
      <point x="1149.0" y="867.0"/>
      <point x="1162.0" y="912.0"/>
      <point x="1162.0" y="976.0" type="curve" smooth="yes"/>
      <point x="1162.0" y="1024.0"/>
      <point x="1153.0" y="1044.0"/>
      <point x="1134.0" y="1044.0" type="curve" smooth="yes"/>
      <point x="1071.0" y="1044.0"/>
      <point x="847.0" y="1024.0"/>
      <point x="662.0" y="1024.0" type="curve"/>
    </contour>
  </outline>
</glyph>
<glyph name="h" format="2">
	<unicode hex="0068"/>
	<advance width="1368"/>
	<outline>
		<contour>
			<point x="793" y="96" type="line"/>
			<point x="793" y="0" type="line"/>
			<point x="1317" y="0" type="line"/>
			<point x="1317" y="96" type="line"/>
			<point x="1149" y="136" type="line"/>
			<point x="1149" y="717" type="line" smooth="yes"/>
			<point x="1149" y="933"/>
			<point x="1047" y="1044"/>
			<point x="818" y="1044" type="curve" smooth="yes"/>
			<point x="692" y="1044"/>
			<point x="660" y="1031"/>
			<point x="410" y="841" type="curve"/>
			<point x="426" y="802" type="line"/>
			<point x="509" y="831"/>
			<point x="616" y="851"/>
			<point x="712" y="851" type="curve" smooth="yes"/>
			<point x="885" y="851"/>
			<point x="951" y="795"/>
			<point x="951" y="655" type="curve" smooth="yes"/>
			<point x="951" y="136" type="line"/>
		</contour>
		<contour>
			<point x="588" y="0" type="line"/>
			<point x="588" y="96" type="line"/>
			<point x="430" y="136" type="line"/>
			<point x="430" y="1278" type="line"/>
			<point x="450" y="1484" type="line"/>
			<point x="408" y="1484" type="line"/>
			<point x="14" y="1414" type="line"/>
			<point x="14" y="1335" type="line"/>
			<point x="92" y="1307.0917431193"/>
			<point x="206" y="1266.3027522936"/>
			<point x="232" y="1257" type="curve"/>
			<point x="232" y="136" type="line"/>
			<point x="65" y="96" type="line"/>
			<point x="65" y="0" type="line"/>
		</contour>
	</outline>
	<anchor name="UCtop" x="722" y="1464"/>
	<anchor name="bottom" x="686" y="0"/>
	<anchor name="center" x="406" y="1170"/>
</glyph>
<glyph name="i" format="2">
	<unicode hex="0069"/>
	<advance width="691"/>
	<outline>
		<contour>
			<point x="343" y="1212" type="curve" smooth="yes"/>
			<point x="438" y="1212"/>
			<point x="502" y="1256"/>
			<point x="502" y="1348" type="curve" smooth="yes"/>
			<point x="502" y="1440"/>
			<point x="438" y="1484"/>
			<point x="343" y="1484" type="curve" smooth="yes"/>
			<point x="248" y="1484"/>
			<point x="184" y="1440"/>
			<point x="184" y="1348" type="curve" smooth="yes"/>
			<point x="184" y="1256"/>
			<point x="248" y="1212"/>
		</contour>
		<contour>
			<point x="476" y="1044" type="line"/>
			<point x="418" y="1044" type="line"/>
			<point x="83" y="943" type="line"/>
			<point x="83" y="882" type="line"/>
			<point x="144" y="850.9944751381"/>
			<point x="242" y="801.182320442"/>
			<point x="264" y="790" type="curve"/>
			<point x="264" y="136" type="line"/>
			<point x="97" y="96" type="line"/>
			<point x="97" y="0" type="line"/>
			<point x="620" y="0" type="line"/>
			<point x="620" y="96" type="line"/>
			<point x="462" y="136" type="line"/>
			<point x="462" y="820" type="line"/>
		</contour>
	</outline>
	<anchor name="top" x="342" y="1464"/>
	<anchor name="bottom" x="363" y="0"/>
	<anchor name="right" x="510" y="0"/>
</glyph>
<glyph name="j" format="2">
  <advance width="617.0"/>
  <unicode hex="006A"/>
  <anchor x="314.0" y="1484" name="top"/>
  <anchor x="274.0" y="-445" name="bottom"/>
  <outline>
    <contour>
      <point x="316.0" y="1212.0" type="curve" smooth="yes"/>
      <point x="411.0" y="1212.0"/>
      <point x="475.0" y="1256.0"/>
      <point x="475.0" y="1348.0" type="curve" smooth="yes"/>
      <point x="475.0" y="1440.0"/>
      <point x="411.0" y="1484.0"/>
      <point x="316.0" y="1484.0" type="curve" smooth="yes"/>
      <point x="221.0" y="1484.0"/>
      <point x="157.0" y="1440.0"/>
      <point x="157.0" y="1348.0" type="curve" smooth="yes"/>
      <point x="157.0" y="1256.0"/>
      <point x="221.0" y="1212.0"/>
    </contour>
    <contour>
      <point x="237.0" y="790.0" type="curve"/>
      <point x="237.0" y="-7.0" type="line" smooth="yes"/>
      <point x="237.0" y="-114.0"/>
      <point x="228.0" y="-128.0"/>
      <point x="-6.0" y="-373.0" type="curve"/>
      <point x="75.0" y="-465.0" type="line"/>
      <point x="392.0" y="-219.0"/>
      <point x="435.0" y="-158.0"/>
      <point x="435.0" y="36.0" type="curve" smooth="yes"/>
      <point x="435.0" y="820.0" type="line"/>
      <point x="449.0" y="1044.0" type="line"/>
      <point x="391.0" y="1044.0" type="line"/>
      <point x="56.0" y="943.0" type="line"/>
      <point x="56.0" y="882.0" type="line"/>
      <point x="117.0" y="850.9944751381215"/>
      <point x="215.0" y="801.182320441989"/>
    </contour>
  </outline>
</glyph>
<glyph name="k" format="2">
	<unicode hex="006B"/>
	<advance width="1327"/>
	<outline>
		<contour>
			<point x="687" y="563" type="line"/>
			<point x="1097" y="897" type="line"/>
			<point x="1238" y="933" type="line"/>
			<point x="1238" y="1024" type="line"/>
			<point x="733" y="1024" type="line"/>
			<point x="733" y="933" type="line"/>
			<point x="882" y="894" type="line"/>
			<point x="618" y="652" type="line"/>
			<point x="388" y="652" type="line"/>
			<point x="388" y="505" type="line"/>
			<point x="588" y="505" type="line"/>
			<point x="923" y="128" type="line"/>
			<point x="924" y="96" type="line"/>
			<point x="924" y="0" type="line"/>
			<point x="1302" y="0" type="line"/>
			<point x="1302" y="96" type="line"/>
			<point x="1166" y="142" type="line"/>
			<point x="710" y="646" type="line"/>
		</contour>
		<contour>
			<point x="430" y="136" type="line"/>
			<point x="430" y="1278" type="line"/>
			<point x="450" y="1484" type="line"/>
			<point x="408" y="1484" type="line"/>
			<point x="14" y="1414" type="line"/>
			<point x="14" y="1335" type="line"/>
			<point x="92" y="1307.0917431193"/>
			<point x="206" y="1266.3027522936"/>
			<point x="232" y="1257" type="curve"/>
			<point x="232" y="136" type="line"/>
			<point x="65" y="96" type="line"/>
			<point x="65" y="0" type="line"/>
			<point x="588" y="0" type="line"/>
			<point x="588" y="96" type="line"/>
		</contour>
	</outline>
	<anchor name="UCtop" x="663" y="1464"/>
	<anchor name="bottom" x="718" y="0"/>
</glyph>
<glyph name="l" format="2">
	<unicode hex="006C"/>
	<advance width="662"/>
	<outline>
		<contour>
			<point x="433" y="136" type="line"/>
			<point x="433" y="1278" type="line"/>
			<point x="453" y="1484" type="line"/>
			<point x="411" y="1484" type="line"/>
			<point x="17" y="1414" type="line"/>
			<point x="17" y="1335" type="line"/>
			<point x="95" y="1307.0917431193"/>
			<point x="209" y="1266.3027522936"/>
			<point x="235" y="1257" type="curve"/>
			<point x="235" y="136" type="line"/>
			<point x="68" y="96" type="line"/>
			<point x="68" y="0" type="line"/>
			<point x="591" y="0" type="line"/>
			<point x="591" y="96" type="line"/>
		</contour>
	</outline>
	<anchor name="UCtop" x="311" y="1464"/>
	<anchor name="right" x="433" y="1464"/>
	<anchor name="bottom" x="334" y="0"/>
	<anchor name="mid" x="701" y="512"/>
</glyph>
<glyph name="m" format="2">
	<unicode hex="006D"/>
	<advance width="2027"/>
	<outline>
		<contour>
			<point x="459" y="830" type="line"/>
			<point x="403" y="1049" type="line"/>
			<point x="365" y="1049" type="line"/>
			<point x="80" y="923" type="line"/>
			<point x="80" y="882" type="line"/>
			<point x="171" y="825.6906077348"/>
			<point x="239" y="783.6132596685"/>
			<point x="261" y="770" type="curve"/>
			<point x="261" y="136" type="line"/>
			<point x="94" y="96" type="line"/>
			<point x="94" y="0" type="line"/>
			<point x="617" y="0" type="line"/>
			<point x="617" y="96" type="line"/>
			<point x="459" y="136" type="line"/>
		</contour>
		<contour>
			<point x="1133" y="749" type="line" smooth="yes"/>
			<point x="1133" y="968"/>
			<point x="1036.3806451613" y="1044"/>
			<point x="821" y="1044" type="curve" smooth="yes"/>
			<point x="703" y="1044"/>
			<point x="673" y="1032"/>
			<point x="439" y="854" type="curve"/>
			<point x="454" y="807" type="line"/>
			<point x="531" y="833"/>
			<point x="629" y="851"/>
			<point x="717" y="851" type="curve" smooth="yes"/>
			<point x="876" y="851"/>
			<point x="935" y="800"/>
			<point x="935" y="671" type="curve" smooth="yes"/>
			<point x="935" y="136" type="line"/>
			<point x="777" y="96" type="line"/>
			<point x="777" y="0" type="line"/>
			<point x="1291" y="0" type="line"/>
			<point x="1291" y="96" type="line"/>
			<point x="1133" y="136" type="line"/>
		</contour>
		<contour>
			<point x="1807" y="736" type="line" smooth="yes"/>
			<point x="1807" y="941"/>
			<point x="1710" y="1044"/>
			<point x="1493" y="1044" type="curve" smooth="yes"/>
			<point x="1374" y="1044"/>
			<point x="1344" y="1032"/>
			<point x="1107" y="852" type="curve"/>
			<point x="1122" y="806" type="line"/>
			<point x="1199" y="832"/>
			<point x="1298" y="851"/>
			<point x="1388" y="851" type="curve" smooth="yes"/>
			<point x="1548" y="851"/>
			<point x="1609" y="799"/>
			<point x="1609" y="670" type="curve" smooth="yes"/>
			<point x="1609" y="136" type="line"/>
			<point x="1451" y="96" type="line"/>
			<point x="1451" y="0" type="line"/>
			<point x="1975" y="0" type="line"/>
			<point x="1975" y="96" type="line"/>
			<point x="1807" y="136" type="line"/>
		</contour>
	</outline>
	<anchor name="top" x="1034" y="1024"/>
	<anchor name="bottom" x="1034" y="0"/>
</glyph>
<glyph name="n" format="2">
	<unicode hex="006E"/>
	<advance width="1397"/>
	<outline>
		<contour>
			<point x="459" y="830" type="line"/>
			<point x="403" y="1049" type="line"/>
			<point x="365" y="1049" type="line"/>
			<point x="80" y="923" type="line"/>
			<point x="80" y="882" type="line"/>
			<point x="171" y="825.6906077348"/>
			<point x="239" y="783.6132596685"/>
			<point x="261" y="770" type="curve"/>
			<point x="261" y="136" type="line"/>
			<point x="94" y="96" type="line"/>
			<point x="94" y="0" type="line"/>
			<point x="617" y="0" type="line"/>
			<point x="617" y="96" type="line"/>
			<point x="459" y="136" type="line"/>
		</contour>
		<contour>
			<point x="822" y="96" type="line"/>
			<point x="822" y="0" type="line"/>
			<point x="1346" y="0" type="line"/>
			<point x="1346" y="96" type="line"/>
			<point x="1178" y="136" type="line"/>
			<point x="1178" y="717" type="line" smooth="yes"/>
			<point x="1178" y="933"/>
			<point x="1076" y="1044"/>
			<point x="847" y="1044" type="curve" smooth="yes"/>
			<point x="721" y="1044"/>
			<point x="689" y="1031"/>
			<point x="439" y="841" type="curve"/>
			<point x="455" y="802" type="line"/>
			<point x="538" y="831"/>
			<point x="645" y="851"/>
			<point x="741" y="851" type="curve" smooth="yes"/>
			<point x="914" y="851"/>
			<point x="980" y="795"/>
			<point x="980" y="655" type="curve" smooth="yes"/>
			<point x="980" y="136" type="line"/>
		</contour>
	</outline>
	<anchor name="top" x="723" y="1024"/>
	<anchor name="bottom" x="706" y="0"/>
</glyph>
<glyph name="o" format="2">
	<unicode hex="006F"/>
	<advance width="1267"/>
	<outline>
		<contour>
			<point x="622" y="130" type="curve" smooth="yes"/>
			<point x="405" y="130"/>
			<point x="307" y="267"/>
			<point x="307" y="536" type="curve" smooth="yes"/>
			<point x="307" y="782"/>
			<point x="423" y="894"/>
			<point x="645" y="894" type="curve" smooth="yes"/>
			<point x="862" y="894"/>
			<point x="960" y="757"/>
			<point x="960" y="488" type="curve" smooth="yes"/>
			<point x="960" y="242"/>
			<point x="844" y="130"/>
		</contour>
		<contour>
			<point x="624" y="-20" type="curve" smooth="yes"/>
			<point x="958" y="-20"/>
			<point x="1165" y="188"/>
			<point x="1165" y="512" type="curve" smooth="yes"/>
			<point x="1165" y="835"/>
			<point x="969" y="1044"/>
			<point x="643" y="1044" type="curve" smooth="yes"/>
			<point x="309" y="1044"/>
			<point x="102" y="836"/>
			<point x="102" y="512" type="curve" smooth="yes"/>
			<point x="102" y="189"/>
			<point x="298" y="-20"/>
		</contour>
	</outline>
	<anchor name="top" x="634" y="1024"/>
	<anchor name="bottom" x="634" y="0"/>
	<anchor name="horn" x="835" y="1024"/>
	<anchor name="right" x="825" y="0"/>
</glyph>
<glyph name="p" format="2">
	<unicode hex="0070"/>
	<advance width="1365"/>
	<outline>
		<contour>
			<point x="1047" y="500" type="curve" smooth="yes"/>
			<point x="1047" y="264"/>
			<point x="925" y="120"/>
			<point x="717" y="120" type="curve" smooth="yes"/>
			<point x="559" y="120"/>
			<point x="433" y="201"/>
			<point x="433" y="358" type="curve" smooth="yes"/>
			<point x="433" y="873" type="line"/>
			<point x="377" y="1049" type="line"/>
			<point x="339" y="1049" type="line"/>
			<point x="54" y="923" type="line"/>
			<point x="54" y="882" type="line"/>
			<point x="128" y="836.2099447514"/>
			<point x="209" y="786.0883977901"/>
			<point x="235" y="770" type="curve"/>
			<point x="235" y="-309" type="line"/>
			<point x="63" y="-349" type="line"/>
			<point x="63" y="-445" type="line"/>
			<point x="623" y="-445" type="line"/>
			<point x="623" y="-349" type="line"/>
			<point x="432" y="-311" type="line"/>
			<point x="432" y="271" type="line"/>
			<point x="415" y="271" type="line"/>
			<point x="425" y="119"/>
			<point x="567" y="-20"/>
			<point x="758" y="-20" type="curve" smooth="yes"/>
			<point x="1043" y="-20"/>
			<point x="1262" y="197"/>
			<point x="1262" y="552" type="curve" smooth="yes"/>
			<point x="1262" y="857"/>
			<point x="1092" y="1044"/>
			<point x="781" y="1044" type="curve" smooth="yes"/>
			<point x="691" y="1044"/>
			<point x="576" y="1008"/>
			<point x="363" y="894" type="curve"/>
			<point x="363" y="788" type="line"/>
			<point x="470" y="837"/>
			<point x="587" y="865"/>
			<point x="705" y="865" type="curve" smooth="yes"/>
			<point x="919" y="865"/>
			<point x="1047" y="748"/>
		</contour>
	</outline>
	<anchor name="top" x="708" y="1024"/>
	<anchor name="bottom" x="334" y="-445"/>
</glyph>
<glyph name="q" format="2">
	<unicode hex="0071"/>
	<advance width="1315"/>
	<outline>
		<contour>
			<point x="318" y="514" type="curve" smooth="yes"/>
			<point x="318" y="760"/>
			<point x="440" y="906"/>
			<point x="666" y="906" type="curve" smooth="yes"/>
			<point x="864" y="906"/>
			<point x="932" y="817"/>
			<point x="932" y="668" type="curve" smooth="yes"/>
			<point x="932" y="-311" type="line"/>
			<point x="741" y="-349" type="line"/>
			<point x="741" y="-445" type="line"/>
			<point x="1302" y="-445" type="line"/>
			<point x="1302" y="-349" type="line"/>
			<point x="1130" y="-309" type="line"/>
			<point x="1130" y="798" type="line"/>
			<point x="1176" y="1023" type="line"/>
			<point x="1128" y="1044" type="line"/>
			<point x="932" y="891" type="line"/>
			<point x="1027" y="884" type="line"/>
			<point x="941" y="1005"/>
			<point x="820" y="1044"/>
			<point x="675" y="1044" type="curve" smooth="yes"/>
			<point x="347" y="1044"/>
			<point x="103" y="822"/>
			<point x="103" y="472" type="curve" smooth="yes"/>
			<point x="103" y="167"/>
			<point x="259" y="-20"/>
			<point x="565" y="-20" type="curve" smooth="yes"/>
			<point x="645" y="-20"/>
			<point x="722" y="3"/>
			<point x="1020" y="220" type="curve"/>
			<point x="1020" y="254" type="line"/>
			<point x="892" y="189"/>
			<point x="776" y="159"/>
			<point x="660" y="159" type="curve" smooth="yes"/>
			<point x="436" y="159"/>
			<point x="318" y="271"/>
		</contour>
	</outline>
	<anchor name="top" x="653" y="1024"/>
	<anchor name="bottom" x="1031" y="-445"/>
</glyph>
<glyph name="r" format="2">
	<unicode hex="0072"/>
	<advance width="952"/>
	<outline>
		<contour>
			<point x="792" y="1042" type="curve" smooth="yes"/>
			<point x="696" y="1042"/>
			<point x="613" y="1006"/>
			<point x="386" y="804" type="curve"/>
			<point x="417" y="769" type="line"/>
			<point x="477" y="804"/>
			<point x="518" y="811"/>
			<point x="567" y="811" type="curve" smooth="yes"/>
			<point x="656" y="811"/>
			<point x="752" y="801"/>
			<point x="848" y="801" type="curve" smooth="yes"/>
			<point x="873" y="801"/>
			<point x="901" y="848"/>
			<point x="901" y="932" type="curve" smooth="yes"/>
			<point x="901" y="1002"/>
			<point x="855" y="1042"/>
		</contour>
		<contour>
			<point x="459" y="830" type="line"/>
			<point x="403" y="1049" type="line"/>
			<point x="365" y="1049" type="line"/>
			<point x="80" y="923" type="line"/>
			<point x="80" y="882" type="line"/>
			<point x="154" y="836.2099447514"/>
			<point x="235" y="786.0883977901"/>
			<point x="261" y="770" type="curve"/>
			<point x="261" y="136" type="line"/>
			<point x="94" y="96" type="line"/>
			<point x="94" y="0" type="line"/>
			<point x="647" y="0" type="line"/>
			<point x="647" y="96" type="line"/>
			<point x="459" y="136" type="line"/>
		</contour>
	</outline>
	<anchor name="top" x="485" y="1024"/>
	<anchor name="bottom" x="360" y="0"/>
</glyph>
<glyph name="s" format="2">
	<unicode hex="0073"/>
	<advance width="1074"/>
	<outline>
		<contour>
			<point x="584" y="1044" type="curve" smooth="yes"/>
			<point x="300" y="1044"/>
			<point x="127" y="942"/>
			<point x="127" y="750" type="curve" smooth="yes"/>
			<point x="127" y="541"/>
			<point x="256" y="489"/>
			<point x="421" y="461" type="curve" smooth="yes"/>
			<point x="586" y="433"/>
			<point x="788" y="446"/>
			<point x="788" y="280" type="curve" smooth="yes"/>
			<point x="788" y="169"/>
			<point x="691" y="116"/>
			<point x="485" y="116" type="curve" smooth="yes"/>
			<point x="406" y="116"/>
			<point x="316" y="123"/>
			<point x="243" y="147" type="curve"/>
			<point x="366" y="42" type="line"/>
			<point x="245" y="325" type="line"/>
			<point x="103" y="325" type="line"/>
			<point x="146" y="36" type="line"/>
			<point x="229" y="2"/>
			<point x="372" y="-16"/>
			<point x="479" y="-16" type="curve" smooth="yes"/>
			<point x="806" y="-16"/>
			<point x="970" y="98"/>
			<point x="970" y="314" type="curve" smooth="yes"/>
			<point x="970" y="560"/>
			<point x="780" y="591"/>
			<point x="615" y="612" type="curve" smooth="yes"/>
			<point x="450" y="633"/>
			<point x="310" y="645"/>
			<point x="310" y="783" type="curve" smooth="yes"/>
			<point x="310" y="871"/>
			<point x="393" y="918"/>
			<point x="561" y="918" type="curve" smooth="yes"/>
			<point x="635" y="918"/>
			<point x="734" y="901"/>
			<point x="831" y="867" type="curve"/>
			<point x="672" y="977" type="line"/>
			<point x="786" y="729" type="line"/>
			<point x="923" y="729" type="line"/>
			<point x="893" y="995" type="line"/>
			<point x="773" y="1029"/>
			<point x="684" y="1044"/>
		</contour>
	</outline>
	<anchor name="top" x="534" y="1024"/>
	<anchor name="bottom" x="547" y="0"/>
</glyph>
<glyph name="t" format="2">
	<unicode hex="0074"/>
	<advance width="883"/>
	<outline>
		<contour>
			<point x="428" y="312" type="curve" smooth="yes"/>
			<point x="428" y="989" type="line"/>
			<point x="428" y="1224" type="line"/>
			<point x="348" y="1224" type="line"/>
			<point x="280" y="1086"/>
			<point x="242" y="1051"/>
			<point x="38" y="988" type="curve"/>
			<point x="38" y="921" type="line"/>
			<point x="230" y="868" type="line"/>
			<point x="230" y="210" type="line" smooth="yes"/>
			<point x="230" y="55"/>
			<point x="352" y="-20"/>
			<point x="501" y="-20" type="curve" smooth="yes"/>
			<point x="582" y="-20"/>
			<point x="674" y="9"/>
			<point x="833" y="100" type="curve"/>
			<point x="833" y="185" type="line"/>
			<point x="755" y="163"/>
			<point x="685" y="151"/>
			<point x="627" y="151" type="curve" smooth="yes"/>
			<point x="490" y="151"/>
			<point x="428" y="192"/>
		</contour>
		<contour>
			<point x="352" y="869" type="line"/>
			<point x="814" y="869" type="line"/>
			<point x="814" y="1024" type="line"/>
			<point x="358" y="1024" type="line"/>
		</contour>
	</outline>
	<anchor name="right" x="418" y="1535"/>
	<anchor name="bottom" x="556" y="0"/>
</glyph>
<glyph name="u" format="2">
	<unicode hex="0075"/>
	<advance width="1324"/>
	<outline>
		<contour>
			<point x="418" y="354" type="curve" smooth="yes"/>
			<point x="418" y="878" type="line"/>
			<point x="440" y="1034" type="line"/>
			<point x="36" y="1024" type="line"/>
			<point x="36" y="927" type="line"/>
			<point x="220" y="859" type="line"/>
			<point x="220" y="289" type="line" smooth="yes"/>
			<point x="220" y="85"/>
			<point x="316" y="-20"/>
			<point x="532" y="-20" type="curve" smooth="yes"/>
			<point x="651" y="-20"/>
			<point x="682" y="-8"/>
			<point x="918" y="172" type="curve"/>
			<point x="903" y="218" type="line"/>
			<point x="826" y="192"/>
			<point x="727" y="173"/>
			<point x="639" y="173" type="curve" smooth="yes"/>
			<point x="478" y="173"/>
			<point x="418" y="225"/>
		</contour>
		<contour>
			<point x="969" y="-20" type="line"/>
			<point x="1007" y="-20" type="line"/>
			<point x="1276" y="106" type="line"/>
			<point x="1276" y="148" type="line"/>
			<point x="1234" y="168.7717391304"/>
			<point x="1116" y="227.1304347826"/>
			<point x="1092" y="239" type="curve"/>
			<point x="1092" y="878" type="line"/>
			<point x="1112" y="1034" type="line"/>
			<point x="718" y="1024" type="line"/>
			<point x="718" y="927" type="line"/>
			<point x="894" y="859" type="line"/>
			<point x="894" y="159" type="line"/>
		</contour>
	</outline>
	<anchor name="top" x="613" y="1024"/>
	<anchor name="right" x="1136" y="0"/>
	<anchor name="bottom" x="656" y="0"/>
	<anchor name="horn" x="1026" y="1024"/>
</glyph>
<glyph name="v" format="2">
	<unicode hex="0076"/>
	<advance width="1349"/>
	<outline>
		<contour>
			<point x="1169" y="897" type="line"/>
			<point x="1294" y="933" type="line"/>
			<point x="1294" y="1024" type="line"/>
			<point x="862" y="1024" type="line"/>
			<point x="862" y="933" type="line"/>
			<point x="1015" y="892" type="line"/>
			<point x="714" y="127" type="line"/>
			<point x="747" y="127" type="line"/>
			<point x="403" y="888" type="line"/>
			<point x="563" y="933" type="line"/>
			<point x="563" y="1024" type="line"/>
			<point x="20" y="1024" type="line"/>
			<point x="20" y="933" type="line"/>
			<point x="175" y="880" type="line"/>
			<point x="592" y="-20" type="line"/>
			<point x="782" y="-20" type="line"/>
		</contour>
	</outline>
	<anchor name="top" x="697" y="1024"/>
	<anchor name="bottom" x="685" y="0"/>
</glyph>
<glyph name="w" format="2">
	<unicode hex="0077"/>
	<advance width="1774"/>
	<outline>
		<contour>
			<point x="1458" y="892" type="line"/>
			<point x="1270" y="131" type="line"/>
			<point x="1325" y="131" type="line"/>
			<point x="1031" y="1044" type="line"/>
			<point x="844" y="1044" type="line"/>
			<point x="524" y="98" type="line"/>
			<point x="594" y="98" type="line"/>
			<point x="391" y="888" type="line"/>
			<point x="547" y="933" type="line"/>
			<point x="547" y="1024" type="line"/>
			<point x="30" y="1024" type="line"/>
			<point x="30" y="933" type="line"/>
			<point x="185" y="880" type="line"/>
			<point x="419" y="-20" type="line"/>
			<point x="610" y="-20" type="line"/>
			<point x="942" y="923" type="line"/>
			<point x="865" y="915" type="line"/>
			<point x="1169" y="-20" type="line"/>
			<point x="1360" y="-20" type="line"/>
			<point x="1599" y="897" type="line"/>
			<point x="1720" y="933" type="line"/>
			<point x="1720" y="1024" type="line"/>
			<point x="1302" y="1024" type="line"/>
			<point x="1302" y="933" type="line"/>
		</contour>
	</outline>
	<anchor name="top" x="923" y="1024"/>
	<anchor name="bottom" x="915" y="0"/>
</glyph>
<glyph name="x" format="2">
	<unicode hex="0078"/>
	<advance width="1258"/>
	<outline>
		<contour>
			<point x="1090" y="141" type="line"/>
			<point x="704" y="580" type="line"/>
			<point x="682" y="605" type="line"/>
			<point x="440" y="893" type="line"/>
			<point x="569" y="933" type="line"/>
			<point x="569" y="1024" type="line"/>
			<point x="60" y="1024" type="line"/>
			<point x="60" y="933" type="line"/>
			<point x="191" y="883" type="line"/>
			<point x="546" y="480" type="line"/>
			<point x="576" y="445" type="line"/>
			<point x="841" y="131" type="line"/>
			<point x="711" y="91" type="line"/>
			<point x="711" y="0" type="line"/>
			<point x="1221" y="0" type="line"/>
			<point x="1221" y="91" type="line"/>
		</contour>
		<contour>
			<point x="616" y="442" type="line"/>
			<point x="697" y="505" type="line"/>
			<point x="1065" y="898" type="line"/>
			<point x="1176" y="933" type="line"/>
			<point x="1176" y="1024" type="line"/>
			<point x="769" y="1024" type="line"/>
			<point x="769" y="933" type="line"/>
			<point x="900" y="901" type="line"/>
			<point x="613" y="584" type="line"/>
			<point x="532" y="521" type="line"/>
			<point x="164" y="128" type="line"/>
			<point x="52" y="91" type="line"/>
			<point x="52" y="0" type="line"/>
			<point x="459" y="0" type="line"/>
			<point x="459" y="91" type="line"/>
			<point x="330" y="125" type="line"/>
		</contour>
	</outline>
	<anchor name="top" x="636" y="1024"/>
	<anchor name="bottom" x="636" y="0"/>
</glyph>
<glyph name="y" format="2">
	<unicode hex="0079"/>
	<advance width="1294"/>
	<outline>
		<contour>
			<point x="778" y="137" type="line"/>
			<point x="413" y="888" type="line"/>
			<point x="573" y="933" type="line"/>
			<point x="573" y="1024" type="line"/>
			<point x="31" y="1024" type="line"/>
			<point x="31" y="933" type="line"/>
			<point x="186" y="880" type="line"/>
			<point x="631" y="-20" type="line"/>
		</contour>
		<contour>
			<point x="306" y="-465" type="curve" smooth="yes"/>
			<point x="481" y="-465"/>
			<point x="573" y="-381"/>
			<point x="659" y="-183" type="curve" smooth="yes"/>
			<point x="1126" y="897" type="line"/>
			<point x="1251" y="933" type="line"/>
			<point x="1251" y="1024" type="line"/>
			<point x="816" y="1024" type="line"/>
			<point x="816" y="933" type="line"/>
			<point x="969" y="892" type="line"/>
			<point x="667" y="120" type="line"/>
			<point x="650" y="87" type="line"/>
			<point x="610" y="2" type="line" smooth="yes"/>
			<point x="529" y="-171"/>
			<point x="468" y="-239"/>
			<point x="372" y="-239" type="curve" smooth="yes"/>
			<point x="318" y="-239"/>
			<point x="208" y="-214"/>
			<point x="182" y="-214" type="curve" smooth="yes"/>
			<point x="159" y="-214"/>
			<point x="123" y="-256"/>
			<point x="123" y="-315" type="curve" smooth="yes"/>
			<point x="123" y="-411"/>
			<point x="186" y="-465"/>
		</contour>
	</outline>
	<anchor name="top" x="671" y="1024"/>
	<anchor name="bottom" x="901" y="-128"/>
</glyph>
<glyph name="z" format="2">
	<unicode hex="007A"/>
	<advance width="1085"/>
	<outline>
		<contour>
			<point x="98" y="0" type="line"/>
			<point x="933" y="0" type="line"/>
			<point x="1016" y="363" type="line"/>
			<point x="911" y="363" type="line"/>
			<point x="719" y="38" type="line"/>
			<point x="831" y="136" type="line"/>
			<point x="276" y="136" type="line"/>
			<point x="312" y="48" type="line"/>
			<point x="977" y="955" type="line"/>
			<point x="977" y="1024" type="line"/>
			<point x="267" y="1024" type="line"/>
			<point x="229" y="1044" type="line"/>
			<point x="130" y="1044" type="line"/>
			<point x="100" y="698" type="line"/>
			<point x="204" y="698" type="line"/>
			<point x="354" y="994" type="line"/>
			<point x="178" y="888" type="line"/>
			<point x="812" y="888" type="line"/>
			<point x="758" y="973" type="line"/>
			<point x="98" y="69" type="line"/>
		</contour>
	</outline>
	<anchor name="top" x="557" y="1024"/>
	<anchor name="bottom" x="547" y="0"/>
</glyph>
<glyph name="braceleft" format="2">
	<unicode hex="007B"/>
	<advance width="775"/>
	<outline>
		<contour>
			<point x="76" y="563" type="line"/>
			<point x="150" y="562" type="line" smooth="yes"/>
			<point x="254" y="560"/>
			<point x="299" y="515"/>
			<point x="299" y="428" type="curve" smooth="yes"/>
			<point x="299" y="288"/>
			<point x="244" y="181"/>
			<point x="244" y="50" type="curve" smooth="yes"/>
			<point x="244" y="-82"/>
			<point x="330" y="-215"/>
			<point x="551" y="-232" type="curve" smooth="yes"/>
			<point x="684" y="-242" type="line"/>
			<point x="696" y="-131" type="line"/>
			<point x="615" y="-121" type="line" smooth="yes"/>
			<point x="494" y="-106"/>
			<point x="460" y="-34"/>
			<point x="460" y="66" type="curve" smooth="yes"/>
			<point x="460" y="168"/>
			<point x="487" y="281"/>
			<point x="487" y="393" type="curve" smooth="yes"/>
			<point x="487" y="533"/>
			<point x="412" y="615"/>
			<point x="229" y="643" type="curve"/>
			<point x="229" y="598" type="line"/>
			<point x="412" y="625"/>
			<point x="487" y="707"/>
			<point x="487" y="849" type="curve" smooth="yes"/>
			<point x="487" y="960"/>
			<point x="460" y="1074"/>
			<point x="460" y="1175" type="curve" smooth="yes"/>
			<point x="460" y="1276"/>
			<point x="494" y="1347"/>
			<point x="615" y="1362" type="curve" smooth="yes"/>
			<point x="696" y="1372" type="line"/>
			<point x="684" y="1484" type="line"/>
			<point x="551" y="1474" type="line" smooth="yes"/>
			<point x="330" y="1457"/>
			<point x="244" y="1322"/>
			<point x="244" y="1190" type="curve" smooth="yes"/>
			<point x="244" y="1061"/>
			<point x="299" y="954"/>
			<point x="299" y="814" type="curve" smooth="yes"/>
			<point x="299" y="726"/>
			<point x="254" y="681"/>
			<point x="150" y="679" type="curve" smooth="yes"/>
			<point x="76" y="677" type="line"/>
		</contour>
	</outline>
</glyph>
<glyph name="bar" format="2">
  <advance width="604"/>
  <unicode hex="007C"/>
  <outline>
    <contour>
      <point x="222.0" y="-465.0" type="line"/>
      <point x="382.0" y="-465.0" type="line"/>
      <point x="382.0" y="1535.0" type="line"/>
      <point x="222.0" y="1535.0" type="line"/>
    </contour>
  </outline>
</glyph>
<glyph name="braceright" format="2">
	<unicode hex="007D"/>
	<advance width="775"/>
	<outline>
		<contour>
			<point x="699" y="679" type="line"/>
			<point x="625" y="680" type="line" smooth="yes"/>
			<point x="521" y="682"/>
			<point x="476" y="727"/>
			<point x="476" y="814" type="curve" smooth="yes"/>
			<point x="476" y="954"/>
			<point x="531" y="1061"/>
			<point x="531" y="1192" type="curve" smooth="yes"/>
			<point x="531" y="1324"/>
			<point x="445" y="1457"/>
			<point x="224" y="1474" type="curve" smooth="yes"/>
			<point x="91" y="1484" type="line"/>
			<point x="79" y="1373" type="line"/>
			<point x="160" y="1363" type="line" smooth="yes"/>
			<point x="281" y="1348"/>
			<point x="315" y="1276"/>
			<point x="315" y="1176" type="curve" smooth="yes"/>
			<point x="315" y="1074"/>
			<point x="288" y="961"/>
			<point x="288" y="849" type="curve" smooth="yes"/>
			<point x="288" y="709"/>
			<point x="363" y="627"/>
			<point x="546" y="599" type="curve"/>
			<point x="546" y="644" type="line"/>
			<point x="363" y="617"/>
			<point x="288" y="535"/>
			<point x="288" y="393" type="curve" smooth="yes"/>
			<point x="288" y="282"/>
			<point x="315" y="168"/>
			<point x="315" y="67" type="curve" smooth="yes"/>
			<point x="315" y="-34"/>
			<point x="281" y="-105"/>
			<point x="160" y="-120" type="curve" smooth="yes"/>
			<point x="79" y="-130" type="line"/>
			<point x="91" y="-242" type="line"/>
			<point x="224" y="-232" type="line" smooth="yes"/>
			<point x="445" y="-215"/>
			<point x="531" y="-80"/>
			<point x="531" y="52" type="curve" smooth="yes"/>
			<point x="531" y="181"/>
			<point x="476" y="288"/>
			<point x="476" y="428" type="curve" smooth="yes"/>
			<point x="476" y="516"/>
			<point x="521" y="561"/>
			<point x="625" y="563" type="curve" smooth="yes"/>
			<point x="699" y="565" type="line"/>
		</contour>
	</outline>
</glyph>
<glyph name="asciitilde" format="2">
	<unicode hex="007E"/>
	<advance width="1140"/>
	<outline>
		<contour>
			<point x="136.5" y="366" type="curve"/>
			<point x="295.5" y="366" type="line"/>
			<point x="302.5" y="469"/>
			<point x="334.5" y="516"/>
			<point x="414.5" y="516" type="curve" smooth="yes"/>
			<point x="526.5" y="516"/>
			<point x="581.5" y="355"/>
			<point x="763.5" y="355" type="curve" smooth="yes"/>
			<point x="907.5" y="355"/>
			<point x="1002.5" y="442"/>
			<point x="1005.5" y="667" type="curve"/>
			<point x="846.5" y="667" type="line"/>
			<point x="839.5" y="563"/>
			<point x="807.5" y="517"/>
			<point x="727.5" y="517" type="curve" smooth="yes"/>
			<point x="615.5" y="517"/>
			<point x="560.5" y="677"/>
			<point x="378.5" y="677" type="curve" smooth="yes"/>
			<point x="234.5" y="677"/>
			<point x="139.5" y="591"/>
		</contour>
	</outline>
</glyph>
<glyph name="exclamdown" format="2">
	<unicode hex="00A1"/>
	<advance width="620"/>
	<outline>
		<contour>
			<point x="189" y="-360" type="line" smooth="yes"/>
			<point x="189" y="-392"/>
			<point x="214" y="-409"/>
			<point x="310" y="-409" type="curve" smooth="yes"/>
			<point x="406" y="-409"/>
			<point x="431" y="-392"/>
			<point x="431" y="-360" type="curve" smooth="yes"/>
			<point x="431" y="-287" type="line" smooth="yes"/>
			<point x="431" y="-248"/>
			<point x="383" y="487"/>
			<point x="372" y="589" type="curve"/>
			<point x="248" y="589" type="line"/>
			<point x="238" y="487"/>
			<point x="189" y="-248"/>
			<point x="189" y="-287" type="curve" smooth="yes"/>
		</contour>
		<contour>
			<point x="310" y="730" type="curve" smooth="yes"/>
			<point x="405" y="730"/>
			<point x="467" y="784"/>
			<point x="467" y="884" type="curve" smooth="yes"/>
			<point x="467" y="984"/>
			<point x="405" y="1038"/>
			<point x="310" y="1038" type="curve" smooth="yes"/>
			<point x="215" y="1038"/>
			<point x="153" y="984"/>
			<point x="153" y="884" type="curve" smooth="yes"/>
			<point x="153" y="784"/>
			<point x="215" y="730"/>
		</contour>
	</outline>
</glyph>
<glyph name="currency" format="2">
	<unicode hex="00A4"/>
	<advance width="1134"/>
	<outline>
		<contour>
			<point x="262.5" y="927" type="line"/>
			<point x="155.5" y="821" type="line"/>
			<point x="308.5" y="668" type="line"/>
			<point x="415.5" y="774" type="line"/>
		</contour>
		<contour>
			<point x="155.5" y="211" type="line"/>
			<point x="262.5" y="105" type="line"/>
			<point x="422.5" y="265" type="line"/>
			<point x="316.5" y="372" type="line"/>
		</contour>
		<contour>
			<point x="567.5" y="860" type="curve" smooth="yes"/>
			<point x="359.5" y="860"/>
			<point x="218.5" y="722"/>
			<point x="218.5" y="517" type="curve" smooth="yes"/>
			<point x="218.5" y="311"/>
			<point x="359.5" y="173"/>
			<point x="567.5" y="173" type="curve" smooth="yes"/>
			<point x="774.5" y="173"/>
			<point x="915.5" y="311"/>
			<point x="915.5" y="517" type="curve" smooth="yes"/>
			<point x="915.5" y="722"/>
			<point x="774.5" y="860"/>
		</contour>
		<contour>
			<point x="567.5" y="304" type="curve" smooth="yes"/>
			<point x="442.5" y="304"/>
			<point x="356.5" y="389"/>
			<point x="356.5" y="517" type="curve" smooth="yes"/>
			<point x="356.5" y="644"/>
			<point x="442.5" y="729"/>
			<point x="567.5" y="729" type="curve" smooth="yes"/>
			<point x="691.5" y="729"/>
			<point x="777.5" y="644"/>
			<point x="777.5" y="517" type="curve" smooth="yes"/>
			<point x="777.5" y="389"/>
			<point x="691.5" y="304"/>
		</contour>
		<contour>
			<point x="978.5" y="821" type="line"/>
			<point x="871.5" y="927" type="line"/>
			<point x="715.5" y="771" type="line"/>
			<point x="821.5" y="665" type="line"/>
		</contour>
		<contour>
			<point x="978.5" y="211" type="line"/>
			<point x="825.5" y="364" type="line"/>
			<point x="718.5" y="258" type="line"/>
			<point x="871.5" y="105" type="line"/>
		</contour>
	</outline>
</glyph>
<glyph name="brokenbar" format="2">
	<unicode hex="00A6"/>
	<advance width="604"/>
	<outline>
		<contour>
			<point x="382" y="775" type="line"/>
			<point x="382" y="1535" type="line"/>
			<point x="222" y="1535" type="line"/>
			<point x="222" y="775" type="line"/>
		</contour>
		<contour>
			<point x="222" y="-465" type="line"/>
			<point x="382" y="-465" type="line"/>
			<point x="382" y="295" type="line"/>
			<point x="222" y="295" type="line"/>
		</contour>
	</outline>
</glyph>
<glyph name="section" format="2">
	<unicode hex="00A7"/>
	<advance width="1286"/>
	<outline>
		<contour>
			<point x="576" y="-243" type="curve" smooth="yes"/>
			<point x="938" y="-243"/>
			<point x="1073" y="-106"/>
			<point x="1073" y="71" type="curve" smooth="yes"/>
			<point x="1073" y="529"/>
			<point x="300" y="273"/>
			<point x="300" y="598" type="curve" smooth="yes"/>
			<point x="300" y="725"/>
			<point x="404" y="817"/>
			<point x="647" y="820" type="curve"/>
			<point x="566" y="866" type="line"/>
			<point x="253" y="865"/>
			<point x="104" y="746"/>
			<point x="104" y="535" type="curve" smooth="yes"/>
			<point x="104" y="105"/>
			<point x="879" y="315"/>
			<point x="879" y="33" type="curve" smooth="yes"/>
			<point x="879" y="-59"/>
			<point x="799" y="-111"/>
			<point x="615" y="-111" type="curve" smooth="yes"/>
			<point x="444" y="-111"/>
			<point x="345" y="42"/>
			<point x="319" y="42" type="curve" smooth="yes"/>
			<point x="251" y="42"/>
			<point x="185" y="-6"/>
			<point x="185" y="-70" type="curve" smooth="yes"/>
			<point x="185" y="-177"/>
			<point x="269" y="-243"/>
		</contour>
		<contour>
			<point x="986" y="593" type="curve" smooth="yes"/>
			<point x="986" y="466"/>
			<point x="883" y="374"/>
			<point x="640" y="371" type="curve"/>
			<point x="720" y="325" type="line"/>
			<point x="1033" y="326"/>
			<point x="1182" y="445"/>
			<point x="1182" y="656" type="curve" smooth="yes"/>
			<point x="1182" y="1086"/>
			<point x="408" y="876"/>
			<point x="408" y="1158" type="curve" smooth="yes"/>
			<point x="408" y="1250"/>
			<point x="487" y="1302"/>
			<point x="671" y="1302" type="curve" smooth="yes"/>
			<point x="843" y="1302"/>
			<point x="941" y="1149"/>
			<point x="967" y="1149" type="curve" smooth="yes"/>
			<point x="1036" y="1149"/>
			<point x="1101" y="1197"/>
			<point x="1101" y="1261" type="curve" smooth="yes"/>
			<point x="1101" y="1368"/>
			<point x="1017" y="1434"/>
			<point x="710" y="1434" type="curve" smooth="yes"/>
			<point x="348" y="1434"/>
			<point x="213" y="1297"/>
			<point x="213" y="1120" type="curve" smooth="yes"/>
			<point x="213" y="662"/>
			<point x="986" y="918"/>
		</contour>
	</outline>
</glyph>
<glyph name="copyright" format="2">
	<unicode hex="00A9"/>
	<advance width="1726"/>
	<outline>
		<contour>
			<point x="863" y="1434" type="curve"/>
			<point x="406" y="1434"/>
			<point x="129" y="1169"/>
			<point x="129" y="707" type="curve"/>
			<point x="129" y="245"/>
			<point x="406" y="-20"/>
			<point x="863" y="-20" type="curve"/>
			<point x="1320" y="-20"/>
			<point x="1598" y="245"/>
			<point x="1598" y="707" type="curve"/>
			<point x="1598" y="1169"/>
			<point x="1320" y="1434"/>
		</contour>
		<contour>
			<point x="863" y="1319" type="curve"/>
			<point x="1248" y="1319"/>
			<point x="1473" y="1105"/>
			<point x="1473" y="707" type="curve"/>
			<point x="1473" y="309"/>
			<point x="1248" y="95"/>
			<point x="863" y="95" type="curve"/>
			<point x="479" y="95"/>
			<point x="254" y="309"/>
			<point x="254" y="707" type="curve"/>
			<point x="254" y="1105"/>
			<point x="479" y="1319"/>
		</contour>
		<contour>
			<point x="940" y="405" type="curve" smooth="yes"/>
			<point x="742" y="405"/>
			<point x="627" y="494"/>
			<point x="627" y="704" type="curve" smooth="yes"/>
			<point x="627" y="926"/>
			<point x="734" y="1014"/>
			<point x="915" y="1014" type="curve" smooth="yes"/>
			<point x="1008" y="1014"/>
			<point x="1070" y="998"/>
			<point x="1140" y="958" type="curve"/>
			<point x="1080" y="1052" type="line"/>
			<point x="1126" y="844" type="line"/>
			<point x="1200" y="844" type="line"/>
			<point x="1200" y="1140" type="line"/>
			<point x="1140" y="1140" type="line"/>
			<point x="1097" y="1066" type="line"/>
			<point x="1155" y="1081" type="line"/>
			<point x="1084" y="1108"/>
			<point x="1001" y="1123"/>
			<point x="908" y="1123" type="curve" smooth="yes"/>
			<point x="620" y="1123"/>
			<point x="456" y="963"/>
			<point x="456" y="704" type="curve" smooth="yes"/>
			<point x="456" y="427"/>
			<point x="613" y="301"/>
			<point x="912" y="301" type="curve" smooth="yes"/>
			<point x="1008" y="301"/>
			<point x="1096" y="317"/>
			<point x="1173" y="344" type="curve"/>
			<point x="1206" y="563" type="line"/>
			<point x="1137" y="563" type="line"/>
			<point x="1057" y="354" type="line"/>
			<point x="1128" y="442" type="line"/>
			<point x="1072" y="416"/>
			<point x="995" y="405"/>
		</contour>
	</outline>
</glyph>
<glyph name="ordfeminine" format="2">
  <advance width="1001.0"/>
  <unicode hex="00AA"/>
  <outline>
    <contour>
      <point x="158.0" y="510.0" type="line"/>
      <point x="849.0" y="510.0" type="line"/>
      <point x="849.0" y="647.0" type="line"/>
      <point x="158.0" y="647.0" type="line"/>
    </contour>
    <contour>
      <point x="621.0" y="1093.0" type="curve"/>
      <point x="621.0" y="1197.0" type="line"/>
      <point x="232.0" y="1130.0"/>
      <point x="161.0" y="1072.0"/>
      <point x="161.0" y="943.0" type="curve" smooth="yes"/>
      <point x="161.0" y="826.0"/>
      <point x="234.0" y="768.0"/>
      <point x="383.0" y="768.0" type="curve" smooth="yes"/>
      <point x="513.0" y="768.0"/>
      <point x="590.0" y="821.0"/>
      <point x="620.0" y="963.0" type="curve"/>
      <point x="605.0" y="963.0" type="line"/>
      <point x="604.0" y="820.0"/>
      <point x="636.0" y="773.0"/>
      <point x="726.0" y="773.0" type="curve" smooth="yes"/>
      <point x="777.0" y="773.0"/>
      <point x="823.0" y="784.0"/>
      <point x="874.0" y="806.0" type="curve"/>
      <point x="874.0" y="890.0" type="line"/>
      <point x="847.0" y="881.0"/>
      <point x="833.0" y="879.0"/>
      <point x="816.0" y="879.0" type="curve" smooth="yes"/>
      <point x="773.0" y="879.0"/>
      <point x="760.0" y="893.0"/>
      <point x="760.0" y="959.0" type="curve" smooth="yes"/>
      <point x="760.0" y="1209.0" type="line" smooth="yes"/>
      <point x="760.0" y="1367.0"/>
      <point x="703.0" y="1435.0"/>
      <point x="516.0" y="1435.0" type="curve" smooth="yes"/>
      <point x="340.0" y="1435.0"/>
      <point x="170.0" y="1339.0"/>
      <point x="170.0" y="1263.0" type="curve" smooth="yes"/>
      <point x="170.0" y="1235.0"/>
      <point x="194.0" y="1218.0"/>
      <point x="244.0" y="1218.0" type="curve" smooth="yes"/>
      <point x="295.0" y="1218.0"/>
      <point x="314.0" y="1231.0"/>
      <point x="331.0" y="1257.0" type="curve" smooth="yes"/>
      <point x="348.0" y="1283.0"/>
      <point x="359.0" y="1321.0"/>
      <point x="372.0" y="1374.0" type="curve"/>
      <point x="302.0" y="1314.0" type="line"/>
      <point x="359.0" y="1331.0"/>
      <point x="399.0" y="1338.0"/>
      <point x="449.0" y="1338.0" type="curve" smooth="yes"/>
      <point x="562.0" y="1338.0"/>
      <point x="600.0" y="1295.0"/>
      <point x="600.0" y="1203.0" type="curve" smooth="yes"/>
      <point x="600.0" y="996.0" type="line" smooth="yes"/>
      <point x="600.0" y="925.0"/>
      <point x="542.0" y="875.0"/>
      <point x="446.0" y="875.0" type="curve" smooth="yes"/>
      <point x="354.0" y="875.0"/>
      <point x="322.0" y="901.0"/>
      <point x="322.0" y="957.0" type="curve" smooth="yes"/>
      <point x="322.0" y="1026.0"/>
      <point x="369.0" y="1056.0"/>
    </contour>
  </outline>
</glyph>
<glyph name="guillemotleft" format="2">
	<unicode hex="00AB"/>
	<advance width="1235"/>
	<outline>
		<contour>
			<point x="308" y="555" type="line"/>
			<point x="308" y="489" type="line"/>
			<point x="617" y="896" type="line"/>
			<point x="525" y="983" type="line"/>
			<point x="102" y="588" type="line"/>
			<point x="102" y="456" type="line"/>
			<point x="525" y="61" type="line"/>
			<point x="617" y="148" type="line"/>
		</contour>
		<contour>
			<point x="818" y="555" type="line"/>
			<point x="818" y="489" type="line"/>
			<point x="1127" y="896" type="line"/>
			<point x="1035" y="983" type="line"/>
			<point x="612" y="588" type="line"/>
			<point x="612" y="456" type="line"/>
			<point x="1035" y="61" type="line"/>
			<point x="1127" y="148" type="line"/>
		</contour>
	</outline>
</glyph>
<glyph name="logicalnot" format="2">
	<unicode hex="00AC"/>
	<advance width="1140"/>
	<outline>
		<contour>
			<point x="121.5" y="790" type="line"/>
			<point x="121.5" y="631" type="line"/>
			<point x="1002.5" y="631" type="line"/>
			<point x="1002.5" y="790" type="line"/>
		</contour>
		<contour>
			<point x="1002.5" y="727" type="line"/>
			<point x="843.5" y="727" type="line"/>
			<point x="843.5" y="235" type="line"/>
			<point x="1002.5" y="235" type="line"/>
		</contour>
	</outline>
</glyph>
<glyph name="registered" format="2">
	<unicode hex="00AE"/>
	<advance width="1163"/>
	<outline>
		<contour>
			<point x="579" y="1434" type="curve" smooth="yes"/>
			<point x="290" y="1434"/>
			<point x="127" y="1280"/>
			<point x="127" y="1007" type="curve" smooth="yes"/>
			<point x="127" y="734"/>
			<point x="290" y="580"/>
			<point x="579" y="580" type="curve" smooth="yes"/>
			<point x="872" y="580"/>
			<point x="1036" y="734"/>
			<point x="1036" y="1007" type="curve" smooth="yes"/>
			<point x="1036" y="1280"/>
			<point x="872" y="1434"/>
		</contour>
		<contour>
			<point x="579" y="1350" type="curve" smooth="yes"/>
			<point x="829" y="1350"/>
			<point x="942" y="1228.7672413793"/>
			<point x="942" y="1007" type="curve" smooth="yes"/>
			<point x="942" y="785.242074928"/>
			<point x="829" y="665"/>
			<point x="579" y="665" type="curve" smooth="yes"/>
			<point x="331" y="665"/>
			<point x="222" y="785.242074928"/>
			<point x="222" y="1007" type="curve" smooth="yes"/>
			<point x="222" y="1228.7672413793"/>
			<point x="331" y="1350"/>
		</contour>
		<contour>
			<point x="470" y="1042" type="line"/>
			<point x="476" y="987" type="line"/>
			<point x="590" y="987" type="line" smooth="yes"/>
			<point x="633" y="987"/>
			<point x="644" y="981"/>
			<point x="651" y="941" type="curve" smooth="yes"/>
			<point x="662" y="871" type="line" smooth="yes"/>
			<point x="671" y="812"/>
			<point x="703" y="798"/>
			<point x="829" y="809" type="curve"/>
			<point x="829" y="857" type="line"/>
			<point x="791" y="857"/>
			<point x="783" y="862"/>
			<point x="779" y="896" type="curve" smooth="yes"/>
			<point x="772" y="944" type="line" smooth="yes"/>
			<point x="766" y="991"/>
			<point x="746" y="1012"/>
			<point x="683" y="1016" type="curve"/>
			<point x="680" y="1014" type="line"/>
			<point x="760" y="1021"/>
			<point x="794" y="1059"/>
			<point x="794" y="1123" type="curve" smooth="yes"/>
			<point x="794" y="1196"/>
			<point x="749" y="1231"/>
			<point x="639" y="1231" type="curve" smooth="yes"/>
			<point x="465" y="1231" type="line"/>
			<point x="470" y="1161" type="line"/>
			<point x="604" y="1161" type="line" smooth="yes"/>
			<point x="663" y="1161"/>
			<point x="679" y="1144"/>
			<point x="679" y="1103" type="curve" smooth="yes"/>
			<point x="679" y="1061"/>
			<point x="657" y="1042"/>
			<point x="609" y="1042" type="curve" smooth="yes"/>
		</contour>
		<contour>
			<point x="418" y="1183" type="line"/>
			<point x="418" y="857" type="line"/>
			<point x="362" y="846" type="line"/>
			<point x="362" y="809" type="line"/>
			<point x="586" y="809" type="line"/>
			<point x="586" y="846" type="line"/>
			<point x="536" y="857" type="line"/>
			<point x="536" y="1231" type="line"/>
			<point x="362" y="1231" type="line"/>
			<point x="362" y="1193" type="line"/>
		</contour>
	</outline>
</glyph>
<glyph name="degree" format="2">
  <advance width="801.0"/>
  <unicode hex="00B0"/>
  <outline>
    <contour>
      <point x="400.0" y="1434.0" type="curve" smooth="yes"/>
      <point x="228.0" y="1434.0"/>
      <point x="104.0" y="1313.0"/>
      <point x="104.0" y="1140.0" type="curve" smooth="yes"/>
      <point x="104.0" y="967.0"/>
      <point x="228.0" y="846.0"/>
      <point x="400.0" y="846.0" type="curve" smooth="yes"/>
      <point x="573.0" y="846.0"/>
      <point x="697.0" y="967.0"/>
      <point x="697.0" y="1140.0" type="curve" smooth="yes"/>
      <point x="697.0" y="1313.0"/>
      <point x="573.0" y="1434.0"/>
    </contour>
    <contour>
      <point x="400.0" y="967.0" type="curve" smooth="yes"/>
      <point x="302.0" y="967.0"/>
      <point x="231.0" y="1036.0"/>
      <point x="231.0" y="1140.0" type="curve" smooth="yes"/>
      <point x="231.0" y="1244.0"/>
      <point x="302.0" y="1313.0"/>
      <point x="400.0" y="1313.0" type="curve" smooth="yes"/>
      <point x="499.0" y="1313.0"/>
      <point x="569.0" y="1244.0"/>
      <point x="569.0" y="1140.0" type="curve" smooth="yes"/>
      <point x="569.0" y="1036.0"/>
      <point x="499.0" y="967.0"/>
    </contour>
  </outline>
</glyph>
<glyph name="plusminus" format="2">
	<unicode hex="00B1"/>
	<advance width="1140"/>
	<outline>
		<contour>
			<point x="491" y="1033" type="line"/>
			<point x="491" y="166" type="line"/>
			<point x="650" y="166" type="line"/>
			<point x="650" y="1033" type="line"/>
		</contour>
		<contour>
			<point x="137" y="679" type="line"/>
			<point x="137" y="520" type="line"/>
			<point x="1004" y="520" type="line"/>
			<point x="1004" y="679" type="line"/>
		</contour>
		<contour>
			<point x="137" y="159" type="line"/>
			<point x="137" y="0" type="line"/>
			<point x="1004" y="0" type="line"/>
			<point x="1004" y="159" type="line"/>
		</contour>
	</outline>
</glyph>
<glyph name="uni00B2" format="2">
	<unicode hex="00B2"/>
	<advance width="817"/>
	<outline>
		<contour>
			<point x="552" y="725" type="line"/>
			<point x="686" y="810" type="line"/>
			<point x="226" y="810" type="line"/>
			<point x="233" y="750" type="line"/>
			<point x="419" y="895" type="line" smooth="yes"/>
			<point x="622" y="1053"/>
			<point x="674" y="1108"/>
			<point x="674" y="1219" type="curve" smooth="yes"/>
			<point x="674" y="1354"/>
			<point x="569" y="1428"/>
			<point x="400" y="1428" type="curve" smooth="yes"/>
			<point x="216" y="1428"/>
			<point x="121.7605976835" y="1345.6546350521"/>
			<point x="70" y="1165" type="curve"/>
			<point x="160" y="1136" type="line"/>
			<point x="198" y="1244"/>
			<point x="248" y="1294"/>
			<point x="349" y="1294" type="curve" smooth="yes"/>
			<point x="444" y="1294"/>
			<point x="488" y="1248"/>
			<point x="488" y="1181" type="curve" smooth="yes"/>
			<point x="488" y="1109"/>
			<point x="448" y="1061"/>
			<point x="313" y="941" type="curve" smooth="yes"/>
			<point x="119" y="768" type="line"/>
			<point x="119" y="662" type="line"/>
			<point x="590" y="662" type="line"/>
			<point x="615" y="624" type="line"/>
			<point x="685" y="624" type="line"/>
			<point x="740" y="913" type="line"/>
			<point x="648" y="913" type="line"/>
		</contour>
	</outline>
</glyph>
<glyph name="uni00B3" format="2">
	<unicode hex="00B3"/>
	<advance width="774"/>
	<outline>
		<contour>
			<point x="308" y="652" type="curve" smooth="yes"/>
			<point x="570" y="652"/>
			<point x="687" y="752"/>
			<point x="687" y="913" type="curve" smooth="yes"/>
			<point x="687" y="1043"/>
			<point x="588" y="1107"/>
			<point x="417" y="1095" type="curve"/>
			<point x="423" y="1088" type="line"/>
			<point x="566" y="1104"/>
			<point x="636" y="1172"/>
			<point x="636" y="1265" type="curve" smooth="yes"/>
			<point x="636" y="1367"/>
			<point x="559" y="1428"/>
			<point x="397" y="1428" type="curve" smooth="yes"/>
			<point x="226" y="1428"/>
			<point x="139" y="1358"/>
			<point x="87" y="1215" type="curve"/>
			<point x="169" y="1177" type="line"/>
			<point x="206" y="1261"/>
			<point x="257" y="1303"/>
			<point x="345" y="1303" type="curve" smooth="yes"/>
			<point x="422" y="1303"/>
			<point x="459" y="1265"/>
			<point x="459" y="1209" type="curve" smooth="yes"/>
			<point x="459" y="1136"/>
			<point x="426" y="1099"/>
			<point x="271" y="1079" type="curve"/>
			<point x="281" y="989" type="line"/>
			<point x="324" y="993" type="line" smooth="yes"/>
			<point x="474" y="1007"/>
			<point x="510" y="967"/>
			<point x="510" y="891" type="curve" smooth="yes"/>
			<point x="510" y="792"/>
			<point x="443" y="755"/>
			<point x="328" y="755" type="curve" smooth="yes"/>
			<point x="221" y="755"/>
			<point x="179" y="837"/>
			<point x="166" y="837" type="curve" smooth="yes"/>
			<point x="120" y="837"/>
			<point x="87" y="806"/>
			<point x="87" y="760" type="curve" smooth="yes"/>
			<point x="87" y="697"/>
			<point x="141" y="652"/>
		</contour>
	</outline>
</glyph>
<glyph name="uni00B5" format="2">
  <advance width="1364"/>
  <unicode hex="00B5"/>
  <outline>
    <contour>
      <point x="220.0" y="1024.0" type="line"/>
      <point x="220.0" y="-457.0" type="line"/>
      <point x="259.0" y="-457.0" type="line"/>
      <point x="459.0" y="-439.0" type="line"/>
      <point x="351.0" y="182.0" type="line"/>
      <point x="325.0" y="144.0" type="line"/>
      <point x="375.0" y="52.0"/>
      <point x="430.0" y="-20.0"/>
      <point x="551.0" y="-20.0" type="curve" smooth="yes"/>
      <point x="651.0" y="-20.0"/>
      <point x="682.0" y="-8.0"/>
      <point x="918.0" y="172.0" type="curve"/>
      <point x="903.0" y="218.0" type="line"/>
      <point x="826.0" y="192.0"/>
      <point x="727.0" y="173.0"/>
      <point x="639.0" y="173.0" type="curve" smooth="yes"/>
      <point x="478.0" y="173.0"/>
      <point x="418.0" y="225.0"/>
      <point x="418.0" y="354.0" type="curve" smooth="yes"/>
      <point x="418.0" y="1024.0" type="line"/>
    </contour>
    <contour>
      <point x="1092.0" y="262.0" type="curve" smooth="yes"/>
      <point x="1092.0" y="1024.0" type="line"/>
      <point x="894.0" y="1024.0" type="line"/>
      <point x="894.0" y="250.0" type="line" smooth="yes"/>
      <point x="894.0" y="78.0"/>
      <point x="974.0" y="-15.0"/>
      <point x="1098.0" y="-15.0" type="curve" smooth="yes"/>
      <point x="1166.0" y="-15.0"/>
      <point x="1245.0" y="14.0"/>
      <point x="1309.0" y="74.0" type="curve"/>
      <point x="1309.0" y="164.0" type="line"/>
      <point x="1271.0" y="156.0"/>
      <point x="1236.0" y="151.0"/>
      <point x="1206.0" y="151.0" type="curve" smooth="yes"/>
      <point x="1132.0" y="151.0"/>
      <point x="1092.0" y="182.0"/>
    </contour>
  </outline>
</glyph>
<glyph name="paragraph" format="2">
	<unicode hex="00B6"/>
	<advance width="1376"/>
	<outline>
		<contour>
			<point x="708" y="1414" type="line"/>
			<point x="477" y="1414" type="line" smooth="yes"/>
			<point x="176" y="1414"/>
			<point x="63" y="1298"/>
			<point x="63" y="1077" type="curve" smooth="yes"/>
			<point x="63" y="851"/>
			<point x="185" y="737"/>
			<point x="433" y="737" type="curve" smooth="yes"/>
			<point x="708" y="737" type="line"/>
		</contour>
		<contour>
			<point x="766" y="-222" type="line"/>
			<point x="766" y="1298" type="line"/>
			<point x="1009" y="1298" type="line"/>
			<point x="1009" y="1414" type="line"/>
			<point x="635" y="1414" type="line"/>
			<point x="635" y="-222" type="line"/>
		</contour>
		<contour>
			<point x="1085" y="-222" type="line"/>
			<point x="1085" y="1297" type="line"/>
			<point x="1290" y="1323" type="line"/>
			<point x="1290" y="1414" type="line"/>
			<point x="954" y="1414" type="line"/>
			<point x="954" y="-222" type="line"/>
		</contour>
	</outline>
</glyph>
<glyph name="uni00B9" format="2">
	<unicode hex="00B9"/>
	<advance width="693"/>
	<outline>
		<contour>
			<point x="298" y="772" type="line"/>
			<point x="135" y="742" type="line"/>
			<point x="135" y="662" type="line"/>
			<point x="625" y="662" type="line"/>
			<point x="625" y="742" type="line"/>
			<point x="475" y="772" type="line"/>
			<point x="475" y="1414" type="line"/>
			<point x="341" y="1414" type="line"/>
			<point x="55" y="1262" type="line"/>
			<point x="94" y="1175" type="line"/>
			<point x="344" y="1276" type="line"/>
			<point x="298" y="1348" type="line"/>
		</contour>
	</outline>
</glyph>
<glyph name="ordmasculine" format="2">
	<unicode hex="00BA"/>
	<advance width="1021"/>
	<outline>
		<contour>
			<point x="165" y="510" type="line"/>
			<point x="856" y="510" type="line"/>
			<point x="856" y="647" type="line"/>
			<point x="165" y="647" type="line"/>
		</contour>
		<contour>
			<point x="505" y="893" type="curve" smooth="yes"/>
			<point x="377" y="893"/>
			<point x="311" y="965"/>
			<point x="311" y="1102" type="curve" smooth="yes"/>
			<point x="311" y="1238"/>
			<point x="381" y="1309"/>
			<point x="516" y="1309" type="curve" smooth="yes"/>
			<point x="644" y="1309"/>
			<point x="710" y="1237"/>
			<point x="710" y="1100" type="curve" smooth="yes"/>
			<point x="710" y="964"/>
			<point x="640" y="893"/>
		</contour>
		<contour>
			<point x="504" y="768" type="curve" smooth="yes"/>
			<point x="740" y="768"/>
			<point x="870" y="880"/>
			<point x="870" y="1102" type="curve" smooth="yes"/>
			<point x="870" y="1317"/>
			<point x="737" y="1434"/>
			<point x="517" y="1434" type="curve" smooth="yes"/>
			<point x="281" y="1434"/>
			<point x="151" y="1322"/>
			<point x="151" y="1100" type="curve" smooth="yes"/>
			<point x="151" y="885"/>
			<point x="284" y="768"/>
		</contour>
	</outline>
</glyph>
<glyph name="guillemotright" format="2">
	<unicode hex="00BB"/>
	<advance width="1258"/>
	<outline>
		<contour>
			<point x="425" y="489" type="line"/>
			<point x="425" y="555" type="line"/>
			<point x="116" y="148" type="line"/>
			<point x="208" y="61" type="line"/>
			<point x="631" y="456" type="line"/>
			<point x="631" y="588" type="line"/>
			<point x="208" y="983" type="line"/>
			<point x="116" y="896" type="line"/>
		</contour>
		<contour>
			<point x="935" y="489" type="line"/>
			<point x="935" y="555" type="line"/>
			<point x="626" y="148" type="line"/>
			<point x="718" y="61" type="line"/>
			<point x="1141" y="456" type="line"/>
			<point x="1141" y="588" type="line"/>
			<point x="718" y="983" type="line"/>
			<point x="626" y="896" type="line"/>
		</contour>
	</outline>
</glyph>
<glyph name="questiondown" format="2">
	<unicode hex="00BF"/>
	<advance width="1170"/>
	<outline>
		<contour>
			<point x="642" y="-410" type="curve" smooth="yes"/>
			<point x="1014" y="-410"/>
			<point x="1114" y="-309"/>
			<point x="1114" y="-220" type="curve" smooth="yes"/>
			<point x="1114" y="-149"/>
			<point x="1063" y="-107"/>
			<point x="986" y="-107" type="curve" smooth="yes"/>
			<point x="920" y="-107"/>
			<point x="858" y="-266"/>
			<point x="626" y="-266" type="curve" smooth="yes"/>
			<point x="399" y="-266"/>
			<point x="302" y="-151"/>
			<point x="302" y="-11" type="curve" smooth="yes"/>
			<point x="302" y="150"/>
			<point x="398" y="220"/>
			<point x="728" y="222" type="curve"/>
			<point x="695" y="589" type="line"/>
			<point x="566" y="589" type="line"/>
			<point x="543" y="295" type="line"/>
			<point x="603" y="380" type="line"/>
			<point x="215" y="372"/>
			<point x="82" y="225"/>
			<point x="82" y="-14" type="curve" smooth="yes"/>
			<point x="82" y="-241"/>
			<point x="289" y="-410"/>
		</contour>
		<contour>
			<point x="631" y="730" type="curve" smooth="yes"/>
			<point x="726" y="730"/>
			<point x="788" y="784"/>
			<point x="788" y="884" type="curve" smooth="yes"/>
			<point x="788" y="984"/>
			<point x="726" y="1038"/>
			<point x="631" y="1038" type="curve" smooth="yes"/>
			<point x="536" y="1038"/>
			<point x="474" y="984"/>
			<point x="474" y="884" type="curve" smooth="yes"/>
			<point x="474" y="784"/>
			<point x="536" y="730"/>
		</contour>
	</outline>
</glyph>
<glyph name="AE" format="2">
	<unicode hex="00C6"/>
	<advance width="2336"/>
	<outline>
		<contour>
			<point x="545" y="489" type="line"/>
			<point x="1233" y="489" type="line"/>
			<point x="1233" y="645" type="line"/>
			<point x="545" y="645" type="line"/>
		</contour>
		<contour>
			<point x="1081" y="1414" type="line"/>
			<point x="173" y="151" type="line"/>
			<point x="5" y="106" type="line"/>
			<point x="5" y="0" type="line"/>
			<point x="552" y="0" type="line"/>
			<point x="552" y="106" type="line"/>
			<point x="366" y="151" type="line"/>
			<point x="1216" y="1336" type="line"/>
			<point x="1216" y="1414" type="line"/>
		</contour>
		<contour>
			<point x="757" y="1308" type="line"/>
			<point x="1054" y="1240" type="line"/>
			<point x="1108" y="1414" type="line"/>
			<point x="757" y="1414" type="line"/>
		</contour>
		<contour>
			<point x="1889" y="990" type="line"/>
			<point x="1758" y="990" type="line"/>
			<point x="1741" y="815" type="line"/>
			<point x="1246" y="815" type="line"/>
			<point x="1246" y="659" type="line"/>
			<point x="1741" y="659" type="line"/>
			<point x="1758" y="480" type="line"/>
			<point x="1889" y="480" type="line"/>
			<point x="1889" y="735" type="line"/>
		</contour>
		<contour>
			<point x="2193" y="1042" type="line"/>
			<point x="2193" y="1484" type="line"/>
			<point x="2082" y="1484" type="line"/>
			<point x="2005" y="1414" type="line"/>
			<point x="1246" y="1414" type="line"/>
			<point x="1246" y="1258" type="line"/>
			<point x="2051" y="1258" type="line"/>
			<point x="1972" y="1342" type="line"/>
			<point x="2053" y="1042" type="line"/>
		</contour>
		<contour>
			<point x="1961" y="72" type="line"/>
			<point x="2029" y="156" type="line"/>
			<point x="1246" y="156" type="line"/>
			<point x="1246" y="0" type="line"/>
			<point x="2001" y="0" type="line"/>
			<point x="2043" y="-72" type="line"/>
			<point x="2170" y="-72" type="line"/>
			<point x="2246" y="432" type="line"/>
			<point x="2112" y="432" type="line"/>
		</contour>
		<contour>
			<point x="957" y="0" type="line"/>
			<point x="1371" y="0" type="line"/>
			<point x="1371" y="1414" type="line"/>
			<point x="1153" y="1414" type="line"/>
			<point x="1153" y="151" type="line"/>
			<point x="957" y="106" type="line"/>
		</contour>
	</outline>
	<anchor name="UCtop" x="1263" y="1414"/>
	<anchor name="bottom" x="1263" y="0"/>
</glyph>
<glyph name="Ccedilla" format="2">
	<unicode hex="00C7"/>
	<advance width="1553"/>
	<outline>
		<contour>
			<point x="931" y="141" type="curve" smooth="yes"/>
			<point x="568" y="141"/>
			<point x="334" y="342"/>
			<point x="348" y="743" type="curve" smooth="yes"/>
			<point x="360" y="1091"/>
			<point x="521" y="1269"/>
			<point x="911" y="1269" type="curve" smooth="yes"/>
			<point x="1035" y="1269"/>
			<point x="1120" y="1252"/>
			<point x="1238" y="1194" type="curve"/>
			<point x="1184" y="1276" type="line"/>
			<point x="1262" y="960" type="line"/>
			<point x="1416" y="960" type="line"/>
			<point x="1416" y="1484" type="line"/>
			<point x="1299" y="1484" type="line"/>
			<point x="1215" y="1371" type="line"/>
			<point x="1282" y="1374" type="line"/>
			<point x="1172" y="1409"/>
			<point x="1064" y="1434"/>
			<point x="920" y="1434" type="curve" smooth="yes"/>
			<point x="416" y="1434"/>
			<point x="127" y="1173"/>
			<point x="121" y="700" type="curve" smooth="yes"/>
			<point x="115" y="223"/>
			<point x="401" y="-20"/>
			<point x="923" y="-20" type="curve" smooth="yes"/>
			<point x="1112" y="-20"/>
			<point x="1292" y="16"/>
			<point x="1395" y="65" type="curve"/>
			<point x="1435" y="444" type="line"/>
			<point x="1300" y="444" type="line"/>
			<point x="1163" y="91" type="line"/>
			<point x="1304" y="210" type="line"/>
			<point x="1192" y="166"/>
			<point x="1054" y="141"/>
		</contour>
		<contour>
			<point x="766" y="-465" type="curve" smooth="yes"/>
			<point x="928" y="-465"/>
			<point x="1032" y="-404"/>
			<point x="1032" y="-282" type="curve" smooth="yes"/>
			<point x="1032" y="-201"/>
			<point x="991" y="-136"/>
			<point x="779" y="-96" type="curve"/>
			<point x="789" y="-171" type="line"/>
			<point x="944" y="23" type="line"/>
			<point x="837" y="23" type="line"/>
			<point x="675" y="-190" type="line"/>
			<point x="675" y="-212" type="line"/>
			<point x="864" y="-244"/>
			<point x="891" y="-268"/>
			<point x="891" y="-313" type="curve" smooth="yes"/>
			<point x="891" y="-361"/>
			<point x="861" y="-385"/>
			<point x="790" y="-385" type="curve" smooth="yes"/>
			<point x="728" y="-385"/>
			<point x="679" y="-315"/>
			<point x="663" y="-315" type="curve" smooth="yes"/>
			<point x="637" y="-315"/>
			<point x="604" y="-340"/>
			<point x="604" y="-381" type="curve" smooth="yes"/>
			<point x="604" y="-434"/>
			<point x="640" y="-465"/>
		</contour>
	</outline>
</glyph>
<glyph name="multiply" format="2">
	<unicode hex="00D7"/>
	<advance width="1140"/>
	<outline>
		<contour>
			<point x="176.5" y="236" type="line"/>
			<point x="289.5" y="123" type="line"/>
			<point x="963.5" y="797" type="line"/>
			<point x="850.5" y="910" type="line"/>
		</contour>
		<contour>
			<point x="176.5" y="797" type="line"/>
			<point x="850.5" y="123" type="line"/>
			<point x="963.5" y="236" type="line"/>
			<point x="289.5" y="910" type="line"/>
		</contour>
	</outline>
</glyph>
<glyph name="Oslash" format="2">
	<unicode hex="00D8"/>
	<advance width="1734"/>
	<outline>
		<contour>
			<point x="419" y="307" type="line"/>
			<point x="364" y="250" type="line"/>
			<point x="139" y="0" type="line"/>
			<point x="321" y="0" type="line"/>
			<point x="464" y="159" type="line"/>
			<point x="509" y="213" type="line"/>
			<point x="1315" y="1107" type="line"/>
			<point x="1370" y="1164" type="line"/>
			<point x="1595" y="1414" type="line"/>
			<point x="1413" y="1414" type="line"/>
			<point x="1270" y="1255" type="line"/>
			<point x="1225" y="1201" type="line"/>
		</contour>
		<contour>
			<point x="865" y="1434" type="curve" smooth="yes"/>
			<point x="418" y="1434"/>
			<point x="139" y="1134"/>
			<point x="139" y="705" type="curve" smooth="yes"/>
			<point x="139" y="279"/>
			<point x="420" y="-20"/>
			<point x="869" y="-20" type="curve" smooth="yes"/>
			<point x="1316" y="-20"/>
			<point x="1595" y="280"/>
			<point x="1595" y="709" type="curve" smooth="yes"/>
			<point x="1595" y="1135"/>
			<point x="1314" y="1434"/>
		</contour>
		<contour>
			<point x="876" y="147" type="curve" smooth="yes"/>
			<point x="538" y="147"/>
			<point x="365" y="368"/>
			<point x="365" y="739" type="curve" smooth="yes"/>
			<point x="365" y="1068"/>
			<point x="532" y="1267"/>
			<point x="858" y="1267" type="curve" smooth="yes"/>
			<point x="1196" y="1267"/>
			<point x="1369" y="1046"/>
			<point x="1369" y="675" type="curve" smooth="yes"/>
			<point x="1369" y="346"/>
			<point x="1202" y="147"/>
		</contour>
	</outline>
	<anchor name="UCtop" x="867" y="1414"/>
	<anchor name="bottom" x="867" y="0"/>
</glyph>
<glyph name="Thorn" format="2">
	<unicode hex="00DE"/>
	<advance width="1433"/>
	<outline>
		<contour>
			<point x="1103" y="710" type="curve" smooth="yes"/>
			<point x="1103" y="517"/>
			<point x="996" y="438"/>
			<point x="811" y="438" type="curve" smooth="yes"/>
			<point x="420" y="438" type="line"/>
			<point x="420" y="282" type="line"/>
			<point x="822" y="282" type="line" smooth="yes"/>
			<point x="1187" y="282"/>
			<point x="1327" y="461"/>
			<point x="1327" y="714" type="curve" smooth="yes"/>
			<point x="1327" y="969"/>
			<point x="1189" y="1133"/>
			<point x="788" y="1133" type="curve" smooth="yes"/>
			<point x="420" y="1133" type="line"/>
			<point x="420" y="977" type="line"/>
			<point x="723" y="977" type="line" smooth="yes"/>
			<point x="1022" y="977"/>
			<point x="1103" y="890"/>
		</contour>
		<contour>
			<point x="720" y="106" type="line"/>
			<point x="524" y="151" type="line"/>
			<point x="524" y="1263" type="line"/>
			<point x="720" y="1308" type="line"/>
			<point x="720" y="1414" type="line"/>
			<point x="110" y="1414" type="line"/>
			<point x="110" y="1308" type="line"/>
			<point x="306" y="1263" type="line"/>
			<point x="306" y="151" type="line"/>
			<point x="110" y="106" type="line"/>
			<point x="110" y="0" type="line"/>
			<point x="720" y="0" type="line"/>
		</contour>
	</outline>
</glyph>
<glyph name="germandbls" format="2">
	<unicode hex="00DF"/>
	<advance width="1517"/>
	<outline>
		<contour>
			<point x="265" y="1093" type="curve" smooth="yes"/>
			<point x="265" y="136" type="line"/>
			<point x="98" y="96" type="line"/>
			<point x="98" y="0" type="line"/>
			<point x="630" y="0" type="line"/>
			<point x="630" y="96" type="line"/>
			<point x="463" y="136" type="line"/>
			<point x="463" y="1117" type="line" smooth="yes"/>
			<point x="463" y="1291"/>
			<point x="561" y="1351"/>
			<point x="796" y="1351" type="curve" smooth="yes"/>
			<point x="978" y="1351"/>
			<point x="1059" y="1276"/>
			<point x="1059" y="1169" type="curve" smooth="yes"/>
			<point x="1059" y="1025"/>
			<point x="787" y="990"/>
			<point x="787" y="755" type="curve" smooth="yes"/>
			<point x="787" y="410"/>
			<point x="1253" y="563"/>
			<point x="1253" y="280" type="curve" smooth="yes"/>
			<point x="1253" y="174"/>
			<point x="1186" y="116"/>
			<point x="1014" y="116" type="curve" smooth="yes"/>
			<point x="945" y="116"/>
			<point x="867" y="123"/>
			<point x="804" y="147" type="curve"/>
			<point x="918" y="42" type="line"/>
			<point x="818" y="325" type="line"/>
			<point x="677" y="325" type="line"/>
			<point x="720" y="36" type="line"/>
			<point x="792" y="2"/>
			<point x="916" y="-16"/>
			<point x="1009" y="-16" type="curve" smooth="yes"/>
			<point x="1293" y="-16"/>
			<point x="1435" y="106"/>
			<point x="1435" y="322" type="curve" smooth="yes"/>
			<point x="1435" y="708"/>
			<point x="966" y="604"/>
			<point x="966" y="804" type="curve" smooth="yes"/>
			<point x="966" y="962"/>
			<point x="1267" y="993"/>
			<point x="1267" y="1214" type="curve" smooth="yes"/>
			<point x="1267" y="1388"/>
			<point x="1146" y="1484"/>
			<point x="817" y="1484" type="curve" smooth="yes"/>
			<point x="486" y="1484"/>
			<point x="265" y="1346"/>
		</contour>
		<contour>
			<point x="281" y="1048" type="line"/>
			<point x="71" y="975" type="line"/>
			<point x="71" y="911" type="line"/>
			<point x="265" y="845" type="line"/>
		</contour>
	</outline>
</glyph>
<glyph name="ae" format="2">
	<unicode hex="00E6"/>
	<advance width="1809"/>
	<outline>
		<contour>
			<point x="542" y="905" type="curve" smooth="yes"/>
			<point x="713" y="905"/>
			<point x="767" y="839"/>
			<point x="767" y="686" type="curve" smooth="yes"/>
			<point x="767" y="360" type="line" smooth="yes"/>
			<point x="767" y="221"/>
			<point x="659" y="144"/>
			<point x="522" y="144" type="curve" smooth="yes"/>
			<point x="398" y="144"/>
			<point x="338" y="194"/>
			<point x="338" y="291" type="curve" smooth="yes"/>
			<point x="338" y="410"/>
			<point x="399" y="468"/>
			<point x="854" y="528" type="curve"/>
			<point x="901" y="660" type="line"/>
			<point x="239" y="575"/>
			<point x="118" y="462"/>
			<point x="118" y="256" type="curve" smooth="yes"/>
			<point x="118" y="80"/>
			<point x="232" y="-20"/>
			<point x="438" y="-20" type="curve" smooth="yes"/>
			<point x="633" y="-20"/>
			<point x="797" y="93"/>
			<point x="806" y="313" type="curve"/>
			<point x="772" y="300" type="line"/>
			<point x="849" y="92"/>
			<point x="1030.3031578947" y="-20"/>
			<point x="1279" y="-20" type="curve" smooth="yes"/>
			<point x="1400" y="-20"/>
			<point x="1563" y="37"/>
			<point x="1696" y="124" type="curve"/>
			<point x="1696" y="230" type="line"/>
			<point x="1604" y="193"/>
			<point x="1493" y="154"/>
			<point x="1361" y="154" type="curve" smooth="yes"/>
			<point x="1090" y="154"/>
			<point x="964" y="270"/>
			<point x="964" y="553" type="curve" smooth="yes"/>
			<point x="964" y="800"/>
			<point x="1070" y="904"/>
			<point x="1254" y="904" type="curve" smooth="yes"/>
			<point x="1404" y="904"/>
			<point x="1494" y="821"/>
			<point x="1499" y="600" type="curve"/>
			<point x="1557" y="621" type="line"/>
			<point x="928" y="621" type="line"/>
			<point x="934" y="485" type="line"/>
			<point x="1704" y="485" type="line"/>
			<point x="1701" y="844"/>
			<point x="1583" y="1044"/>
			<point x="1259" y="1044" type="curve" smooth="yes"/>
			<point x="1069.8550724638" y="1044"/>
			<point x="924.1163482767" y="955.4066765282"/>
			<point x="838" y="806" type="curve"/>
			<point x="950" y="806" type="line"/>
			<point x="923.9513056369" y="952.914636208"/>
			<point x="824.5098039216" y="1044"/>
			<point x="600" y="1044" type="curve" smooth="yes"/>
			<point x="312" y="1044"/>
			<point x="112" y="889"/>
			<point x="112" y="797" type="curve" smooth="yes"/>
			<point x="112" y="753"/>
			<point x="155" y="717"/>
			<point x="237" y="717" type="curve" smooth="yes"/>
			<point x="291" y="717"/>
			<point x="326" y="724"/>
			<point x="349" y="776" type="curve" smooth="yes"/>
			<point x="372" y="828"/>
			<point x="387" y="873"/>
			<point x="407" y="957" type="curve"/>
			<point x="331" y="884" type="line"/>
			<point x="390" y="897"/>
			<point x="456" y="905"/>
		</contour>
	</outline>
	<anchor name="top" x="898" y="1024"/>
	<anchor name="bottom" x="898" y="0"/>
</glyph>
<glyph name="ccedilla" format="2">
	<unicode hex="00E7"/>
	<advance width="1096"/>
	<outline>
		<contour>
			<point x="700" y="1044" type="curve" smooth="yes"/>
			<point x="343" y="1044"/>
			<point x="102" y="852"/>
			<point x="102" y="498" type="curve" smooth="yes"/>
			<point x="102" y="162"/>
			<point x="302" y="-20"/>
			<point x="596" y="-20" type="curve" smooth="yes"/>
			<point x="715" y="-20"/>
			<point x="864" y="36"/>
			<point x="994" y="124" type="curve"/>
			<point x="994" y="230" type="line"/>
			<point x="875" y="180"/>
			<point x="766" y="154"/>
			<point x="665" y="154" type="curve" smooth="yes"/>
			<point x="426" y="154"/>
			<point x="298" y="287"/>
			<point x="298" y="552" type="curve" smooth="yes"/>
			<point x="298" y="784"/>
			<point x="431" y="901"/>
			<point x="617" y="901" type="curve" smooth="yes"/>
			<point x="683" y="901"/>
			<point x="863" y="733"/>
			<point x="888" y="733" type="curve" smooth="yes"/>
			<point x="968" y="733"/>
			<point x="1022" y="799"/>
			<point x="1022" y="874" type="curve" smooth="yes"/>
			<point x="1022" y="947"/>
			<point x="950" y="1044"/>
		</contour>
		<contour>
			<point x="490" y="-465" type="curve" smooth="yes"/>
			<point x="652" y="-465"/>
			<point x="756" y="-404"/>
			<point x="756" y="-282" type="curve" smooth="yes"/>
			<point x="756" y="-201"/>
			<point x="715" y="-136"/>
			<point x="503" y="-96" type="curve"/>
			<point x="513" y="-171" type="line"/>
			<point x="668" y="23" type="line"/>
			<point x="561" y="23" type="line"/>
			<point x="399" y="-190" type="line"/>
			<point x="399" y="-212" type="line"/>
			<point x="588" y="-244"/>
			<point x="615" y="-268"/>
			<point x="615" y="-313" type="curve" smooth="yes"/>
			<point x="615" y="-361"/>
			<point x="585" y="-385"/>
			<point x="514" y="-385" type="curve" smooth="yes"/>
			<point x="452" y="-385"/>
			<point x="403" y="-315"/>
			<point x="387" y="-315" type="curve" smooth="yes"/>
			<point x="361" y="-315"/>
			<point x="328" y="-340"/>
			<point x="328" y="-381" type="curve" smooth="yes"/>
			<point x="328" y="-434"/>
			<point x="364" y="-465"/>
		</contour>
	</outline>
</glyph>
<glyph name="eth" format="2">
	<unicode hex="00F0"/>
	<advance width="1288"/>
	<outline>
		<contour>
			<point x="624" y="-20" type="curve" smooth="yes"/>
			<point x="958" y="-20"/>
			<point x="1165" y="170"/>
			<point x="1165" y="549" type="curve" smooth="yes"/>
			<point x="1165" y="1052"/>
			<point x="971" y="1292"/>
			<point x="325" y="1484" type="curve"/>
			<point x="282" y="1366" type="line"/>
			<point x="722" y="1228"/>
			<point x="955" y="1026"/>
			<point x="960" y="700" type="curve"/>
			<point x="977" y="695" type="line"/>
			<point x="932" y="889"/>
			<point x="806" y="1012"/>
			<point x="593" y="1012" type="curve" smooth="yes"/>
			<point x="309" y="1012"/>
			<point x="102" y="810"/>
			<point x="102" y="496" type="curve" smooth="yes"/>
			<point x="102" y="183"/>
			<point x="298" y="-20"/>
		</contour>
		<contour>
			<point x="622" y="130" type="curve" smooth="yes"/>
			<point x="405" y="130"/>
			<point x="307" y="260.6564885496"/>
			<point x="307" y="519" type="curve" smooth="yes"/>
			<point x="307" y="755.2528735632"/>
			<point x="423" y="863"/>
			<point x="645" y="863" type="curve" smooth="yes"/>
			<point x="862" y="863"/>
			<point x="960" y="731.3502538071"/>
			<point x="960" y="473" type="curve" smooth="yes"/>
			<point x="960" y="236.7550432277"/>
			<point x="844" y="130"/>
		</contour>
		<contour>
			<point x="429" y="1034" type="line"/>
			<point x="966" y="1394" type="line"/>
			<point x="901" y="1484" type="line"/>
			<point x="364" y="1124" type="line"/>
		</contour>
	</outline>
</glyph>
<glyph name="divide" format="2">
	<unicode hex="00F7"/>
	<advance width="1140"/>
	<outline>
		<contour>
			<point x="570.5" y="283" type="curve" smooth="yes"/>
			<point x="484.5" y="283"/>
			<point x="430.5" y="236"/>
			<point x="430.5" y="150" type="curve" smooth="yes"/>
			<point x="430.5" y="64"/>
			<point x="484.5" y="16"/>
			<point x="570.5" y="16" type="curve" smooth="yes"/>
			<point x="655.5" y="16"/>
			<point x="709.5" y="64"/>
			<point x="709.5" y="150" type="curve" smooth="yes"/>
			<point x="709.5" y="236"/>
			<point x="655.5" y="283"/>
		</contour>
		<contour>
			<point x="570.5" y="1017" type="curve" smooth="yes"/>
			<point x="484.5" y="1017"/>
			<point x="430.5" y="970"/>
			<point x="430.5" y="884" type="curve" smooth="yes"/>
			<point x="430.5" y="798"/>
			<point x="484.5" y="751"/>
			<point x="570.5" y="751" type="curve" smooth="yes"/>
			<point x="655.5" y="751"/>
			<point x="709.5" y="798"/>
			<point x="709.5" y="884" type="curve" smooth="yes"/>
			<point x="709.5" y="970"/>
			<point x="655.5" y="1017"/>
		</contour>
		<contour>
			<point x="136.5" y="596" type="line"/>
			<point x="136.5" y="437" type="line"/>
			<point x="1003.5" y="437" type="line"/>
			<point x="1003.5" y="596" type="line"/>
		</contour>
	</outline>
</glyph>
<glyph name="oslash" format="2">
	<unicode hex="00F8"/>
	<advance width="1310"/>
	<outline>
		<contour>
			<point x="94" y="0" type="line"/>
			<point x="267" y="0" type="line"/>
			<point x="375" y="116" type="line"/>
			<point x="398" y="148" type="line"/>
			<point x="1002" y="795" type="line"/>
			<point x="1026" y="818" type="line"/>
			<point x="1217" y="1024" type="line"/>
			<point x="1044" y="1024" type="line"/>
			<point x="936" y="908" type="line"/>
			<point x="913" y="876" type="line"/>
			<point x="309" y="229" type="line"/>
			<point x="285" y="206" type="line"/>
		</contour>
		<contour>
			<point x="644" y="130" type="curve" smooth="yes"/>
			<point x="427" y="130"/>
			<point x="329" y="267"/>
			<point x="329" y="536" type="curve" smooth="yes"/>
			<point x="329" y="782"/>
			<point x="445" y="894"/>
			<point x="667" y="894" type="curve" smooth="yes"/>
			<point x="884" y="894"/>
			<point x="982" y="757"/>
			<point x="982" y="488" type="curve" smooth="yes"/>
			<point x="982" y="242"/>
			<point x="866" y="130"/>
		</contour>
		<contour>
			<point x="646" y="-20" type="curve" smooth="yes"/>
			<point x="980" y="-20"/>
			<point x="1187" y="188"/>
			<point x="1187" y="512" type="curve" smooth="yes"/>
			<point x="1187" y="835"/>
			<point x="991" y="1044"/>
			<point x="665" y="1044" type="curve" smooth="yes"/>
			<point x="331" y="1044"/>
			<point x="124" y="836"/>
			<point x="124" y="512" type="curve" smooth="yes"/>
			<point x="124" y="189"/>
			<point x="320" y="-20"/>
		</contour>
	</outline>
	<anchor name="top" x="656" y="1024"/>
	<anchor name="bottom" x="656" y="0"/>
</glyph>
<glyph name="thorn" format="2">
	<unicode hex="00FE"/>
	<advance width="1310"/>
	<outline>
		<contour>
			<point x="180" y="1257" type="curve"/>
			<point x="180" y="-309" type="line"/>
			<point x="8" y="-349" type="line"/>
			<point x="8" y="-445" type="line"/>
			<point x="568" y="-445" type="line"/>
			<point x="568" y="-349" type="line"/>
			<point x="377" y="-311" type="line"/>
			<point x="377" y="271" type="line"/>
			<point x="360" y="271" type="line"/>
			<point x="370" y="119"/>
			<point x="512" y="-20"/>
			<point x="703" y="-20" type="curve" smooth="yes"/>
			<point x="988" y="-20"/>
			<point x="1207" y="197"/>
			<point x="1207" y="552" type="curve" smooth="yes"/>
			<point x="1207" y="857"/>
			<point x="1037" y="1044"/>
			<point x="726" y="1044" type="curve" smooth="yes"/>
			<point x="636" y="1044"/>
			<point x="521" y="1008"/>
			<point x="308" y="894" type="curve"/>
			<point x="308" y="788" type="line"/>
			<point x="415" y="837"/>
			<point x="532" y="865"/>
			<point x="650" y="865" type="curve" smooth="yes"/>
			<point x="864" y="865"/>
			<point x="992" y="748"/>
			<point x="992" y="500" type="curve" smooth="yes"/>
			<point x="992" y="264"/>
			<point x="870" y="120"/>
			<point x="662" y="120" type="curve" smooth="yes"/>
			<point x="504" y="120"/>
			<point x="378" y="201"/>
			<point x="378" y="358" type="curve" smooth="yes"/>
			<point x="378" y="1278" type="line"/>
			<point x="398" y="1484" type="line"/>
			<point x="356" y="1484" type="line"/>
			<point x="-38" y="1414" type="line"/>
			<point x="-38" y="1335" type="line"/>
			<point x="40" y="1307"/>
			<point x="154" y="1266"/>
		</contour>
	</outline>
</glyph>
<glyph name="Aogonek" format="2">
	<unicode hex="0104"/>
	<advance width="1649"/>
	<outline>
		<contour>
			<point x="442" y="469" type="line"/>
			<point x="1160" y="469" type="line"/>
			<point x="1160" y="625" type="line"/>
			<point x="442" y="625" type="line"/>
		</contour>
		<contour>
			<point x="1456" y="151" type="line"/>
			<point x="938" y="1434" type="line"/>
			<point x="675" y="1434" type="line"/>
			<point x="192" y="151" type="line"/>
			<point x="24" y="106" type="line"/>
			<point x="24" y="0" type="line"/>
			<point x="559" y="0" type="line"/>
			<point x="559" y="106" type="line"/>
			<point x="373" y="151" type="line"/>
			<point x="793" y="1336" type="line"/>
			<point x="744" y="1336" type="line"/>
			<point x="1212" y="151" type="line"/>
			<point x="1026" y="106" type="line"/>
			<point x="1026" y="0" type="line"/>
			<point x="1642" y="0" type="line"/>
			<point x="1642" y="106" type="line"/>
		</contour>
		<contour>
			<point x="1345" y="-77" type="curve" smooth="yes"/>
			<point x="1404" y="45" type="line"/>
			<point x="1322" y="45" type="line"/>
			<point x="1234" y="-78" type="line" smooth="yes"/>
			<point x="1148" y="-198"/>
			<point x="1134" y="-251"/>
			<point x="1134" y="-314" type="curve" smooth="yes"/>
			<point x="1134" y="-403"/>
			<point x="1183" y="-465"/>
			<point x="1304" y="-465" type="curve" smooth="yes"/>
			<point x="1376" y="-465"/>
			<point x="1417" y="-448"/>
			<point x="1492" y="-389" type="curve"/>
			<point x="1492" y="-319" type="line"/>
			<point x="1440" y="-346"/>
			<point x="1415" y="-351"/>
			<point x="1377" y="-351" type="curve" smooth="yes"/>
			<point x="1321" y="-351"/>
			<point x="1289" y="-319"/>
			<point x="1289" y="-262" type="curve" smooth="yes"/>
			<point x="1289" y="-214"/>
			<point x="1299" y="-173"/>
		</contour>
	</outline>
</glyph>
<glyph name="aogonek" format="2">
	<unicode hex="0105"/>
	<advance width="1195"/>
	<outline>
		<contour>
			<point x="1181" y="74" type="line"/>
			<point x="1181" y="164" type="line"/>
			<point x="1143" y="156"/>
			<point x="1108" y="151"/>
			<point x="1078" y="151" type="curve" smooth="yes"/>
			<point x="1004" y="151"/>
			<point x="964" y="182"/>
			<point x="964" y="262" type="curve" smooth="yes"/>
			<point x="964" y="736" type="line" smooth="yes"/>
			<point x="964" y="924"/>
			<point x="869" y="1044"/>
			<point x="600" y="1044" type="curve" smooth="yes"/>
			<point x="312" y="1044"/>
			<point x="112" y="889"/>
			<point x="112" y="797" type="curve" smooth="yes"/>
			<point x="112" y="753"/>
			<point x="155" y="717"/>
			<point x="237" y="717" type="curve" smooth="yes"/>
			<point x="291" y="717"/>
			<point x="326" y="724"/>
			<point x="349" y="776" type="curve" smooth="yes"/>
			<point x="372" y="828"/>
			<point x="387" y="873"/>
			<point x="407" y="957" type="curve"/>
			<point x="331" y="884" type="line"/>
			<point x="390" y="897"/>
			<point x="456" y="905"/>
			<point x="542" y="905" type="curve" smooth="yes"/>
			<point x="713" y="905"/>
			<point x="767" y="839"/>
			<point x="767" y="686" type="curve" smooth="yes"/>
			<point x="767" y="325" type="line" smooth="yes"/>
			<point x="767" y="221"/>
			<point x="659" y="144"/>
			<point x="522" y="144" type="curve" smooth="yes"/>
			<point x="398" y="144"/>
			<point x="338" y="194"/>
			<point x="338" y="291" type="curve" smooth="yes"/>
			<point x="338" y="410"/>
			<point x="399" y="468"/>
			<point x="854" y="528" type="curve"/>
			<point x="901" y="660" type="line"/>
			<point x="239" y="575"/>
			<point x="118" y="462"/>
			<point x="118" y="256" type="curve" smooth="yes"/>
			<point x="118" y="80"/>
			<point x="232" y="-20"/>
			<point x="438" y="-20" type="curve"/>
			<point x="630" y="-20"/>
			<point x="749" y="93"/>
			<point x="774" y="272" type="curve"/>
			<point x="766" y="272" type="line"/>
			<point x="773" y="73"/>
			<point x="844" y="-15"/>
			<point x="970" y="-15" type="curve"/>
			<point x="997" y="-15"/>
			<point x="1026" y="-10"/>
			<point x="1054" y="-1" type="curve"/>
			<point x="1044" y="12" type="line"/>
			<point x="962" y="-80" type="line" smooth="yes"/>
			<point x="855" y="-200"/>
			<point x="833" y="-251"/>
			<point x="833" y="-314" type="curve" smooth="yes"/>
			<point x="833" y="-403"/>
			<point x="882" y="-465"/>
			<point x="1003" y="-465" type="curve" smooth="yes"/>
			<point x="1075" y="-465"/>
			<point x="1116" y="-448"/>
			<point x="1191" y="-389" type="curve"/>
			<point x="1191" y="-319" type="line"/>
			<point x="1139" y="-346"/>
			<point x="1114" y="-351"/>
			<point x="1076" y="-351" type="curve" smooth="yes"/>
			<point x="1020" y="-351"/>
			<point x="988" y="-319"/>
			<point x="988" y="-262" type="curve" smooth="yes"/>
			<point x="988" y="-214"/>
			<point x="1008" y="-172"/>
			<point x="1073" y="-79" type="curve" smooth="yes"/>
		</contour>
	</outline>
</glyph>
<glyph name="Dcroat" format="2">
  <advance width="1685.0"/>
  <unicode hex="0110"/>
  <outline>
    <contour>
      <point x="114.0" y="645.0" type="line"/>
      <point x="850.0" y="645.0" type="line"/>
      <point x="850.0" y="775.0" type="line"/>
      <point x="114.0" y="775.0" type="line"/>
    </contour>
    <contour>
      <point x="1337.0" y="724.0" type="curve" smooth="yes"/>
      <point x="1337.0" y="322.0"/>
      <point x="1151.0" y="156.0"/>
      <point x="799.0" y="156.0" type="curve" smooth="yes"/>
      <point x="403.0" y="156.0" type="line"/>
      <point x="403.0" y="0.0" type="line"/>
      <point x="805.0" y="0.0" type="line" smooth="yes"/>
      <point x="1264.0" y="0.0"/>
      <point x="1563.0" y="257.0"/>
      <point x="1563.0" y="736.0" type="curve" smooth="yes"/>
      <point x="1563.0" y="1177.0"/>
      <point x="1309.0" y="1414.0"/>
      <point x="814.0" y="1414.0" type="curve" smooth="yes"/>
      <point x="403.0" y="1414.0" type="line"/>
      <point x="403.0" y="1258.0" type="line"/>
      <point x="746.0" y="1258.0" type="line" smooth="yes"/>
      <point x="1155.0" y="1258.0"/>
      <point x="1337.0" y="1086.0"/>
    </contour>
    <contour>
      <point x="114.0" y="0.0" type="line"/>
      <point x="528.0" y="0.0" type="line"/>
      <point x="528.0" y="1414.0" type="line"/>
      <point x="114.0" y="1414.0" type="line"/>
      <point x="114.0" y="1308.0" type="line"/>
      <point x="310.0" y="1263.0" type="line"/>
      <point x="310.0" y="151.0" type="line"/>
      <point x="114.0" y="106.0" type="line"/>
    </contour>
  </outline>
</glyph>
<glyph name="dcroat" format="2">
	<unicode hex="0111"/>
	<advance width="1359"/>
	<outline>
		<contour>
			<point x="932" y="668" type="curve" smooth="yes"/>
			<point x="932" y="199" type="line"/>
			<point x="1007" y="-20" type="line"/>
			<point x="1045" y="-20" type="line"/>
			<point x="1314" y="106" type="line"/>
			<point x="1314" y="148" type="line"/>
			<point x="1272" y="168.7717391304"/>
			<point x="1154" y="227.1304347826"/>
			<point x="1130" y="239" type="curve"/>
			<point x="1130" y="1278" type="line"/>
			<point x="1150" y="1484" type="line"/>
			<point x="1108" y="1484" type="line"/>
			<point x="746" y="1414" type="line"/>
			<point x="746" y="1335" type="line"/>
			<point x="795" y="1324"/>
			<point x="912" y="1297"/>
			<point x="932" y="1292" type="curve"/>
			<point x="932" y="888" type="line"/>
			<point x="1048" y="936" type="line"/>
			<point x="919" y="1016"/>
			<point x="820" y="1044"/>
			<point x="675" y="1044" type="curve" smooth="yes"/>
			<point x="347" y="1044"/>
			<point x="103" y="822"/>
			<point x="103" y="472" type="curve" smooth="yes"/>
			<point x="103" y="167"/>
			<point x="259" y="-20"/>
			<point x="565" y="-20" type="curve" smooth="yes"/>
			<point x="645" y="-20"/>
			<point x="722" y="3"/>
			<point x="1020" y="220" type="curve"/>
			<point x="1020" y="254" type="line"/>
			<point x="900" y="192"/>
			<point x="784" y="159"/>
			<point x="660" y="159" type="curve" smooth="yes"/>
			<point x="436" y="159"/>
			<point x="318" y="271"/>
			<point x="318" y="514" type="curve" smooth="yes"/>
			<point x="318" y="760"/>
			<point x="440" y="906"/>
			<point x="666" y="906" type="curve" smooth="yes"/>
			<point x="864" y="906"/>
			<point x="932" y="817"/>
		</contour>
		<contour>
			<point x="598" y="1110" type="line"/>
			<point x="1314" y="1110" type="line"/>
			<point x="1314" y="1230" type="line"/>
			<point x="598" y="1230" type="line"/>
		</contour>
	</outline>
</glyph>
<glyph name="Eogonek" format="2">
	<unicode hex="0118"/>
	<advance width="1489"/>
	<outline>
		<contour>
			<point x="1042" y="990" type="line"/>
			<point x="911" y="990" type="line"/>
			<point x="894" y="815" type="line"/>
			<point x="399" y="815" type="line"/>
			<point x="399" y="659" type="line"/>
			<point x="894" y="659" type="line"/>
			<point x="911" y="480" type="line"/>
			<point x="1042" y="480" type="line"/>
			<point x="1042" y="735" type="line"/>
		</contour>
		<contour>
			<point x="1346" y="1042" type="line"/>
			<point x="1346" y="1484" type="line"/>
			<point x="1235" y="1484" type="line"/>
			<point x="1158" y="1414" type="line"/>
			<point x="399" y="1414" type="line"/>
			<point x="399" y="1258" type="line"/>
			<point x="1204" y="1258" type="line"/>
			<point x="1125" y="1342" type="line"/>
			<point x="1206" y="1042" type="line"/>
		</contour>
		<contour>
			<point x="1114" y="72" type="line"/>
			<point x="1182" y="156" type="line"/>
			<point x="399" y="156" type="line"/>
			<point x="399" y="0" type="line"/>
			<point x="1154" y="0" type="line"/>
			<point x="1196" y="-72" type="line"/>
			<point x="1323" y="-72" type="line"/>
			<point x="1399" y="432" type="line"/>
			<point x="1265" y="432" type="line"/>
		</contour>
		<contour>
			<point x="110" y="0" type="line"/>
			<point x="524" y="0" type="line"/>
			<point x="524" y="1414" type="line"/>
			<point x="110" y="1414" type="line"/>
			<point x="110" y="1308" type="line"/>
			<point x="306" y="1263" type="line"/>
			<point x="306" y="151" type="line"/>
			<point x="110" y="106" type="line"/>
		</contour>
		<contour>
			<point x="1111" y="-79" type="curve" smooth="yes"/>
			<point x="1199" y="45" type="line"/>
			<point x="1117" y="45" type="line"/>
			<point x="1000" y="-80" type="line" smooth="yes"/>
			<point x="890" y="-196"/>
			<point x="871" y="-251"/>
			<point x="871" y="-314" type="curve" smooth="yes"/>
			<point x="871" y="-403"/>
			<point x="920" y="-465"/>
			<point x="1041" y="-465" type="curve" smooth="yes"/>
			<point x="1113" y="-465"/>
			<point x="1154" y="-448"/>
			<point x="1229" y="-389" type="curve"/>
			<point x="1229" y="-319" type="line"/>
			<point x="1177" y="-346"/>
			<point x="1152" y="-351"/>
			<point x="1114" y="-351" type="curve" smooth="yes"/>
			<point x="1058" y="-351"/>
			<point x="1026" y="-319"/>
			<point x="1026" y="-262" type="curve" smooth="yes"/>
			<point x="1026" y="-214"/>
			<point x="1045" y="-172"/>
		</contour>
	</outline>
</glyph>
<glyph name="eogonek" format="2">
	<unicode hex="0119"/>
	<advance width="1146"/>
	<outline>
		<contour>
			<point x="1031" y="124" type="line"/>
			<point x="1031" y="230" type="line"/>
			<point x="939" y="193"/>
			<point x="828" y="154"/>
			<point x="696" y="154" type="curve" smooth="yes"/>
			<point x="425" y="154"/>
			<point x="299" y="270"/>
			<point x="299" y="553" type="curve" smooth="yes"/>
			<point x="299" y="800"/>
			<point x="405" y="904"/>
			<point x="589" y="904" type="curve" smooth="yes"/>
			<point x="739" y="904"/>
			<point x="829" y="821"/>
			<point x="834" y="600" type="curve"/>
			<point x="892" y="621" type="line"/>
			<point x="263" y="621" type="line"/>
			<point x="269" y="485" type="line"/>
			<point x="1039" y="485" type="line"/>
			<point x="1036" y="844"/>
			<point x="918" y="1044"/>
			<point x="594" y="1044" type="curve" smooth="yes"/>
			<point x="298" y="1044"/>
			<point x="103" y="831"/>
			<point x="103" y="498" type="curve" smooth="yes"/>
			<point x="103" y="162"/>
			<point x="302" y="-20"/>
			<point x="614" y="-20" type="curve" smooth="yes"/>
			<point x="700" y="-20"/>
			<point x="807" y="9"/>
			<point x="910" y="57" type="curve"/>
			<point x="898" y="71" type="line"/>
			<point x="820" y="-21" type="line" smooth="yes"/>
			<point x="704" y="-156"/>
			<point x="675" y="-228"/>
			<point x="675" y="-301" type="curve" smooth="yes"/>
			<point x="675" y="-403"/>
			<point x="735" y="-465"/>
			<point x="863" y="-465" type="curve" smooth="yes"/>
			<point x="939" y="-465"/>
			<point x="966" y="-448"/>
			<point x="1041" y="-389" type="curve"/>
			<point x="1041" y="-319" type="line"/>
			<point x="989" y="-346"/>
			<point x="964" y="-351"/>
			<point x="926" y="-351" type="curve" smooth="yes"/>
			<point x="870" y="-351"/>
			<point x="827" y="-327"/>
			<point x="827" y="-261" type="curve" smooth="yes"/>
			<point x="827" y="-205"/>
			<point x="852" y="-137"/>
			<point x="925" y="-31" type="curve" smooth="yes"/>
		</contour>
	</outline>
</glyph>
<glyph name="Hbar" format="2">
  <advance width="1809.0"/>
  <unicode hex="0126"/>
  <outline>
    <contour>
      <point x="527.0" y="151.0" type="line"/>
      <point x="527.0" y="1263.0" type="line"/>
      <point x="723.0" y="1308.0" type="line"/>
      <point x="723.0" y="1414.0" type="line"/>
      <point x="113.0" y="1414.0" type="line"/>
      <point x="113.0" y="1308.0" type="line"/>
      <point x="309.0" y="1263.0" type="line"/>
      <point x="309.0" y="151.0" type="line"/>
      <point x="113.0" y="106.0" type="line"/>
      <point x="113.0" y="0.0" type="line"/>
      <point x="723.0" y="0.0" type="line"/>
      <point x="723.0" y="106.0" type="line"/>
    </contour>
    <contour>
      <point x="1500.0" y="151.0" type="line"/>
      <point x="1500.0" y="1263.0" type="line"/>
      <point x="1696.0" y="1308.0" type="line"/>
      <point x="1696.0" y="1414.0" type="line"/>
      <point x="1086.0" y="1414.0" type="line"/>
      <point x="1086.0" y="1308.0" type="line"/>
      <point x="1282.0" y="1263.0" type="line"/>
      <point x="1282.0" y="151.0" type="line"/>
      <point x="1086.0" y="106.0" type="line"/>
      <point x="1086.0" y="0.0" type="line"/>
      <point x="1696.0" y="0.0" type="line"/>
      <point x="1696.0" y="106.0" type="line"/>
    </contour>
    <contour>
      <point x="113.0" y="995.0" type="line"/>
      <point x="1696.0" y="995.0" type="line"/>
      <point x="1696.0" y="1125.0" type="line"/>
      <point x="113.0" y="1125.0" type="line"/>
    </contour>
    <contour>
      <point x="402.0" y="642.0" type="line"/>
      <point x="1408.0" y="642.0" type="line"/>
      <point x="1408.0" y="798.0" type="line"/>
      <point x="402.0" y="798.0" type="line"/>
    </contour>
  </outline>
</glyph>
<glyph name="hbar" format="2">
  <advance width="1368.0"/>
  <unicode hex="0127"/>
  <outline>
    <contour>
      <point x="793.0" y="96.0" type="line"/>
      <point x="793.0" y="0.0" type="line"/>
      <point x="1317.0" y="0.0" type="line"/>
      <point x="1317.0" y="96.0" type="line"/>
      <point x="1149.0" y="136.0" type="line"/>
      <point x="1149.0" y="717.0" type="line" smooth="yes"/>
      <point x="1149.0" y="933.0"/>
      <point x="1047.0" y="1044.0"/>
      <point x="818.0" y="1044.0" type="curve" smooth="yes"/>
      <point x="692.0" y="1044.0"/>
      <point x="660.0" y="1031.0"/>
      <point x="410.0" y="841.0" type="curve"/>
      <point x="426.0" y="802.0" type="line"/>
      <point x="509.0" y="831.0"/>
      <point x="616.0" y="851.0"/>
      <point x="712.0" y="851.0" type="curve" smooth="yes"/>
      <point x="885.0" y="851.0"/>
      <point x="951.0" y="795.0"/>
      <point x="951.0" y="655.0" type="curve" smooth="yes"/>
      <point x="951.0" y="136.0" type="line"/>
    </contour>
    <contour>
      <point x="588.0" y="0.0" type="line"/>
      <point x="588.0" y="96.0" type="line"/>
      <point x="430.0" y="136.0" type="line"/>
      <point x="430.0" y="1278.0" type="line"/>
      <point x="450.0" y="1484.0" type="line"/>
      <point x="408.0" y="1484.0" type="line"/>
      <point x="46.0" y="1414.0" type="line"/>
      <point x="46.0" y="1335.0" type="line"/>
      <point x="95.0" y="1324.0"/>
      <point x="212.0" y="1297.0"/>
      <point x="232.0" y="1292.0" type="curve"/>
      <point x="232.0" y="136.0" type="line"/>
      <point x="65.0" y="96.0" type="line"/>
      <point x="65.0" y="0.0" type="line"/>
    </contour>
    <contour>
      <point x="48.0" y="1110.0" type="line"/>
      <point x="764.0" y="1110.0" type="line"/>
      <point x="764.0" y="1230.0" type="line"/>
      <point x="48.0" y="1230.0" type="line"/>
    </contour>
  </outline>
</glyph>
<glyph name="Iogonek" format="2">
	<unicode hex="012E"/>
	<advance width="830"/>
	<outline>
		<contour>
			<point x="720" y="106" type="line"/>
			<point x="524" y="151" type="line"/>
			<point x="524" y="1263" type="line"/>
			<point x="720" y="1308" type="line"/>
			<point x="720" y="1414" type="line"/>
			<point x="110" y="1414" type="line"/>
			<point x="110" y="1308" type="line"/>
			<point x="306" y="1263" type="line"/>
			<point x="306" y="151" type="line"/>
			<point x="110" y="106" type="line"/>
			<point x="110" y="0" type="line"/>
			<point x="720" y="0" type="line"/>
		</contour>
		<contour>
			<point x="420" y="-73" type="curve" smooth="yes"/>
			<point x="480" y="45" type="line"/>
			<point x="397" y="45" type="line"/>
			<point x="308" y="-76" type="line" smooth="yes"/>
			<point x="221" y="-194"/>
			<point x="207" y="-251"/>
			<point x="207" y="-314" type="curve" smooth="yes"/>
			<point x="207" y="-403"/>
			<point x="256" y="-465"/>
			<point x="377" y="-465" type="curve" smooth="yes"/>
			<point x="449" y="-465"/>
			<point x="490" y="-448"/>
			<point x="565" y="-389" type="curve"/>
			<point x="565" y="-319" type="line"/>
			<point x="513" y="-346"/>
			<point x="488" y="-351"/>
			<point x="450" y="-351" type="curve" smooth="yes"/>
			<point x="394" y="-351"/>
			<point x="362" y="-319"/>
			<point x="362" y="-262" type="curve" smooth="yes"/>
			<point x="362" y="-214"/>
			<point x="372" y="-167"/>
		</contour>
	</outline>
</glyph>
<glyph name="iogonek" format="2">
	<unicode hex="012F"/>
	<advance width="691"/>
	<outline>
		<contour>
			<point x="343" y="1212" type="curve" smooth="yes"/>
			<point x="438" y="1212"/>
			<point x="502" y="1256"/>
			<point x="502" y="1348" type="curve" smooth="yes"/>
			<point x="502" y="1440"/>
			<point x="438" y="1484"/>
			<point x="343" y="1484" type="curve" smooth="yes"/>
			<point x="248" y="1484"/>
			<point x="184" y="1440"/>
			<point x="184" y="1348" type="curve" smooth="yes"/>
			<point x="184" y="1256"/>
			<point x="248" y="1212"/>
		</contour>
		<contour>
			<point x="476" y="1044" type="line"/>
			<point x="418" y="1044" type="line"/>
			<point x="83" y="943" type="line"/>
			<point x="83" y="882" type="line"/>
			<point x="144" y="850.9944751381"/>
			<point x="242" y="801.182320442"/>
			<point x="264" y="790" type="curve"/>
			<point x="264" y="136" type="line"/>
			<point x="97" y="96" type="line"/>
			<point x="97" y="0" type="line"/>
			<point x="620" y="0" type="line"/>
			<point x="620" y="96" type="line"/>
			<point x="462" y="136" type="line"/>
			<point x="462" y="820" type="line"/>
		</contour>
		<contour>
			<point x="377" y="-77" type="curve" smooth="yes"/>
			<point x="440" y="45" type="line"/>
			<point x="358" y="45" type="line"/>
			<point x="266" y="-78" type="line" smooth="yes"/>
			<point x="179" y="-195"/>
			<point x="162" y="-251"/>
			<point x="162" y="-314" type="curve" smooth="yes"/>
			<point x="162" y="-403"/>
			<point x="211" y="-465"/>
			<point x="332" y="-465" type="curve" smooth="yes"/>
			<point x="404" y="-465"/>
			<point x="445" y="-448"/>
			<point x="520" y="-389" type="curve"/>
			<point x="520" y="-319" type="line"/>
			<point x="468" y="-346"/>
			<point x="443" y="-351"/>
			<point x="405" y="-351" type="curve" smooth="yes"/>
			<point x="349" y="-351"/>
			<point x="317" y="-319"/>
			<point x="317" y="-262" type="curve" smooth="yes"/>
			<point x="317" y="-214"/>
			<point x="328" y="-172"/>
		</contour>
	</outline>
</glyph>
<glyph name="dotlessi" format="2">
	<unicode hex="0131"/>
	<advance width="691"/>
	<outline>
		<contour>
			<point x="476" y="1044" type="line"/>
			<point x="418" y="1044" type="line"/>
			<point x="83" y="943" type="line"/>
			<point x="83" y="882" type="line"/>
			<point x="144" y="850.9944751381"/>
			<point x="242" y="801.182320442"/>
			<point x="264" y="790" type="curve"/>
			<point x="264" y="136" type="line"/>
			<point x="97" y="96" type="line"/>
			<point x="97" y="0" type="line"/>
			<point x="620" y="0" type="line"/>
			<point x="620" y="96" type="line"/>
			<point x="462" y="136" type="line"/>
			<point x="462" y="820" type="line"/>
		</contour>
	</outline>
	<anchor name="top" x="322" y="1024"/>
	<anchor name="bottom" x="363" y="0"/>
	<anchor name="right" x="510" y="0"/>
</glyph>
<glyph name="kgreenlandic" format="2">
	<unicode hex="0138"/>
	<advance width="1357"/>
	<outline>
		<contour>
			<point x="618" y="466" type="line"/>
			<point x="953" y="128" type="line"/>
			<point x="954" y="96" type="line"/>
			<point x="954" y="0" type="line"/>
			<point x="1332" y="0" type="line"/>
			<point x="1332" y="96" type="line"/>
			<point x="1196" y="142" type="line"/>
			<point x="740" y="607" type="line"/>
			<point x="717" y="524" type="line"/>
			<point x="1127" y="897" type="line"/>
			<point x="1268" y="933" type="line"/>
			<point x="1268" y="1024" type="line"/>
			<point x="763" y="1024" type="line"/>
			<point x="763" y="933" type="line"/>
			<point x="912" y="894" type="line"/>
			<point x="648" y="613" type="line"/>
			<point x="418" y="613" type="line"/>
			<point x="418" y="466" type="line"/>
		</contour>
		<contour>
			<point x="474" y="1044" type="line"/>
			<point x="416" y="1044" type="line"/>
			<point x="81" y="943" type="line"/>
			<point x="81" y="882" type="line"/>
			<point x="142" y="850.9944751381"/>
			<point x="240" y="801.182320442"/>
			<point x="262" y="790" type="curve"/>
			<point x="262" y="136" type="line"/>
			<point x="95" y="96" type="line"/>
			<point x="95" y="0" type="line"/>
			<point x="618" y="0" type="line"/>
			<point x="618" y="96" type="line"/>
			<point x="460" y="136" type="line"/>
			<point x="460" y="820" type="line"/>
		</contour>
	</outline>
</glyph>
<glyph name="Lslash" format="2">
  <advance width="1415.0"/>
  <unicode hex="0141"/>
  <outline>
    <contour>
      <point x="391.0" y="597.0" type="line"/>
      <point x="488.0" y="631.0" type="line"/>
      <point x="903.0" y="851.0" type="line"/>
      <point x="903.0" y="991.0" type="line"/>
      <point x="488.0" y="771.0" type="line"/>
      <point x="391.0" y="737.0" type="line"/>
      <point x="137.0" y="603.0" type="line"/>
      <point x="137.0" y="463.0" type="line"/>
    </contour>
    <contour>
      <point x="1274.0" y="-72.0" type="line"/>
      <point x="1355.0" y="492.0" type="line"/>
      <point x="1221.0" y="492.0" type="line"/>
      <point x="1058.0" y="72.0" type="line"/>
      <point x="1133.0" y="156.0" type="line"/>
      <point x="426.0" y="156.0" type="line"/>
      <point x="426.0" y="0.0" type="line"/>
      <point x="1105.0" y="0.0" type="line"/>
      <point x="1147.0" y="-72.0" type="line"/>
    </contour>
    <contour>
      <point x="551.0" y="1263.0" type="line"/>
      <point x="747.0" y="1308.0" type="line"/>
      <point x="747.0" y="1414.0" type="line"/>
      <point x="137.0" y="1414.0" type="line"/>
      <point x="137.0" y="1308.0" type="line"/>
      <point x="333.0" y="1263.0" type="line"/>
      <point x="333.0" y="151.0" type="line"/>
      <point x="137.0" y="106.0" type="line"/>
      <point x="137.0" y="0.0" type="line"/>
      <point x="551.0" y="0.0" type="line"/>
    </contour>
  </outline>
</glyph>
<glyph name="lslash" format="2">
	<unicode hex="0142"/>
	<advance width="779"/>
	<outline>
		<contour>
			<point x="352" y="625" type="line"/>
			<point x="448" y="674" type="line"/>
			<point x="707" y="858" type="line"/>
			<point x="707" y="1003" type="line"/>
			<point x="448" y="819" type="line"/>
			<point x="352" y="770" type="line"/>
			<point x="95" y="587" type="line"/>
			<point x="95" y="442" type="line"/>
		</contour>
		<contour>
			<point x="493" y="136" type="line"/>
			<point x="493" y="1278" type="line"/>
			<point x="513" y="1484" type="line"/>
			<point x="471" y="1484" type="line"/>
			<point x="77" y="1414" type="line"/>
			<point x="77" y="1335" type="line"/>
			<point x="155" y="1307.0917431193"/>
			<point x="269" y="1266.3027522936"/>
			<point x="295" y="1257" type="curve"/>
			<point x="295" y="136" type="line"/>
			<point x="128" y="96" type="line"/>
			<point x="128" y="0" type="line"/>
			<point x="651" y="0" type="line"/>
			<point x="651" y="96" type="line"/>
		</contour>
	</outline>
</glyph>
<glyph name="Eng" format="2">
	<unicode hex="014A"/>
	<advance width="1745"/>
	<outline>
		<contour>
			<point x="1334" y="309" type="line"/>
			<point x="613" y="1414" type="line"/>
			<point x="116" y="1414" type="line"/>
			<point x="116" y="1308" type="line"/>
			<point x="304" y="1263" type="line"/>
			<point x="304" y="151" type="line"/>
			<point x="116" y="106" type="line"/>
			<point x="116" y="0" type="line"/>
			<point x="680" y="0" type="line"/>
			<point x="680" y="106" type="line"/>
			<point x="474" y="151" type="line"/>
			<point x="474" y="1298" type="line"/>
			<point x="434" y="1298" type="line"/>
			<point x="1325" y="-67" type="line"/>
		</contour>
		<contour>
			<point x="1464" y="-96" type="curve" smooth="yes"/>
			<point x="1464" y="1263" type="line"/>
			<point x="1652" y="1308" type="line"/>
			<point x="1652" y="1414" type="line"/>
			<point x="1088" y="1414" type="line"/>
			<point x="1088" y="1308" type="line"/>
			<point x="1294" y="1263" type="line"/>
			<point x="1294" y="-97" type="line" smooth="yes"/>
			<point x="1294" y="-254"/>
			<point x="1231" y="-302"/>
			<point x="1098" y="-302" type="curve" smooth="yes"/>
			<point x="1016" y="-302"/>
			<point x="935" y="-222"/>
			<point x="908" y="-222" type="curve" smooth="yes"/>
			<point x="858" y="-222"/>
			<point x="823" y="-272"/>
			<point x="823" y="-327" type="curve" smooth="yes"/>
			<point x="823" y="-401"/>
			<point x="890" y="-465"/>
			<point x="1084" y="-465" type="curve" smooth="yes"/>
			<point x="1331" y="-465"/>
			<point x="1464" y="-355"/>
		</contour>
	</outline>
</glyph>
<glyph name="eng" format="2">
	<unicode hex="014B"/>
	<advance width="1344"/>
	<outline>
		<contour>
			<point x="459" y="830" type="line"/>
			<point x="403" y="1049" type="line"/>
			<point x="365" y="1049" type="line"/>
			<point x="80" y="923" type="line"/>
			<point x="80" y="882" type="line"/>
			<point x="171" y="825.6906077348"/>
			<point x="239" y="783.6132596685"/>
			<point x="261" y="770" type="curve"/>
			<point x="261" y="136" type="line"/>
			<point x="94" y="96" type="line"/>
			<point x="94" y="0" type="line"/>
			<point x="617" y="0" type="line"/>
			<point x="617" y="96" type="line"/>
			<point x="459" y="136" type="line"/>
		</contour>
		<contour>
			<point x="980" y="-7" type="line" smooth="yes"/>
			<point x="980" y="-114"/>
			<point x="971" y="-128"/>
			<point x="737" y="-373" type="curve"/>
			<point x="818" y="-465" type="line"/>
			<point x="1135" y="-219"/>
			<point x="1178" y="-158"/>
			<point x="1178" y="36" type="curve" smooth="yes"/>
			<point x="1178" y="717" type="line" smooth="yes"/>
			<point x="1178" y="933"/>
			<point x="1076" y="1044"/>
			<point x="847" y="1044" type="curve" smooth="yes"/>
			<point x="721" y="1044"/>
			<point x="689" y="1031"/>
			<point x="439" y="841" type="curve"/>
			<point x="455" y="802" type="line"/>
			<point x="538" y="831"/>
			<point x="645" y="851"/>
			<point x="741" y="851" type="curve" smooth="yes"/>
			<point x="914" y="851"/>
			<point x="980" y="795"/>
			<point x="980" y="655" type="curve" smooth="yes"/>
		</contour>
	</outline>
</glyph>
<glyph name="OE" format="2">
  <advance width="2340.0"/>
  <unicode hex="0152"/>
  <outline>
    <contour>
      <point x="1893.0" y="990.0" type="line"/>
      <point x="1762.0" y="990.0" type="line"/>
      <point x="1745.0" y="815.0" type="line"/>
      <point x="1250.0" y="815.0" type="line"/>
      <point x="1250.0" y="659.0" type="line"/>
      <point x="1745.0" y="659.0" type="line"/>
      <point x="1762.0" y="480.0" type="line"/>
      <point x="1893.0" y="480.0" type="line"/>
      <point x="1893.0" y="735.0" type="line"/>
    </contour>
    <contour>
      <point x="1157.0" y="1414.0" type="line"/>
      <point x="1157.0" y="0.0" type="line"/>
      <point x="1375.0" y="0.0" type="line"/>
      <point x="1375.0" y="1414.0" type="line"/>
    </contour>
    <contour>
      <point x="871.0" y="0.0" type="curve" smooth="yes"/>
      <point x="2005.0" y="0.0" type="line"/>
      <point x="2047.0" y="-72.0" type="line"/>
      <point x="2174.0" y="-72.0" type="line"/>
      <point x="2250.0" y="432.0" type="line"/>
      <point x="2116.0" y="432.0" type="line"/>
      <point x="1965.0" y="72.0" type="line"/>
      <point x="2033.0" y="156.0" type="line"/>
      <point x="939.0" y="156.0" type="line" smooth="yes"/>
      <point x="530.0" y="156.0"/>
      <point x="348.0" y="328.0"/>
      <point x="348.0" y="690.0" type="curve" smooth="yes"/>
      <point x="348.0" y="1092.0"/>
      <point x="534.0" y="1258.0"/>
      <point x="886.0" y="1258.0" type="curve" smooth="yes"/>
      <point x="2055.0" y="1258.0" type="line"/>
      <point x="1976.0" y="1342.0" type="line"/>
      <point x="2057.0" y="1042.0" type="line"/>
      <point x="2197.0" y="1042.0" type="line"/>
      <point x="2197.0" y="1484.0" type="line"/>
      <point x="2086.0" y="1484.0" type="line"/>
      <point x="2009.0" y="1414.0" type="line"/>
      <point x="880.0" y="1414.0" type="line" smooth="yes"/>
      <point x="421.0" y="1414.0"/>
      <point x="122.0" y="1157.0"/>
      <point x="122.0" y="678.0" type="curve" smooth="yes"/>
      <point x="122.0" y="237.0"/>
      <point x="376.0" y="0.0"/>
    </contour>
  </outline>
</glyph>
<glyph name="oe" format="2">
	<unicode hex="0153"/>
	<advance width="2007"/>
	<outline>
		<contour>
			<point x="622" y="130" type="curve" smooth="yes"/>
			<point x="405" y="130"/>
			<point x="307" y="267"/>
			<point x="307" y="536" type="curve" smooth="yes"/>
			<point x="307" y="782"/>
			<point x="423" y="894"/>
			<point x="645" y="894" type="curve" smooth="yes"/>
			<point x="862" y="894"/>
			<point x="960" y="757"/>
			<point x="960" y="488" type="curve" smooth="yes"/>
			<point x="960" y="242"/>
			<point x="844" y="130"/>
		</contour>
		<contour>
			<point x="1109" y="272" type="curve"/>
			<point x="1016" y="272" type="line"/>
			<point x="1092" y="98"/>
			<point x="1235" y="-20"/>
			<point x="1477" y="-20" type="curve" smooth="yes"/>
			<point x="1598" y="-20"/>
			<point x="1761" y="37"/>
			<point x="1894" y="124" type="curve"/>
			<point x="1894" y="230" type="line"/>
			<point x="1802" y="193"/>
			<point x="1691" y="154"/>
			<point x="1559" y="154" type="curve" smooth="yes"/>
			<point x="1288" y="154"/>
			<point x="1162" y="270"/>
			<point x="1162" y="553" type="curve" smooth="yes"/>
			<point x="1162" y="800"/>
			<point x="1268" y="904"/>
			<point x="1452" y="904" type="curve" smooth="yes"/>
			<point x="1602" y="904"/>
			<point x="1692" y="821"/>
			<point x="1697" y="600" type="curve"/>
			<point x="1755" y="621" type="line"/>
			<point x="1126" y="621" type="line"/>
			<point x="1132" y="485" type="line"/>
			<point x="1902" y="485" type="line"/>
			<point x="1899" y="844"/>
			<point x="1781" y="1044"/>
			<point x="1457" y="1044" type="curve" smooth="yes"/>
			<point x="1244" y="1044"/>
			<point x="1094" y="931"/>
			<point x="1016" y="760" type="curve"/>
			<point x="1107" y="760" type="line"/>
			<point x="1028" y="930"/>
			<point x="879" y="1044"/>
			<point x="643" y="1044" type="curve" smooth="yes"/>
			<point x="309" y="1044"/>
			<point x="102" y="836"/>
			<point x="102" y="512" type="curve" smooth="yes"/>
			<point x="102" y="189"/>
			<point x="298" y="-20"/>
			<point x="624" y="-20" type="curve" smooth="yes"/>
			<point x="874" y="-20"/>
			<point x="1026" y="105"/>
		</contour>
	</outline>
	<anchor name="top" x="1002" y="1024"/>
	<anchor name="bottom" x="1002" y="0"/>
</glyph>
<glyph name="Scedilla" format="2">
	<unicode hex="015E"/>
	<advance width="1317"/>
	<outline>
		<contour>
			<point x="1074" y="1348" type="line"/>
			<point x="948" y="1409"/>
			<point x="834" y="1434"/>
			<point x="691" y="1434" type="curve" smooth="yes"/>
			<point x="344" y="1434"/>
			<point x="151" y="1306"/>
			<point x="151" y="1050" type="curve" smooth="yes"/>
			<point x="151" y="759"/>
			<point x="362" y="693"/>
			<point x="566" y="648" type="curve" smooth="yes"/>
			<point x="770" y="603"/>
			<point x="972" y="576"/>
			<point x="972" y="378" type="curve" smooth="yes"/>
			<point x="972" y="197"/>
			<point x="849" y="133"/>
			<point x="587" y="133" type="curve" smooth="yes"/>
			<point x="440" y="133"/>
			<point x="351" y="154"/>
			<point x="233" y="210" type="curve"/>
			<point x="444" y="43" type="line"/>
			<point x="278" y="444" type="line"/>
			<point x="122" y="444" type="line"/>
			<point x="182" y="32" type="line"/>
			<point x="310" y="-11"/>
			<point x="428" y="-20"/>
			<point x="588" y="-20" type="curve" smooth="yes"/>
			<point x="961" y="-20"/>
			<point x="1186" y="100"/>
			<point x="1186" y="405" type="curve" smooth="yes"/>
			<point x="1186" y="739"/>
			<point x="935" y="790"/>
			<point x="732" y="829" type="curve" smooth="yes"/>
			<point x="529" y="868"/>
			<point x="362" y="898"/>
			<point x="362" y="1076" type="curve" smooth="yes"/>
			<point x="362" y="1230"/>
			<point x="485" y="1285"/>
			<point x="681" y="1285" type="curve" smooth="yes"/>
			<point x="787" y="1285"/>
			<point x="873" y="1265"/>
			<point x="961" y="1208" type="curve"/>
			<point x="897" y="1276" type="line"/>
			<point x="977" y="983" type="line"/>
			<point x="1135" y="983" type="line"/>
			<point x="1135" y="1484" type="line"/>
			<point x="1015" y="1484" type="line"/>
			<point x="928" y="1371" type="line"/>
		</contour>
		<contour>
			<point x="582" y="-465" type="curve" smooth="yes"/>
			<point x="744" y="-465"/>
			<point x="848" y="-404"/>
			<point x="848" y="-282" type="curve" smooth="yes"/>
			<point x="848" y="-201"/>
			<point x="807" y="-136"/>
			<point x="595" y="-96" type="curve"/>
			<point x="605" y="-171" type="line"/>
			<point x="760" y="23" type="line"/>
			<point x="653" y="23" type="line"/>
			<point x="491" y="-190" type="line"/>
			<point x="491" y="-212" type="line"/>
			<point x="680" y="-244"/>
			<point x="707" y="-268"/>
			<point x="707" y="-313" type="curve" smooth="yes"/>
			<point x="707" y="-361"/>
			<point x="677" y="-385"/>
			<point x="606" y="-385" type="curve" smooth="yes"/>
			<point x="544" y="-385"/>
			<point x="495" y="-315"/>
			<point x="479" y="-315" type="curve" smooth="yes"/>
			<point x="453" y="-315"/>
			<point x="420" y="-340"/>
			<point x="420" y="-381" type="curve" smooth="yes"/>
			<point x="420" y="-434"/>
			<point x="456" y="-465"/>
		</contour>
	</outline>
</glyph>
<glyph name="scedilla" format="2">
	<unicode hex="015F"/>
	<advance width="1074"/>
	<outline>
		<contour>
			<point x="584" y="1044" type="curve" smooth="yes"/>
			<point x="300" y="1044"/>
			<point x="127" y="942"/>
			<point x="127" y="750" type="curve" smooth="yes"/>
			<point x="127" y="541"/>
			<point x="256" y="489"/>
			<point x="421" y="461" type="curve" smooth="yes"/>
			<point x="586" y="433"/>
			<point x="788" y="446"/>
			<point x="788" y="280" type="curve" smooth="yes"/>
			<point x="788" y="169"/>
			<point x="691" y="116"/>
			<point x="485" y="116" type="curve" smooth="yes"/>
			<point x="406" y="116"/>
			<point x="316" y="123"/>
			<point x="243" y="147" type="curve"/>
			<point x="366" y="42" type="line"/>
			<point x="245" y="325" type="line"/>
			<point x="103" y="325" type="line"/>
			<point x="146" y="36" type="line"/>
			<point x="229" y="2"/>
			<point x="372" y="-16"/>
			<point x="479" y="-16" type="curve" smooth="yes"/>
			<point x="806" y="-16"/>
			<point x="970" y="98"/>
			<point x="970" y="314" type="curve" smooth="yes"/>
			<point x="970" y="560"/>
			<point x="780" y="591"/>
			<point x="615" y="612" type="curve" smooth="yes"/>
			<point x="450" y="633"/>
			<point x="310" y="645"/>
			<point x="310" y="783" type="curve" smooth="yes"/>
			<point x="310" y="871"/>
			<point x="393" y="918"/>
			<point x="561" y="918" type="curve" smooth="yes"/>
			<point x="635" y="918"/>
			<point x="734" y="901"/>
			<point x="831" y="867" type="curve"/>
			<point x="672" y="977" type="line"/>
			<point x="786" y="729" type="line"/>
			<point x="923" y="729" type="line"/>
			<point x="893" y="995" type="line"/>
			<point x="773" y="1029"/>
			<point x="684" y="1044"/>
		</contour>
		<contour>
			<point x="465" y="-465" type="curve" smooth="yes"/>
			<point x="627" y="-465"/>
			<point x="731" y="-404"/>
			<point x="731" y="-282" type="curve" smooth="yes"/>
			<point x="731" y="-201"/>
			<point x="690" y="-136"/>
			<point x="478" y="-96" type="curve"/>
			<point x="488" y="-171" type="line"/>
			<point x="643" y="23" type="line"/>
			<point x="536" y="23" type="line"/>
			<point x="374" y="-190" type="line"/>
			<point x="374" y="-212" type="line"/>
			<point x="563" y="-244"/>
			<point x="590" y="-268"/>
			<point x="590" y="-313" type="curve" smooth="yes"/>
			<point x="590" y="-361"/>
			<point x="560" y="-385"/>
			<point x="489" y="-385" type="curve" smooth="yes"/>
			<point x="427" y="-385"/>
			<point x="378" y="-315"/>
			<point x="362" y="-315" type="curve" smooth="yes"/>
			<point x="336" y="-315"/>
			<point x="303" y="-340"/>
			<point x="303" y="-381" type="curve" smooth="yes"/>
			<point x="303" y="-434"/>
			<point x="339" y="-465"/>
		</contour>
	</outline>
</glyph>
<glyph name="uni0162" format="2">
	<unicode hex="0162"/>
	<advance width="1550"/>
	<outline>
		<contour>
			<point x="666" y="1350" type="line"/>
			<point x="666" y="151" type="line"/>
			<point x="450" y="106" type="line"/>
			<point x="450" y="0" type="line"/>
			<point x="1100" y="0" type="line"/>
			<point x="1100" y="106" type="line"/>
			<point x="884" y="151" type="line"/>
			<point x="884" y="1350" type="line"/>
		</contour>
		<contour>
			<point x="1271" y="1258" type="line"/>
			<point x="1215" y="1296" type="line"/>
			<point x="1339" y="950" type="line"/>
			<point x="1488" y="950" type="line"/>
			<point x="1412" y="1504" type="line"/>
			<point x="1300" y="1504" type="line"/>
			<point x="1220" y="1391" type="line"/>
			<point x="1346" y="1414" type="line"/>
			<point x="204" y="1414" type="line"/>
			<point x="330" y="1391" type="line"/>
			<point x="250" y="1504" type="line"/>
			<point x="138" y="1504" type="line"/>
			<point x="62" y="950" type="line"/>
			<point x="211" y="950" type="line"/>
			<point x="335" y="1296" type="line"/>
			<point x="279" y="1258" type="line"/>
		</contour>
		<contour>
			<point x="693" y="-465" type="curve" smooth="yes"/>
			<point x="855" y="-465"/>
			<point x="959" y="-404"/>
			<point x="959" y="-282" type="curve" smooth="yes"/>
			<point x="959" y="-201"/>
			<point x="918" y="-136"/>
			<point x="706" y="-96" type="curve"/>
			<point x="716" y="-171" type="line"/>
			<point x="871" y="23" type="line"/>
			<point x="764" y="23" type="line"/>
			<point x="602" y="-190" type="line"/>
			<point x="602" y="-212" type="line"/>
			<point x="791" y="-244"/>
			<point x="818" y="-268"/>
			<point x="818" y="-313" type="curve" smooth="yes"/>
			<point x="818" y="-361"/>
			<point x="788" y="-385"/>
			<point x="717" y="-385" type="curve" smooth="yes"/>
			<point x="655" y="-385"/>
			<point x="606" y="-315"/>
			<point x="590" y="-315" type="curve" smooth="yes"/>
			<point x="564" y="-315"/>
			<point x="531" y="-340"/>
			<point x="531" y="-381" type="curve" smooth="yes"/>
			<point x="531" y="-434"/>
			<point x="567" y="-465"/>
		</contour>
	</outline>
</glyph>
<glyph name="uni0163" format="2">
	<unicode hex="0163"/>
	<advance width="883"/>
	<outline>
		<contour>
			<point x="428" y="312" type="curve" smooth="yes"/>
			<point x="428" y="989" type="line"/>
			<point x="428" y="1224" type="line"/>
			<point x="348" y="1224" type="line"/>
			<point x="283" y="1094"/>
			<point x="249" y="1053"/>
			<point x="38" y="988" type="curve"/>
			<point x="38" y="921" type="line"/>
			<point x="230" y="868" type="line"/>
			<point x="230" y="210" type="line" smooth="yes"/>
			<point x="230" y="55"/>
			<point x="352" y="-20"/>
			<point x="501" y="-20" type="curve" smooth="yes"/>
			<point x="582" y="-20"/>
			<point x="674" y="9"/>
			<point x="833" y="100" type="curve"/>
			<point x="833" y="185" type="line"/>
			<point x="755" y="163"/>
			<point x="685" y="151"/>
			<point x="627" y="151" type="curve" smooth="yes"/>
			<point x="490" y="151"/>
			<point x="428" y="192"/>
		</contour>
		<contour>
			<point x="352" y="869" type="line"/>
			<point x="814" y="869" type="line"/>
			<point x="814" y="1024" type="line"/>
			<point x="358" y="1024" type="line"/>
		</contour>
		<contour>
			<point x="474" y="-465" type="curve" smooth="yes"/>
			<point x="636" y="-465"/>
			<point x="740" y="-404"/>
			<point x="740" y="-282" type="curve" smooth="yes"/>
			<point x="740" y="-201"/>
			<point x="699" y="-136"/>
			<point x="487" y="-96" type="curve"/>
			<point x="497" y="-171" type="line"/>
			<point x="652" y="23" type="line"/>
			<point x="545" y="23" type="line"/>
			<point x="383" y="-190" type="line"/>
			<point x="383" y="-212" type="line"/>
			<point x="572" y="-244"/>
			<point x="599" y="-268"/>
			<point x="599" y="-313" type="curve" smooth="yes"/>
			<point x="599" y="-361"/>
			<point x="569" y="-385"/>
			<point x="498" y="-385" type="curve" smooth="yes"/>
			<point x="436" y="-385"/>
			<point x="387" y="-315"/>
			<point x="371" y="-315" type="curve" smooth="yes"/>
			<point x="345" y="-315"/>
			<point x="312" y="-340"/>
			<point x="312" y="-381" type="curve" smooth="yes"/>
			<point x="312" y="-434"/>
			<point x="348" y="-465"/>
		</contour>
	</outline>
</glyph>
<glyph name="Tbar" format="2">
  <advance width="1550.0"/>
  <unicode hex="0166"/>
  <outline>
    <contour>
      <point x="379.0" y="652.0" type="line"/>
      <point x="1171.0" y="652.0" type="line"/>
      <point x="1171.0" y="782.0" type="line"/>
      <point x="379.0" y="782.0" type="line"/>
    </contour>
    <contour>
      <point x="666.0" y="1350.0" type="line"/>
      <point x="666.0" y="151.0" type="line"/>
      <point x="450.0" y="106.0" type="line"/>
      <point x="450.0" y="0.0" type="line"/>
      <point x="1100.0" y="0.0" type="line"/>
      <point x="1100.0" y="106.0" type="line"/>
      <point x="884.0" y="151.0" type="line"/>
      <point x="884.0" y="1350.0" type="line"/>
    </contour>
    <contour>
      <point x="1271.0" y="1258.0" type="line"/>
      <point x="1215.0" y="1296.0" type="line"/>
      <point x="1339.0" y="950.0" type="line"/>
      <point x="1488.0" y="950.0" type="line"/>
      <point x="1412.0" y="1504.0" type="line"/>
      <point x="1300.0" y="1504.0" type="line"/>
      <point x="1220.0" y="1391.0" type="line"/>
      <point x="1346.0" y="1414.0" type="line"/>
      <point x="204.0" y="1414.0" type="line"/>
      <point x="330.0" y="1391.0" type="line"/>
      <point x="250.0" y="1504.0" type="line"/>
      <point x="138.0" y="1504.0" type="line"/>
      <point x="62.0" y="950.0" type="line"/>
      <point x="211.0" y="950.0" type="line"/>
      <point x="335.0" y="1296.0" type="line"/>
      <point x="279.0" y="1258.0" type="line"/>
    </contour>
  </outline>
</glyph>
<glyph name="tbar" format="2">
	<unicode hex="0167"/>
	<advance width="901"/>
	<outline>
		<contour>
			<point x="73" y="494" type="line"/>
			<point x="769" y="494" type="line"/>
			<point x="769" y="614" type="line"/>
			<point x="73" y="614" type="line"/>
		</contour>
		<contour>
			<point x="444" y="312" type="curve" smooth="yes"/>
			<point x="444" y="989" type="line"/>
			<point x="444" y="1224" type="line"/>
			<point x="364" y="1224" type="line"/>
			<point x="299" y="1094"/>
			<point x="265" y="1053"/>
			<point x="54" y="988" type="curve"/>
			<point x="54" y="921" type="line"/>
			<point x="246" y="868" type="line"/>
			<point x="246" y="210" type="line" smooth="yes"/>
			<point x="246" y="55"/>
			<point x="368" y="-20"/>
			<point x="517" y="-20" type="curve" smooth="yes"/>
			<point x="598" y="-20"/>
			<point x="690" y="9"/>
			<point x="849" y="100" type="curve"/>
			<point x="849" y="185" type="line"/>
			<point x="771" y="163"/>
			<point x="701" y="151"/>
			<point x="643" y="151" type="curve" smooth="yes"/>
			<point x="506" y="151"/>
			<point x="444" y="192"/>
		</contour>
		<contour>
			<point x="368" y="869" type="line"/>
			<point x="830" y="869" type="line"/>
			<point x="830" y="1024" type="line"/>
			<point x="374" y="1024" type="line"/>
		</contour>
	</outline>
</glyph>
<glyph name="Uogonek" format="2">
	<unicode hex="0172"/>
	<advance width="1719"/>
	<outline>
		<contour>
			<point x="1281" y="502" type="line" smooth="yes"/>
			<point x="1281" y="253"/>
			<point x="1148" y="155"/>
			<point x="892" y="155" type="curve" smooth="yes"/>
			<point x="620" y="155"/>
			<point x="485" y="265"/>
			<point x="485" y="522" type="curve" smooth="yes"/>
			<point x="485" y="1263" type="line"/>
			<point x="681" y="1308" type="line"/>
			<point x="681" y="1414" type="line"/>
			<point x="71" y="1414" type="line"/>
			<point x="71" y="1308" type="line"/>
			<point x="267" y="1263" type="line"/>
			<point x="267" y="522" type="line" smooth="yes"/>
			<point x="267" y="151"/>
			<point x="472" y="-20"/>
			<point x="880" y="-20" type="curve" smooth="yes"/>
			<point x="1244" y="-20"/>
			<point x="1451" y="162"/>
			<point x="1451" y="512" type="curve" smooth="yes"/>
			<point x="1451" y="1263" type="line"/>
			<point x="1647" y="1308" type="line"/>
			<point x="1647" y="1414" type="line"/>
			<point x="1085" y="1414" type="line"/>
			<point x="1085" y="1308" type="line"/>
			<point x="1281" y="1263" type="line"/>
		</contour>
		<contour>
			<point x="913" y="-78" type="curve" smooth="yes"/>
			<point x="971" y="45" type="line"/>
			<point x="889" y="45" type="line"/>
			<point x="803" y="-79" type="line" smooth="yes"/>
			<point x="719" y="-201"/>
			<point x="699" y="-251"/>
			<point x="699" y="-314" type="curve" smooth="yes"/>
			<point x="699" y="-403"/>
			<point x="748" y="-465"/>
			<point x="869" y="-465" type="curve" smooth="yes"/>
			<point x="941" y="-465"/>
			<point x="982" y="-448"/>
			<point x="1057" y="-389" type="curve"/>
			<point x="1057" y="-319" type="line"/>
			<point x="1005" y="-346"/>
			<point x="980" y="-351"/>
			<point x="942" y="-351" type="curve" smooth="yes"/>
			<point x="886" y="-351"/>
			<point x="854" y="-319"/>
			<point x="854" y="-262" type="curve" smooth="yes"/>
			<point x="854" y="-214"/>
			<point x="868" y="-173"/>
		</contour>
	</outline>
</glyph>
<glyph name="uogonek" format="2">
	<unicode hex="0173"/>
	<advance width="1324"/>
	<outline>
		<contour>
			<point x="418" y="354" type="curve" smooth="yes"/>
			<point x="418" y="878" type="line"/>
			<point x="440" y="1034" type="line"/>
			<point x="36" y="1024" type="line"/>
			<point x="36" y="927" type="line"/>
			<point x="220" y="859" type="line"/>
			<point x="220" y="289" type="line" smooth="yes"/>
			<point x="220" y="85"/>
			<point x="316" y="-20"/>
			<point x="532" y="-20" type="curve" smooth="yes"/>
			<point x="651" y="-20"/>
			<point x="682" y="-8"/>
			<point x="918" y="172" type="curve"/>
			<point x="903" y="218" type="line"/>
			<point x="826" y="192"/>
			<point x="727" y="173"/>
			<point x="639" y="173" type="curve" smooth="yes"/>
			<point x="478" y="173"/>
			<point x="418" y="225"/>
		</contour>
		<contour>
			<point x="969" y="-20" type="line"/>
			<point x="1007" y="-20" type="line"/>
			<point x="1276" y="106" type="line"/>
			<point x="1276" y="148" type="line"/>
			<point x="1234" y="168.7717391304"/>
			<point x="1116" y="227.1304347826"/>
			<point x="1092" y="239" type="curve"/>
			<point x="1092" y="878" type="line"/>
			<point x="1112" y="1034" type="line"/>
			<point x="718" y="1024" type="line"/>
			<point x="718" y="927" type="line"/>
			<point x="894" y="859" type="line"/>
			<point x="894" y="159" type="line"/>
		</contour>
		<contour>
			<point x="1005" y="-76" type="curve" smooth="yes"/>
			<point x="1078" y="45" type="line"/>
			<point x="996" y="45" type="line"/>
			<point x="896" y="-82" type="line" smooth="yes"/>
			<point x="803" y="-200"/>
			<point x="788" y="-251"/>
			<point x="788" y="-314" type="curve" smooth="yes"/>
			<point x="788" y="-403"/>
			<point x="837" y="-465"/>
			<point x="958" y="-465" type="curve" smooth="yes"/>
			<point x="1030" y="-465"/>
			<point x="1071" y="-448"/>
			<point x="1146" y="-389" type="curve"/>
			<point x="1146" y="-319" type="line"/>
			<point x="1094" y="-346"/>
			<point x="1069" y="-351"/>
			<point x="1031" y="-351" type="curve" smooth="yes"/>
			<point x="975" y="-351"/>
			<point x="943" y="-319"/>
			<point x="943" y="-262" type="curve" smooth="yes"/>
			<point x="943" y="-214"/>
			<point x="950" y="-168"/>
		</contour>
	</outline>
</glyph>
<glyph name="uni018F" format="2">
	<unicode hex="018F"/>
	<advance width="1525"/>
	<outline>
		<contour>
			<point x="322" y="577" type="line"/>
			<point x="1282" y="577" type="line"/>
			<point x="1282" y="733" type="line"/>
			<point x="124" y="733" type="line"/>
			<point x="128" y="248"/>
			<point x="287" y="-20"/>
			<point x="732" y="-20" type="curve" smooth="yes"/>
			<point x="1134" y="-20"/>
			<point x="1404" y="270"/>
			<point x="1404" y="726" type="curve" smooth="yes"/>
			<point x="1404" y="1186"/>
			<point x="1126" y="1434"/>
			<point x="703" y="1434" type="curve" smooth="yes"/>
			<point x="541" y="1434"/>
			<point x="307" y="1371"/>
			<point x="134" y="1258" type="curve"/>
			<point x="134" y="1138" type="line"/>
			<point x="263" y="1188"/>
			<point x="417" y="1237"/>
			<point x="597" y="1237" type="curve" smooth="yes"/>
			<point x="993" y="1237"/>
			<point x="1179" y="1067"/>
			<point x="1179" y="644" type="curve" smooth="yes"/>
			<point x="1179" y="300"/>
			<point x="1012" y="147"/>
			<point x="729" y="147" type="curve" smooth="yes"/>
			<point x="501" y="147"/>
			<point x="359" y="284"/>
			<point x="353" y="638" type="curve"/>
		</contour>
	</outline>
</glyph>
